<svg width="96" height="45" viewBox="0 0 96 45" fill="none" xmlns="http://www.w3.org/2000/svg">
<path d="M68.4872 9.24657L54.5612 19.1066L60.5104 23.089L68.4872 18.3767V9.24657Z" fill="black"/>
<path d="M27.5128 34.1336C27.5128 34.1336 11.3539 24.5301 1 18.3767C1 21.4822 1 26.3288 1 26.3288L27.5128 42.9692L47.8661 31.0411L39.9884 26.0342L27.5128 34.1336Z" fill="black"/>
<path d="M95 18.3767L68.4872 35.0171L27.7806 9.83562L13.453 18.3767L19.7464 22.4883L27.5128 17.5566L47.8661 31.0411L68.4872 44L95 27.2123V18.3767Z" fill="black"/>
<path d="M82.0114 18.3767L68.4872 9.24657V18.3767L74.7806 23.089L82.0114 18.3767Z" fill="black"/>
<path d="M1 18.3767C11.3539 24.5301 27.5128 34.1336 27.5128 34.1336L39.9884 26.0342L34.6097 22.6157L26.9772 27.2123L19.7464 22.4883L13.453 18.3767L27.7806 9.83562L68.4872 35.0171L95 18.3767L67.5499 1L47.5983 14.4455L54.5612 19.1066L68.4872 9.24657L82.0114 18.3767L74.7806 23.089L67.5499 27.8014L60.5104 23.089L27.5128 1C27.5128 1 11.3539 11.5907 1 18.3767Z" fill="#1066FF"/>
<path d="M1 18.3767L0.725918 17.9585L0.5 18.1066V18.3767H1ZM27.5128 1L27.791 0.584503L27.5157 0.400266L27.2387 0.581815L27.5128 1ZM67.5499 27.8014L67.2717 28.2169L67.5462 28.4006L67.8228 28.2203L67.5499 27.8014ZM82.0114 18.3767L82.2844 18.7956L82.9159 18.3841L82.2912 17.9623L82.0114 18.3767ZM68.4872 9.24657L68.7669 8.83217L68.4804 8.63873L68.1982 8.83851L68.4872 9.24657ZM54.5612 19.1066L54.2831 19.5221L54.2831 19.5221L54.5612 19.1066ZM47.5983 14.4455L47.3189 14.0309L46.7015 14.4469L47.3201 14.861L47.5983 14.4455ZM67.5499 1L67.8173 0.577532L67.5413 0.402824L67.2704 0.585366L67.5499 1ZM95 18.3767H95.5V18.1015L95.2674 17.9542L95 18.3767ZM27.7806 9.83562L28.0437 9.4104L27.7854 9.25065L27.5246 9.40614L27.7806 9.83562ZM13.453 18.3767L13.197 17.9472L12.5091 18.3573L13.1795 18.7953L13.453 18.3767ZM26.9772 27.2123L26.7037 27.6309L26.9664 27.8025L27.2352 27.6407L26.9772 27.2123ZM34.6097 22.6157L34.8779 22.1937L34.6168 22.0278L34.3517 22.1874L34.6097 22.6157ZM39.9884 26.0342L40.2566 25.6123L39.9884 26.0342ZM27.5128 42.9692L27.247 43.3927L27.5039 43.5539L27.7656 43.4006L27.5128 42.9692ZM68.4872 44L68.2211 44.4233L68.4882 44.5912L68.7547 44.4224L68.4872 44ZM95 27.2123L95.2675 27.6348L95.5 27.4875V27.2123H95ZM60.5104 23.089L60.2322 23.5045L60.2322 23.5045L60.5104 23.089ZM1 26.3288H0.5V26.6053L0.734198 26.7523L1 26.3288ZM27.5128 34.1336C27.7683 33.7037 27.7682 33.7037 27.7681 33.7036C27.768 33.7036 27.7678 33.7034 27.7675 33.7033C27.7672 33.7031 27.7661 33.7024 27.7653 33.702C27.7633 33.7008 27.7605 33.6991 27.7565 33.6968C27.7488 33.6921 27.737 33.6852 27.7216 33.676C27.6907 33.6576 27.6447 33.6303 27.5843 33.5944C27.4634 33.5225 27.2848 33.4164 27.0537 33.2791C26.5916 33.0045 25.92 32.6053 25.0817 32.1071C23.405 31.1106 21.0616 29.7179 18.3946 28.1329C13.0606 24.9628 6.4324 21.0236 1.25545 17.9469L0.744552 18.8065C5.9215 21.8833 12.5497 25.8225 17.8837 28.9925C20.5507 30.5775 22.8941 31.9702 24.5708 32.9667C25.4091 33.4649 26.0808 33.8641 26.5428 34.1387C26.7738 34.276 26.9525 34.3822 27.0734 34.454C27.1338 34.4899 27.1798 34.5173 27.2107 34.5356C27.2261 34.5448 27.2378 34.5518 27.2456 34.5564C27.2495 34.5587 27.2525 34.5605 27.2544 34.5616C27.2554 34.5622 27.2562 34.5627 27.2566 34.5629C27.2569 34.5631 27.2571 34.5632 27.2572 34.5633C27.2573 34.5633 27.2574 34.5634 27.5128 34.1336ZM1.27408 18.7949C6.45103 15.4019 13.0792 11.0577 18.4132 7.56178C21.0802 5.81382 23.4236 4.27792 25.1003 3.17901C25.9386 2.62956 26.6103 2.18935 27.0723 1.88651C27.3034 1.73509 27.482 1.618 27.6029 1.53878C27.6634 1.49915 27.7093 1.46904 27.7402 1.44877C27.7556 1.43868 27.7674 1.43098 27.7751 1.42589C27.7791 1.42331 27.782 1.42142 27.784 1.42012C27.7847 1.41965 27.7859 1.41882 27.7862 1.41867C27.7864 1.41851 27.7866 1.41839 27.7867 1.41831C27.7868 1.41823 27.7869 1.41819 27.5128 1C27.2387 0.581815 27.2387 0.581855 27.2386 0.581936C27.2384 0.582016 27.2382 0.582137 27.238 0.582299C27.2375 0.582631 27.2368 0.583093 27.2358 0.583747C27.2338 0.585046 27.2309 0.586946 27.227 0.589517C27.2192 0.594617 27.2075 0.602296 27.1921 0.612403C27.1612 0.632658 27.1152 0.662787 27.0547 0.70241C26.9339 0.781623 26.7552 0.898728 26.5242 1.05014C26.0621 1.35298 25.3905 1.79319 24.5521 2.34264C22.8754 3.44155 20.532 4.97745 17.865 6.72541C12.5311 10.2213 5.90287 14.5655 0.725918 17.9585L1.27408 18.7949ZM82.2912 17.9623L68.7669 8.83217L68.2074 9.66098L81.7316 18.7911L82.2912 17.9623ZM68.1982 8.83851L54.2723 18.6985L54.8502 19.5147L68.7761 9.65464L68.1982 8.83851ZM54.8394 18.6911L47.8764 14.03L47.3201 14.861L54.2831 19.5221L54.8394 18.6911ZM47.8777 14.8601L67.8293 1.41463L67.2704 0.585366L47.3189 14.0309L47.8777 14.8601ZM67.2824 1.42247L94.7326 18.7992L95.2674 17.9542L67.8173 0.577532L67.2824 1.42247ZM94.7342 17.9532L68.2214 34.5936L68.753 35.4406L95.2658 18.8002L94.7342 17.9532ZM68.7502 34.5919L28.0437 9.4104L27.5176 10.2608L68.2241 35.4423L68.7502 34.5919ZM27.5246 9.40614L13.197 17.9472L13.709 18.8062L28.0366 10.2651L27.5246 9.40614ZM27.2352 27.6407L34.8676 23.044L34.3517 22.1874L26.7193 26.784L27.2352 27.6407ZM34.3415 23.0377L39.7202 26.4562L40.2566 25.6123L34.8779 22.1937L34.3415 23.0377ZM39.7161 25.6149L27.2406 33.7142L27.7851 34.5529L40.2606 26.4536L39.7161 25.6149ZM27.5128 42.9692C27.7656 43.4006 27.7657 43.4005 27.7658 43.4005C27.7659 43.4004 27.766 43.4003 27.7662 43.4002C27.7664 43.4001 27.7673 43.3996 27.7679 43.3992C27.7694 43.3983 27.7716 43.397 27.7747 43.3953C27.7807 43.3917 27.7896 43.3865 27.8015 43.3796C27.8252 43.3657 27.8605 43.345 27.9069 43.3178C27.9997 43.2634 28.1368 43.183 28.3142 43.0791C28.6689 42.8712 29.1845 42.569 29.8281 42.1919C31.1152 41.4375 32.9142 40.3832 34.9616 39.1833C39.0564 36.7836 44.1447 33.8016 48.1189 31.4725L47.6133 30.6097C43.6391 32.9388 38.5507 35.9208 34.456 38.3206C32.4086 39.5205 30.6096 40.5748 29.3225 41.3291C28.6789 41.7063 28.1633 42.0084 27.8086 42.2163C27.6312 42.3203 27.4941 42.4006 27.4013 42.455C27.3549 42.4822 27.3195 42.5029 27.2958 42.5168C27.284 42.5238 27.275 42.529 27.269 42.5325C27.2661 42.5342 27.2637 42.5356 27.2623 42.5365C27.2615 42.5369 27.261 42.5372 27.2606 42.5375C27.2604 42.5376 27.2602 42.5377 27.2602 42.5377C27.2601 42.5378 27.26 42.5378 27.5128 42.9692ZM47.6 31.4644C51.6266 33.9948 56.7818 37.2345 60.9305 39.8417C63.0048 41.1452 64.8275 42.2907 66.1315 43.1102C66.7836 43.52 67.306 43.8482 67.6654 44.0741C67.8451 44.187 67.984 44.2743 68.078 44.3334C68.125 44.363 68.1608 44.3854 68.1848 44.4005C68.1968 44.4081 68.206 44.4138 68.212 44.4176C68.215 44.4195 68.2173 44.4209 68.2188 44.4219C68.2199 44.4226 68.2199 44.4226 68.2206 44.423C68.2207 44.4231 68.2209 44.4232 68.221 44.4233C68.2211 44.4233 68.2211 44.4233 68.4872 44C68.7532 43.5767 68.7532 43.5766 68.7531 43.5766C68.753 43.5765 68.7528 43.5764 68.7526 43.5763C68.7524 43.5761 68.7515 43.5756 68.7509 43.5752C68.7495 43.5743 68.747 43.5727 68.7441 43.5709C68.738 43.5671 68.7289 43.5614 68.7169 43.5538C68.6929 43.5388 68.6571 43.5163 68.6101 43.4867C68.5161 43.4276 68.3771 43.3403 68.1975 43.2274C67.8381 43.0015 67.3157 42.6733 66.6636 42.2635C65.3595 41.444 63.5369 40.2986 61.4626 38.995C57.3139 36.3879 52.1587 33.1481 48.1321 30.6177L47.6 31.4644ZM68.7547 44.4224L95.2675 27.6348L94.7325 26.7899L68.2197 43.5776L68.7547 44.4224ZM95.5 27.2123V18.3767H94.5V27.2123H95.5ZM67.9872 9.24657V18.3767H68.9872V9.24657H67.9872ZM67.8228 28.2203L75.0536 23.5079L74.5076 22.6701L67.2769 27.3825L67.8228 28.2203ZM75.0536 23.5079L82.2844 18.7956L81.7384 17.9578L74.5076 22.6701L75.0536 23.5079ZM68.1875 18.7769L74.4809 23.4893L75.0803 22.6888L68.7869 17.9765L68.1875 18.7769ZM27.5128 1C27.2347 1.4155 27.2348 1.41555 27.2349 1.41565C27.2351 1.41575 27.2353 1.41591 27.2356 1.41611C27.2362 1.41652 27.2371 1.41714 27.2383 1.41795C27.2408 1.41959 27.2445 1.42204 27.2493 1.42529C27.259 1.4318 27.2735 1.44151 27.2928 1.45438C27.3312 1.48012 27.3885 1.51844 27.4637 1.5688C27.6141 1.66951 27.8365 1.81834 28.124 2.01082C28.6991 2.39579 29.535 2.95538 30.5784 3.65384C32.6652 5.05075 35.5818 7.00317 38.9011 9.22515C45.5397 13.6691 53.7891 19.1914 60.2322 23.5045L60.7885 22.6735C54.3453 18.3604 46.096 12.8381 39.4574 8.39416C36.1381 6.17217 33.2215 4.21976 31.1347 2.82284C30.0913 2.12438 29.2554 1.5648 28.6803 1.17983C28.3927 0.987342 28.1704 0.838512 28.02 0.737801C27.9447 0.687444 27.8875 0.649125 27.849 0.623386C27.8298 0.610515 27.8153 0.600799 27.8056 0.594293C27.8007 0.591035 27.7971 0.5886 27.7946 0.586959C27.7934 0.58614 27.7925 0.585529 27.7919 0.585118C27.7916 0.584913 27.7913 0.584759 27.7912 0.584656C27.791 0.584554 27.791 0.584503 27.5128 1ZM60.2322 23.5045C61.6068 24.4247 63.3666 25.6028 64.7829 26.5508C65.491 27.0248 66.1132 27.4413 66.5584 27.7394C66.781 27.8884 66.9593 28.0077 67.082 28.0899C67.1433 28.1309 67.1908 28.1627 67.2229 28.1842C67.2389 28.1949 67.2511 28.2031 67.2593 28.2086C67.2634 28.2113 67.2665 28.2134 67.2686 28.2148C67.2696 28.2155 67.2704 28.216 67.2709 28.2163C67.2712 28.2165 67.2714 28.2167 67.2715 28.2167C67.2716 28.2168 67.2716 28.2168 67.2717 28.2168C67.2717 28.2169 67.2717 28.2169 67.5499 27.8014C67.828 27.3859 67.828 27.3859 67.8279 27.3858C67.8279 27.3858 67.8279 27.3858 67.8278 27.3857C67.8276 27.3856 67.8275 27.3856 67.8272 27.3853C67.8267 27.385 67.8259 27.3845 67.8249 27.3838C67.8228 27.3824 67.8197 27.3803 67.8156 27.3776C67.8074 27.3721 67.7952 27.3639 67.7791 27.3532C67.747 27.3317 67.6996 27.2999 67.6383 27.2589C67.5156 27.1767 67.3373 27.0574 67.1147 26.9084C66.6695 26.6104 66.0473 26.1938 65.3392 25.7198C63.9229 24.7718 62.1631 23.5937 60.7885 22.6735L60.2322 23.5045ZM68.4872 18.3767C68.2329 17.9462 68.2328 17.9462 68.2328 17.9463C68.2328 17.9463 68.2327 17.9463 68.2326 17.9464C68.2325 17.9464 68.2322 17.9466 68.232 17.9467C68.2314 17.9471 68.2305 17.9476 68.2293 17.9483C68.227 17.9497 68.2235 17.9518 68.2188 17.9545C68.2095 17.96 68.1957 17.9682 68.1775 17.9789C68.1411 18.0004 68.0874 18.0322 68.0179 18.0732C67.8789 18.1553 67.6768 18.2747 67.4245 18.4237C66.9201 18.7217 66.215 19.1383 65.4126 19.6123C63.8078 20.5603 61.8136 21.7384 60.2561 22.6585L60.7647 23.5195C62.3223 22.5994 64.3165 21.4213 65.9213 20.4733C66.7237 19.9992 67.4287 19.5827 67.9332 19.2847C68.1854 19.1357 68.3875 19.0163 68.5265 18.9342C68.596 18.8931 68.6498 18.8614 68.6861 18.8399C68.7043 18.8292 68.7182 18.821 68.7274 18.8155C68.7321 18.8128 68.7356 18.8107 68.738 18.8093C68.7391 18.8086 68.74 18.8081 68.7406 18.8077C68.7409 18.8075 68.7411 18.8074 68.7413 18.8073C68.7413 18.8073 68.7414 18.8073 68.7414 18.8072C68.7415 18.8072 68.7415 18.8072 68.4872 18.3767ZM27.7786 42.5457L1.2658 25.9053L0.734198 26.7523L27.247 43.3927L27.7786 42.5457ZM1 26.3288C1.5 26.3288 1.5 26.3287 1.5 26.3287C1.5 26.3287 1.5 26.3286 1.5 26.3285C1.5 26.3285 1.5 26.3284 1.5 26.3283C1.5 26.3282 1.5 26.328 1.5 26.3279C1.5 26.3277 1.5 26.3276 1.5 26.3274C1.5 26.3272 1.5 26.327 1.5 26.3268C1.5 26.3266 1.5 26.3263 1.5 26.3261C1.5 26.3258 1.5 26.3255 1.5 26.3252C1.5 26.325 1.5 26.3246 1.5 26.3243C1.5 26.324 1.5 26.3236 1.5 26.3233C1.5 26.3229 1.5 26.3225 1.5 26.3221C1.5 26.3217 1.5 26.3213 1.5 26.3209C1.5 26.3204 1.5 26.32 1.5 26.3195C1.5 26.319 1.5 26.3185 1.5 26.318C1.5 26.3175 1.5 26.317 1.5 26.3165C1.5 26.3159 1.5 26.3153 1.5 26.3148C1.5 26.3142 1.5 26.3136 1.5 26.313C1.5 26.3124 1.5 26.3117 1.5 26.3111C1.5 26.3104 1.5 26.3098 1.5 26.3091C1.5 26.3084 1.5 26.3077 1.5 26.307C1.5 26.3063 1.5 26.3055 1.5 26.3048C1.5 26.304 1.5 26.3032 1.5 26.3024C1.5 26.3017 1.5 26.3008 1.5 26.3C1.5 26.2992 1.5 26.2984 1.5 26.2975C1.5 26.2966 1.5 26.2958 1.5 26.2949C1.5 26.294 1.5 26.2931 1.5 26.2921C1.5 26.2912 1.5 26.2903 1.5 26.2893C1.5 26.2883 1.5 26.2874 1.5 26.2864C1.5 26.2854 1.5 26.2843 1.5 26.2833C1.5 26.2823 1.5 26.2812 1.5 26.2802C1.5 26.2791 1.5 26.278 1.5 26.2769C1.5 26.2758 1.5 26.2747 1.5 26.2736C1.5 26.2724 1.5 26.2713 1.5 26.2701C1.5 26.269 1.5 26.2678 1.5 26.2666C1.5 26.2654 1.5 26.2642 1.5 26.2629C1.5 26.2617 1.5 26.2604 1.5 26.2592C1.5 26.2579 1.5 26.2566 1.5 26.2553C1.5 26.254 1.5 26.2527 1.5 26.2514C1.5 26.25 1.5 26.2487 1.5 26.2473C1.5 26.2459 1.5 26.2446 1.5 26.2432C1.5 26.2418 1.5 26.2403 1.5 26.2389C1.5 26.2375 1.5 26.236 1.5 26.2346C1.5 26.2331 1.5 26.2316 1.5 26.2301C1.5 26.2286 1.5 26.2271 1.5 26.2256C1.5 26.224 1.5 26.2225 1.5 26.2209C1.5 26.2194 1.5 26.2178 1.5 26.2162C1.5 26.2146 1.5 26.213 1.5 26.2113C1.5 26.2097 1.5 26.2081 1.5 26.2064C1.5 26.2047 1.5 26.2031 1.5 26.2014C1.5 26.1997 1.5 26.198 1.5 26.1962C1.5 26.1945 1.5 26.1928 1.5 26.191C1.5 26.1893 1.5 26.1875 1.5 26.1857C1.5 26.1839 1.5 26.1821 1.5 26.1803C1.5 26.1785 1.5 26.1766 1.5 26.1748C1.5 26.1729 1.5 26.171 1.5 26.1692C1.5 26.1673 1.5 26.1654 1.5 26.1634C1.5 26.1615 1.5 26.1596 1.5 26.1577C1.5 26.1557 1.5 26.1537 1.5 26.1518C1.5 26.1498 1.5 26.1478 1.5 26.1458C1.5 26.1438 1.5 26.1417 1.5 26.1397C1.5 26.1377 1.5 26.1356 1.5 26.1335C1.5 26.1315 1.5 26.1294 1.5 26.1273C1.5 26.1252 1.5 26.123 1.5 26.1209C1.5 26.1188 1.5 26.1166 1.5 26.1145C1.5 26.1123 1.5 26.1101 1.5 26.1079C1.5 26.1057 1.5 26.1035 1.5 26.1013C1.5 26.099 1.5 26.0968 1.5 26.0945C1.5 26.0923 1.5 26.09 1.5 26.0877C1.5 26.0854 1.5 26.0831 1.5 26.0808C1.5 26.0785 1.5 26.0762 1.5 26.0738C1.5 26.0715 1.5 26.0691 1.5 26.0667C1.5 26.0644 1.5 26.062 1.5 26.0596C1.5 26.0572 1.5 26.0547 1.5 26.0523C1.5 26.0499 1.5 26.0474 1.5 26.0449C1.5 26.0425 1.5 26.04 1.5 26.0375C1.5 26.035 1.5 26.0325 1.5 26.0299C1.5 26.0274 1.5 26.0249 1.5 26.0223C1.5 26.0198 1.5 26.0172 1.5 26.0146C1.5 26.012 1.5 26.0094 1.5 26.0068C1.5 26.0042 1.5 26.0016 1.5 25.9989C1.5 25.9963 1.5 25.9936 1.5 25.9909C1.5 25.9883 1.5 25.9856 1.5 25.9829C1.5 25.9802 1.5 25.9775 1.5 25.9747C1.5 25.972 1.5 25.9693 1.5 25.9665C1.5 25.9637 1.5 25.961 1.5 25.9582C1.5 25.9554 1.5 25.9526 1.5 25.9498C1.5 25.947 1.5 25.9441 1.5 25.9413C1.5 25.9384 1.5 25.9356 1.5 25.9327C1.5 25.9298 1.5 25.9269 1.5 25.924C1.5 25.9211 1.5 25.9182 1.5 25.9153C1.5 25.9124 1.5 25.9094 1.5 25.9065C1.5 25.9035 1.5 25.9005 1.5 25.8975C1.5 25.8945 1.5 25.8915 1.5 25.8885C1.5 25.8855 1.5 25.8825 1.5 25.8794C1.5 25.8764 1.5 25.8733 1.5 25.8703C1.5 25.8672 1.5 25.8641 1.5 25.861C1.5 25.8579 1.5 25.8548 1.5 25.8517C1.5 25.8486 1.5 25.8454 1.5 25.8423C1.5 25.8391 1.5 25.836 1.5 25.8328C1.5 25.8296 1.5 25.8264 1.5 25.8232C1.5 25.82 1.5 25.8168 1.5 25.8135C1.5 25.8103 1.5 25.8071 1.5 25.8038C1.5 25.8005 1.5 25.7973 1.5 25.794C1.5 25.7907 1.5 25.7874 1.5 25.7841C1.5 25.7808 1.5 25.7774 1.5 25.7741C1.5 25.7707 1.5 25.7674 1.5 25.764C1.5 25.7607 1.5 25.7573 1.5 25.7539C1.5 25.7505 1.5 25.7471 1.5 25.7437C1.5 25.7402 1.5 25.7368 1.5 25.7334C1.5 25.7299 1.5 25.7264 1.5 25.723C1.5 25.7195 1.5 25.716 1.5 25.7125C1.5 25.709 1.5 25.7055 1.5 25.702C1.5 25.6984 1.5 25.6949 1.5 25.6914C1.5 25.6878 1.5 25.6842 1.5 25.6807C1.5 25.6771 1.5 25.6735 1.5 25.6699C1.5 25.6663 1.5 25.6627 1.5 25.659C1.5 25.6554 1.5 25.6518 1.5 25.6481C1.5 25.6445 1.5 25.6408 1.5 25.6371C1.5 25.6334 1.5 25.6297 1.5 25.626C1.5 25.6223 1.5 25.6186 1.5 25.6149C1.5 25.6112 1.5 25.6074 1.5 25.6037C1.5 25.5999 1.5 25.5961 1.5 25.5924C1.5 25.5886 1.5 25.5848 1.5 25.581C1.5 25.5772 1.5 25.5734 1.5 25.5695C1.5 25.5657 1.5 25.5618 1.5 25.558C1.5 25.5541 1.5 25.5503 1.5 25.5464C1.5 25.5425 1.5 25.5386 1.5 25.5347C1.5 25.5308 1.5 25.5269 1.5 25.523C1.5 25.519 1.5 25.5151 1.5 25.5111C1.5 25.5072 1.5 25.5032 1.5 25.4992C1.5 25.4953 1.5 25.4913 1.5 25.4873C1.5 25.4833 1.5 25.4793 1.5 25.4752C1.5 25.4712 1.5 25.4672 1.5 25.4631C1.5 25.4591 1.5 25.455 1.5 25.4509C1.5 25.4469 1.5 25.4428 1.5 25.4387C1.5 25.4346 1.5 25.4305 1.5 25.4264C1.5 25.4222 1.5 25.4181 1.5 25.414C1.5 25.4098 1.5 25.4057 1.5 25.4015C1.5 25.3973 1.5 25.3931 1.5 25.3889C1.5 25.3848 1.5 25.3806 1.5 25.3763C1.5 25.3721 1.5 25.3679 1.5 25.3637C1.5 25.3594 1.5 25.3552 1.5 25.3509C1.5 25.3467 1.5 25.3424 1.5 25.3381C1.5 25.3338 1.5 25.3295 1.5 25.3252C1.5 25.3209 1.5 25.3166 1.5 25.3123C1.5 25.3079 1.5 25.3036 1.5 25.2992C1.5 25.2949 1.5 25.2905 1.5 25.2861C1.5 25.2818 1.5 25.2774 1.5 25.273C1.5 25.2686 1.5 25.2642 1.5 25.2598C1.5 25.2553 1.5 25.2509 1.5 25.2465C1.5 25.242 1.5 25.2376 1.5 25.2331C1.5 25.2286 1.5 25.2242 1.5 25.2197C1.5 25.2152 1.5 25.2107 1.5 25.2062C1.5 25.2017 1.5 25.1972 1.5 25.1926C1.5 25.1881 1.5 25.1836 1.5 25.179C1.5 25.1745 1.5 25.1699 1.5 25.1653C1.5 25.1607 1.5 25.1562 1.5 25.1516C1.5 25.147 1.5 25.1424 1.5 25.1377C1.5 25.1331 1.5 25.1285 1.5 25.1239C1.5 25.1192 1.5 25.1146 1.5 25.1099C1.5 25.1053 1.5 25.1006 1.5 25.0959C1.5 25.0912 1.5 25.0865 1.5 25.0818C1.5 25.0771 1.5 25.0724 1.5 25.0677C1.5 25.063 1.5 25.0582 1.5 25.0535C1.5 25.0487 1.5 25.044 1.5 25.0392C1.5 25.0345 1.5 25.0297 1.5 25.0249C1.5 25.0201 1.5 25.0153 1.5 25.0105C1.5 25.0057 1.5 25.0009 1.5 24.9961C1.5 24.9912 1.5 24.9864 1.5 24.9815C1.5 24.9767 1.5 24.9718 1.5 24.967C1.5 24.9621 1.5 24.9572 1.5 24.9523C1.5 24.9475 1.5 24.9426 1.5 24.9377C1.5 24.9327 1.5 24.9278 1.5 24.9229C1.5 24.918 1.5 24.913 1.5 24.9081C1.5 24.9031 1.5 24.8982 1.5 24.8932C1.5 24.8882 1.5 24.8833 1.5 24.8783C1.5 24.8733 1.5 24.8683 1.5 24.8633C1.5 24.8583 1.5 24.8533 1.5 24.8482C1.5 24.8432 1.5 24.8382 1.5 24.8331C1.5 24.8281 1.5 24.823 1.5 24.818C1.5 24.8129 1.5 24.8078 1.5 24.8027C1.5 24.7976 1.5 24.7926 1.5 24.7874C1.5 24.7823 1.5 24.7772 1.5 24.7721C1.5 24.767 1.5 24.7619 1.5 24.7567C1.5 24.7516 1.5 24.7464 1.5 24.7413C1.5 24.7361 1.5 24.7309 1.5 24.7257C1.5 24.7206 1.5 24.7154 1.5 24.7102C1.5 24.705 1.5 24.6998 1.5 24.6946C1.5 24.6893 1.5 24.6841 1.5 24.6789C1.5 24.6736 1.5 24.6684 1.5 24.6631C1.5 24.6579 1.5 24.6526 1.5 24.6474C1.5 24.6421 1.5 24.6368 1.5 24.6315C1.5 24.6262 1.5 24.6209 1.5 24.6156C1.5 24.6103 1.5 24.605 1.5 24.5997C1.5 24.5943 1.5 24.589 1.5 24.5837C1.5 24.5783 1.5 24.573 1.5 24.5676C1.5 24.5622 1.5 24.5569 1.5 24.5515C1.5 24.5461 1.5 24.5407 1.5 24.5353C1.5 24.5299 1.5 24.5245 1.5 24.5191C1.5 24.5137 1.5 24.5083 1.5 24.5028C1.5 24.4974 1.5 24.492 1.5 24.4865C1.5 24.4811 1.5 24.4756 1.5 24.4701C1.5 24.4647 1.5 24.4592 1.5 24.4537C1.5 24.4482 1.5 24.4427 1.5 24.4372C1.5 24.4317 1.5 24.4262 1.5 24.4207C1.5 24.4152 1.5 24.4097 1.5 24.4041C1.5 24.3986 1.5 24.3931 1.5 24.3875C1.5 24.382 1.5 24.3764 1.5 24.3708C1.5 24.3653 1.5 24.3597 1.5 24.3541C1.5 24.3485 1.5 24.3429 1.5 24.3373C1.5 24.3317 1.5 24.3261 1.5 24.3205C1.5 24.3149 1.5 24.3093 1.5 24.3036C1.5 24.298 1.5 24.2923 1.5 24.2867C1.5 24.281 1.5 24.2754 1.5 24.2697C1.5 24.2641 1.5 24.2584 1.5 24.2527C1.5 24.247 1.5 24.2413 1.5 24.2356C1.5 24.2299 1.5 24.2242 1.5 24.2185C1.5 24.2128 1.5 24.2071 1.5 24.2014C1.5 24.1956 1.5 24.1899 1.5 24.1842C1.5 24.1784 1.5 24.1727 1.5 24.1669C1.5 24.1611 1.5 24.1554 1.5 24.1496C1.5 24.1438 1.5 24.138 1.5 24.1323C1.5 24.1265 1.5 24.1207 1.5 24.1149C1.5 24.1091 1.5 24.1032 1.5 24.0974C1.5 24.0916 1.5 24.0858 1.5 24.0799C1.5 24.0741 1.5 24.0683 1.5 24.0624C1.5 24.0566 1.5 24.0507 1.5 24.0448C1.5 24.039 1.5 24.0331 1.5 24.0272C1.5 24.0213 1.5 24.0155 1.5 24.0096C1.5 24.0037 1.5 23.9978 1.5 23.9919C1.5 23.986 1.5 23.98 1.5 23.9741C1.5 23.9682 1.5 23.9623 1.5 23.9563C1.5 23.9504 1.5 23.9444 1.5 23.9385C1.5 23.9325 1.5 23.9266 1.5 23.9206C1.5 23.9147 1.5 23.9087 1.5 23.9027C1.5 23.8967 1.5 23.8907 1.5 23.8848C1.5 23.8788 1.5 23.8728 1.5 23.8668C1.5 23.8607 1.5 23.8547 1.5 23.8487C1.5 23.8427 1.5 23.8367 1.5 23.8306C1.5 23.8246 1.5 23.8186 1.5 23.8125C1.5 23.8065 1.5 23.8004 1.5 23.7943C1.5 23.7883 1.5 23.7822 1.5 23.7761C1.5 23.7701 1.5 23.764 1.5 23.7579C1.5 23.7518 1.5 23.7457 1.5 23.7396C1.5 23.7335 1.5 23.7274 1.5 23.7213C1.5 23.7152 1.5 23.7091 1.5 23.7029C1.5 23.6968 1.5 23.6907 1.5 23.6845C1.5 23.6784 1.5 23.6723 1.5 23.6661C1.5 23.66 1.5 23.6538 1.5 23.6476C1.5 23.6415 1.5 23.6353 1.5 23.6291C1.5 23.623 1.5 23.6168 1.5 23.6106C1.5 23.6044 1.5 23.5982 1.5 23.592C1.5 23.5858 1.5 23.5796 1.5 23.5734C1.5 23.5672 1.5 23.5609 1.5 23.5547C1.5 23.5485 1.5 23.5423 1.5 23.536C1.5 23.5298 1.5 23.5235 1.5 23.5173C1.5 23.511 1.5 23.5048 1.5 23.4985C1.5 23.4923 1.5 23.486 1.5 23.4797C1.5 23.4735 1.5 23.4672 1.5 23.4609C1.5 23.4546 1.5 23.4483 1.5 23.442C1.5 23.4357 1.5 23.4294 1.5 23.4231C1.5 23.4168 1.5 23.4105 1.5 23.4042C1.5 23.3979 1.5 23.3915 1.5 23.3852C1.5 23.3789 1.5 23.3725 1.5 23.3662C1.5 23.3599 1.5 23.3535 1.5 23.3472C1.5 23.3408 1.5 23.3344 1.5 23.3281C1.5 23.3217 1.5 23.3154 1.5 23.309C1.5 23.3026 1.5 23.2962 1.5 23.2898C1.5 23.2835 1.5 23.2771 1.5 23.2707C1.5 23.2643 1.5 23.2579 1.5 23.2515C1.5 23.2451 1.5 23.2387 1.5 23.2322C1.5 23.2258 1.5 23.2194 1.5 23.213C1.5 23.2065 1.5 23.2001 1.5 23.1937C1.5 23.1872 1.5 23.1808 1.5 23.1744C1.5 23.1679 1.5 23.1615 1.5 23.155C1.5 23.1485 1.5 23.1421 1.5 23.1356C1.5 23.1291 1.5 23.1227 1.5 23.1162C1.5 23.1097 1.5 23.1032 1.5 23.0968C1.5 23.0903 1.5 23.0838 1.5 23.0773C1.5 23.0708 1.5 23.0643 1.5 23.0578C1.5 23.0513 1.5 23.0448 1.5 23.0383C1.5 23.0317 1.5 23.0252 1.5 23.0187C1.5 23.0122 1.5 23.0056 1.5 22.9991C1.5 22.9926 1.5 22.986 1.5 22.9795C1.5 22.973 1.5 22.9664 1.5 22.9599C1.5 22.9533 1.5 22.9467 1.5 22.9402C1.5 22.9336 1.5 22.9271 1.5 22.9205C1.5 22.9139 1.5 22.9073 1.5 22.9008C1.5 22.8942 1.5 22.8876 1.5 22.881C1.5 22.8744 1.5 22.8678 1.5 22.8612C1.5 22.8547 1.5 22.8481 1.5 22.8414C1.5 22.8348 1.5 22.8282 1.5 22.8216C1.5 22.815 1.5 22.8084 1.5 22.8018C1.5 22.7952 1.5 22.7885 1.5 22.7819C1.5 22.7753 1.5 22.7686 1.5 22.762C1.5 22.7554 1.5 22.7487 1.5 22.7421C1.5 22.7354 1.5 22.7288 1.5 22.7221C1.5 22.7155 1.5 22.7088 1.5 22.7022C1.5 22.6955 1.5 22.6888 1.5 22.6822C1.5 22.6755 1.5 22.6688 1.5 22.6622C1.5 22.6555 1.5 22.6488 1.5 22.6421C1.5 22.6354 1.5 22.6288 1.5 22.6221C1.5 22.6154 1.5 22.6087 1.5 22.602C1.5 22.5953 1.5 22.5886 1.5 22.5819C1.5 22.5752 1.5 22.5685 1.5 22.5617C1.5 22.555 1.5 22.5483 1.5 22.5416C1.5 22.5349 1.5 22.5282 1.5 22.5214C1.5 22.5147 1.5 22.508 1.5 22.5012C1.5 22.4945 1.5 22.4878 1.5 22.481C1.5 22.4743 1.5 22.4676 1.5 22.4608C1.5 22.4541 1.5 22.4473 1.5 22.4406C1.5 22.4338 1.5 22.4271 1.5 22.4203C1.5 22.4135 1.5 22.4068 1.5 22.4C1.5 22.3932 1.5 22.3865 1.5 22.3797C1.5 22.3729 1.5 22.3662 1.5 22.3594C1.5 22.3526 1.5 22.3458 1.5 22.339C1.5 22.3323 1.5 22.3255 1.5 22.3187C1.5 22.3119 1.5 22.3051 1.5 22.2983C1.5 22.2915 1.5 22.2847 1.5 22.2779C1.5 22.2711 1.5 22.2643 1.5 22.2575C1.5 22.2507 1.5 22.2439 1.5 22.2371C1.5 22.2303 1.5 22.2234 1.5 22.2166C1.5 22.2098 1.5 22.203 1.5 22.1962C1.5 22.1893 1.5 22.1825 1.5 22.1757C1.5 22.1689 1.5 22.162 1.5 22.1552C1.5 22.1484 1.5 22.1415 1.5 22.1347C1.5 22.1279 1.5 22.121 1.5 22.1142C1.5 22.1073 1.5 22.1005 1.5 22.0936C1.5 22.0868 1.5 22.0799 1.5 22.0731C1.5 22.0662 1.5 22.0594 1.5 22.0525C1.5 22.0457 1.5 22.0388 1.5 22.0319C1.5 22.0251 1.5 22.0182 1.5 22.0114C1.5 22.0045 1.5 21.9976 1.5 21.9907C1.5 21.9839 1.5 21.977 1.5 21.9701C1.5 21.9633 1.5 21.9564 1.5 21.9495C1.5 21.9426 1.5 21.9357 1.5 21.9289C1.5 21.922 1.5 21.9151 1.5 21.9082C1.5 21.9013 1.5 21.8944 1.5 21.8875C1.5 21.8806 1.5 21.8738 1.5 21.8669C1.5 21.86 1.5 21.8531 1.5 21.8462C1.5 21.8393 1.5 21.8324 1.5 21.8255C1.5 21.8186 1.5 21.8117 1.5 21.8048C1.5 21.7979 1.5 21.7909 1.5 21.784C1.5 21.7771 1.5 21.7702 1.5 21.7633C1.5 21.7564 1.5 21.7495 1.5 21.7426C1.5 21.7357 1.5 21.7287 1.5 21.7218C1.5 21.7149 1.5 21.708 1.5 21.7011C1.5 21.6941 1.5 21.6872 1.5 21.6803C1.5 21.6734 1.5 21.6664 1.5 21.6595C1.5 21.6526 1.5 21.6457 1.5 21.6387C1.5 21.6318 1.5 21.6249 1.5 21.6179C1.5 21.611 1.5 21.6041 1.5 21.5971C1.5 21.5902 1.5 21.5833 1.5 21.5763C1.5 21.5694 1.5 21.5625 1.5 21.5555C1.5 21.5486 1.5 21.5416 1.5 21.5347C1.5 21.5278 1.5 21.5208 1.5 21.5139C1.5 21.5069 1.5 21.5 1.5 21.493C1.5 21.4861 1.5 21.4792 1.5 21.4722C1.5 21.4653 1.5 21.4583 1.5 21.4514C1.5 21.4444 1.5 21.4375 1.5 21.4305C1.5 21.4236 1.5 21.4166 1.5 21.4097C1.5 21.4027 1.5 21.3958 1.5 21.3888C1.5 21.3818 1.5 21.3749 1.5 21.3679C1.5 21.361 1.5 21.354 1.5 21.3471C1.5 21.3401 1.5 21.3332 1.5 21.3262C1.5 21.3192 1.5 21.3123 1.5 21.3053C1.5 21.2984 1.5 21.2914 1.5 21.2844C1.5 21.2775 1.5 21.2705 1.5 21.2636C1.5 21.2566 1.5 21.2496 1.5 21.2427C1.5 21.2357 1.5 21.2288 1.5 21.2218C1.5 21.2148 1.5 21.2079 1.5 21.2009C1.5 21.194 1.5 21.187 1.5 21.18C1.5 21.1731 1.5 21.1661 1.5 21.1591C1.5 21.1522 1.5 21.1452 1.5 21.1382C1.5 21.1313 1.5 21.1243 1.5 21.1174C1.5 21.1104 1.5 21.1034 1.5 21.0965C1.5 21.0895 1.5 21.0825 1.5 21.0756C1.5 21.0686 1.5 21.0616 1.5 21.0547C1.5 21.0477 1.5 21.0407 1.5 21.0338C1.5 21.0268 1.5 21.0199 1.5 21.0129C1.5 21.0059 1.5 20.999 1.5 20.992C1.5 20.985 1.5 20.9781 1.5 20.9711C1.5 20.9642 1.5 20.9572 1.5 20.9502C1.5 20.9433 1.5 20.9363 1.5 20.9293C1.5 20.9224 1.5 20.9154 1.5 20.9085C1.5 20.9015 1.5 20.8945 1.5 20.8876C1.5 20.8806 1.5 20.8737 1.5 20.8667C1.5 20.8597 1.5 20.8528 1.5 20.8458C1.5 20.8389 1.5 20.8319 1.5 20.825C1.5 20.818 1.5 20.811 1.5 20.8041C1.5 20.7971 1.5 20.7902 1.5 20.7832C1.5 20.7763 1.5 20.7693 1.5 20.7624C1.5 20.7554 1.5 20.7485 1.5 20.7415C1.5 20.7346 1.5 20.7276 1.5 20.7207C1.5 20.7137 1.5 20.7068 1.5 20.6998C1.5 20.6929 1.5 20.6859 1.5 20.679C1.5 20.672 1.5 20.6651 1.5 20.6581C1.5 20.6512 1.5 20.6442 1.5 20.6373C1.5 20.6304 1.5 20.6234 1.5 20.6165C1.5 20.6095 1.5 20.6026 1.5 20.5957C1.5 20.5887 1.5 20.5818 1.5 20.5749C1.5 20.5679 1.5 20.561 1.5 20.5541C1.5 20.5471 1.5 20.5402 1.5 20.5333C1.5 20.5263 1.5 20.5194 1.5 20.5125C1.5 20.5055 1.5 20.4986 1.5 20.4917C1.5 20.4848 1.5 20.4778 1.5 20.4709C1.5 20.464 1.5 20.4571 1.5 20.4502C1.5 20.4432 1.5 20.4363 1.5 20.4294C1.5 20.4225 1.5 20.4156 1.5 20.4087C1.5 20.4018 1.5 20.3948 1.5 20.3879C1.5 20.381 1.5 20.3741 1.5 20.3672C1.5 20.3603 1.5 20.3534 1.5 20.3465C1.5 20.3396 1.5 20.3327 1.5 20.3258C1.5 20.3189 1.5 20.312 1.5 20.3051C1.5 20.2982 1.5 20.2913 1.5 20.2844C1.5 20.2775 1.5 20.2706 1.5 20.2637C1.5 20.2569 1.5 20.25 1.5 20.2431C1.5 20.2362 1.5 20.2293 1.5 20.2224C1.5 20.2156 1.5 20.2087 1.5 20.2018C1.5 20.1949 1.5 20.1881 1.5 20.1812C1.5 20.1743 1.5 20.1674 1.5 20.1606C1.5 20.1537 1.5 20.1468 1.5 20.14C1.5 20.1331 1.5 20.1263 1.5 20.1194C1.5 20.1125 1.5 20.1057 1.5 20.0988C1.5 20.092 1.5 20.0851 1.5 20.0783C1.5 20.0714 1.5 20.0646 1.5 20.0577C1.5 20.0509 1.5 20.044 1.5 20.0372C1.5 20.0304 1.5 20.0235 1.5 20.0167C1.5 20.0099 1.5 20.003 1.5 19.9962C1.5 19.9894 1.5 19.9825 1.5 19.9757C1.5 19.9689 1.5 19.9621 1.5 19.9552C1.5 19.9484 1.5 19.9416 1.5 19.9348C1.5 19.928 1.5 19.9212 1.5 19.9144C1.5 19.9076 1.5 19.9007 1.5 19.8939C1.5 19.8871 1.5 19.8803 1.5 19.8735C1.5 19.8667 1.5 19.86 1.5 19.8532C1.5 19.8464 1.5 19.8396 1.5 19.8328C1.5 19.826 1.5 19.8192 1.5 19.8124C1.5 19.8057 1.5 19.7989 1.5 19.7921C1.5 19.7853 1.5 19.7786 1.5 19.7718C1.5 19.765 1.5 19.7583 1.5 19.7515C1.5 19.7448 1.5 19.738 1.5 19.7312C1.5 19.7245 1.5 19.7177 1.5 19.711C1.5 19.7042 1.5 19.6975 1.5 19.6908C1.5 19.684 1.5 19.6773 1.5 19.6705C1.5 19.6638 1.5 19.6571 1.5 19.6503C1.5 19.6436 1.5 19.6369 1.5 19.6302C1.5 19.6234 1.5 19.6167 1.5 19.61C1.5 19.6033 1.5 19.5966 1.5 19.5899C1.5 19.5832 1.5 19.5765 1.5 19.5698C1.5 19.5631 1.5 19.5564 1.5 19.5497C1.5 19.543 1.5 19.5363 1.5 19.5296C1.5 19.5229 1.5 19.5162 1.5 19.5096C1.5 19.5029 1.5 19.4962 1.5 19.4895C1.5 19.4829 1.5 19.4762 1.5 19.4695C1.5 19.4629 1.5 19.4562 1.5 19.4496C1.5 19.4429 1.5 19.4363 1.5 19.4296C1.5 19.423 1.5 19.4163 1.5 19.4097C1.5 19.403 1.5 19.3964 1.5 19.3898C1.5 19.3831 1.5 19.3765 1.5 19.3699C1.5 19.3633 1.5 19.3566 1.5 19.35C1.5 19.3434 1.5 19.3368 1.5 19.3302C1.5 19.3236 1.5 19.317 1.5 19.3104C1.5 19.3038 1.5 19.2972 1.5 19.2906C1.5 19.284 1.5 19.2774 1.5 19.2708C1.5 19.2643 1.5 19.2577 1.5 19.2511C1.5 19.2445 1.5 19.238 1.5 19.2314C1.5 19.2249 1.5 19.2183 1.5 19.2117C1.5 19.2052 1.5 19.1986 1.5 19.1921C1.5 19.1855 1.5 19.179 1.5 19.1725C1.5 19.1659 1.5 19.1594 1.5 19.1529C1.5 19.1463 1.5 19.1398 1.5 19.1333C1.5 19.1268 1.5 19.1203 1.5 19.1138C1.5 19.1072 1.5 19.1007 1.5 19.0942C1.5 19.0877 1.5 19.0813 1.5 19.0748C1.5 19.0683 1.5 19.0618 1.5 19.0553C1.5 19.0488 1.5 19.0424 1.5 19.0359C1.5 19.0294 1.5 19.0229 1.5 19.0165C1.5 19.01 1.5 19.0036 1.5 18.9971C1.5 18.9907 1.5 18.9842 1.5 18.9778C1.5 18.9713 1.5 18.9649 1.5 18.9585C1.5 18.952 1.5 18.9456 1.5 18.9392C1.5 18.9328 1.5 18.9264 1.5 18.92C1.5 18.9136 1.5 18.9071 1.5 18.9007C1.5 18.8943 1.5 18.888 1.5 18.8816C1.5 18.8752 1.5 18.8688 1.5 18.8624C1.5 18.856 1.5 18.8497 1.5 18.8433C1.5 18.8369 1.5 18.8306 1.5 18.8242C1.5 18.8179 1.5 18.8115 1.5 18.8052C1.5 18.7988 1.5 18.7925 1.5 18.7861C1.5 18.7798 1.5 18.7735 1.5 18.7672C1.5 18.7608 1.5 18.7545 1.5 18.7482C1.5 18.7419 1.5 18.7356 1.5 18.7293C1.5 18.723 1.5 18.7167 1.5 18.7104C1.5 18.7041 1.5 18.6978 1.5 18.6916C1.5 18.6853 1.5 18.679 1.5 18.6728C1.5 18.6665 1.5 18.6602 1.5 18.654C1.5 18.6477 1.5 18.6415 1.5 18.6352C1.5 18.629 1.5 18.6228 1.5 18.6165C1.5 18.6103 1.5 18.6041 1.5 18.5979C1.5 18.5916 1.5 18.5854 1.5 18.5792C1.5 18.573 1.5 18.5668 1.5 18.5606C1.5 18.5544 1.5 18.5482 1.5 18.5421C1.5 18.5359 1.5 18.5297 1.5 18.5235C1.5 18.5174 1.5 18.5112 1.5 18.505C1.5 18.4989 1.5 18.4927 1.5 18.4866C1.5 18.4805 1.5 18.4743 1.5 18.4682C1.5 18.4621 1.5 18.4559 1.5 18.4498C1.5 18.4437 1.5 18.4376 1.5 18.4315C1.5 18.4254 1.5 18.4193 1.5 18.4132C1.5 18.4071 1.5 18.401 1.5 18.3949C1.5 18.3888 1.5 18.3828 1.5 18.3767H0.5C0.5 18.3828 0.5 18.3888 0.5 18.3949C0.5 18.401 0.5 18.4071 0.5 18.4132C0.5 18.4193 0.5 18.4254 0.5 18.4315C0.5 18.4376 0.5 18.4437 0.5 18.4498C0.5 18.4559 0.5 18.4621 0.5 18.4682C0.5 18.4743 0.5 18.4805 0.5 18.4866C0.5 18.4927 0.5 18.4989 0.5 18.505C0.5 18.5112 0.5 18.5174 0.5 18.5235C0.5 18.5297 0.5 18.5359 0.5 18.5421C0.5 18.5482 0.5 18.5544 0.5 18.5606C0.5 18.5668 0.5 18.573 0.5 18.5792C0.5 18.5854 0.5 18.5916 0.5 18.5979C0.5 18.6041 0.5 18.6103 0.5 18.6165C0.5 18.6228 0.5 18.629 0.5 18.6352C0.5 18.6415 0.5 18.6477 0.5 18.654C0.5 18.6602 0.5 18.6665 0.5 18.6728C0.5 18.679 0.5 18.6853 0.5 18.6916C0.5 18.6978 0.5 18.7041 0.5 18.7104C0.5 18.7167 0.5 18.723 0.5 18.7293C0.5 18.7356 0.5 18.7419 0.5 18.7482C0.5 18.7545 0.5 18.7608 0.5 18.7672C0.5 18.7735 0.5 18.7798 0.5 18.7861C0.5 18.7925 0.5 18.7988 0.5 18.8052C0.5 18.8115 0.5 18.8179 0.5 18.8242C0.5 18.8306 0.5 18.8369 0.5 18.8433C0.5 18.8497 0.5 18.856 0.5 18.8624C0.5 18.8688 0.5 18.8752 0.5 18.8816C0.5 18.888 0.5 18.8943 0.5 18.9007C0.5 18.9071 0.5 18.9136 0.5 18.92C0.5 18.9264 0.5 18.9328 0.5 18.9392C0.5 18.9456 0.5 18.952 0.5 18.9585C0.5 18.9649 0.5 18.9713 0.5 18.9778C0.5 18.9842 0.5 18.9907 0.5 18.9971C0.5 19.0036 0.5 19.01 0.5 19.0165C0.5 19.0229 0.5 19.0294 0.5 19.0359C0.5 19.0424 0.5 19.0488 0.5 19.0553C0.5 19.0618 0.5 19.0683 0.5 19.0748C0.5 19.0813 0.5 19.0877 0.5 19.0942C0.5 19.1007 0.5 19.1072 0.5 19.1138C0.5 19.1203 0.5 19.1268 0.5 19.1333C0.5 19.1398 0.5 19.1463 0.5 19.1529C0.5 19.1594 0.5 19.1659 0.5 19.1725C0.5 19.179 0.5 19.1855 0.5 19.1921C0.5 19.1986 0.5 19.2052 0.5 19.2117C0.5 19.2183 0.5 19.2249 0.5 19.2314C0.5 19.238 0.5 19.2445 0.5 19.2511C0.5 19.2577 0.5 19.2643 0.5 19.2708C0.5 19.2774 0.5 19.284 0.5 19.2906C0.5 19.2972 0.5 19.3038 0.5 19.3104C0.5 19.317 0.5 19.3236 0.5 19.3302C0.5 19.3368 0.5 19.3434 0.5 19.35C0.5 19.3566 0.5 19.3633 0.5 19.3699C0.5 19.3765 0.5 19.3831 0.5 19.3898C0.5 19.3964 0.5 19.403 0.5 19.4097C0.5 19.4163 0.5 19.423 0.5 19.4296C0.5 19.4363 0.5 19.4429 0.5 19.4496C0.5 19.4562 0.5 19.4629 0.5 19.4695C0.5 19.4762 0.5 19.4829 0.5 19.4895C0.5 19.4962 0.5 19.5029 0.5 19.5096C0.5 19.5162 0.5 19.5229 0.5 19.5296C0.5 19.5363 0.5 19.543 0.5 19.5497C0.5 19.5564 0.5 19.5631 0.5 19.5698C0.5 19.5765 0.5 19.5832 0.5 19.5899C0.5 19.5966 0.5 19.6033 0.5 19.61C0.5 19.6167 0.5 19.6234 0.5 19.6302C0.5 19.6369 0.5 19.6436 0.5 19.6503C0.5 19.6571 0.5 19.6638 0.5 19.6705C0.5 19.6773 0.5 19.684 0.5 19.6908C0.5 19.6975 0.5 19.7042 0.5 19.711C0.5 19.7177 0.5 19.7245 0.5 19.7312C0.5 19.738 0.5 19.7448 0.5 19.7515C0.5 19.7583 0.5 19.765 0.5 19.7718C0.5 19.7786 0.5 19.7853 0.5 19.7921C0.5 19.7989 0.5 19.8057 0.5 19.8124C0.5 19.8192 0.5 19.826 0.5 19.8328C0.5 19.8396 0.5 19.8464 0.5 19.8532C0.5 19.86 0.5 19.8667 0.5 19.8735C0.5 19.8803 0.5 19.8871 0.5 19.8939C0.5 19.9007 0.5 19.9076 0.5 19.9144C0.5 19.9212 0.5 19.928 0.5 19.9348C0.5 19.9416 0.5 19.9484 0.5 19.9552C0.5 19.9621 0.5 19.9689 0.5 19.9757C0.5 19.9825 0.5 19.9894 0.5 19.9962C0.5 20.003 0.5 20.0099 0.5 20.0167C0.5 20.0235 0.5 20.0304 0.5 20.0372C0.5 20.044 0.5 20.0509 0.5 20.0577C0.5 20.0646 0.5 20.0714 0.5 20.0783C0.5 20.0851 0.5 20.092 0.5 20.0988C0.5 20.1057 0.5 20.1125 0.5 20.1194C0.5 20.1263 0.5 20.1331 0.5 20.14C0.5 20.1468 0.5 20.1537 0.5 20.1606C0.5 20.1674 0.5 20.1743 0.5 20.1812C0.5 20.1881 0.5 20.1949 0.5 20.2018C0.5 20.2087 0.5 20.2156 0.5 20.2224C0.5 20.2293 0.5 20.2362 0.5 20.2431C0.5 20.25 0.5 20.2569 0.5 20.2637C0.5 20.2706 0.5 20.2775 0.5 20.2844C0.5 20.2913 0.5 20.2982 0.5 20.3051C0.5 20.312 0.5 20.3189 0.5 20.3258C0.5 20.3327 0.5 20.3396 0.5 20.3465C0.5 20.3534 0.5 20.3603 0.5 20.3672C0.5 20.3741 0.5 20.381 0.5 20.3879C0.5 20.3948 0.5 20.4018 0.5 20.4087C0.5 20.4156 0.5 20.4225 0.5 20.4294C0.5 20.4363 0.5 20.4432 0.5 20.4502C0.5 20.4571 0.5 20.464 0.5 20.4709C0.5 20.4778 0.5 20.4848 0.5 20.4917C0.5 20.4986 0.5 20.5055 0.5 20.5125C0.5 20.5194 0.5 20.5263 0.5 20.5333C0.5 20.5402 0.5 20.5471 0.5 20.5541C0.5 20.561 0.5 20.5679 0.5 20.5749C0.5 20.5818 0.5 20.5887 0.5 20.5957C0.5 20.6026 0.5 20.6095 0.5 20.6165C0.5 20.6234 0.5 20.6304 0.5 20.6373C0.5 20.6442 0.5 20.6512 0.5 20.6581C0.5 20.6651 0.5 20.672 0.5 20.679C0.5 20.6859 0.5 20.6929 0.5 20.6998C0.5 20.7068 0.5 20.7137 0.5 20.7207C0.5 20.7276 0.5 20.7346 0.5 20.7415C0.5 20.7485 0.5 20.7554 0.5 20.7624C0.5 20.7693 0.5 20.7763 0.5 20.7832C0.5 20.7902 0.5 20.7971 0.5 20.8041C0.5 20.811 0.5 20.818 0.5 20.825C0.5 20.8319 0.5 20.8389 0.5 20.8458C0.5 20.8528 0.5 20.8597 0.5 20.8667C0.5 20.8737 0.5 20.8806 0.5 20.8876C0.5 20.8945 0.5 20.9015 0.5 20.9085C0.5 20.9154 0.5 20.9224 0.5 20.9293C0.5 20.9363 0.5 20.9433 0.5 20.9502C0.5 20.9572 0.5 20.9642 0.5 20.9711C0.5 20.9781 0.5 20.985 0.5 20.992C0.5 20.999 0.5 21.0059 0.5 21.0129C0.5 21.0199 0.5 21.0268 0.5 21.0338C0.5 21.0407 0.5 21.0477 0.5 21.0547C0.5 21.0616 0.5 21.0686 0.5 21.0756C0.5 21.0825 0.5 21.0895 0.5 21.0965C0.5 21.1034 0.5 21.1104 0.5 21.1174C0.5 21.1243 0.5 21.1313 0.5 21.1382C0.5 21.1452 0.5 21.1522 0.5 21.1591C0.5 21.1661 0.5 21.1731 0.5 21.18C0.5 21.187 0.5 21.194 0.5 21.2009C0.5 21.2079 0.5 21.2148 0.5 21.2218C0.5 21.2288 0.5 21.2357 0.5 21.2427C0.5 21.2496 0.5 21.2566 0.5 21.2636C0.5 21.2705 0.5 21.2775 0.5 21.2844C0.5 21.2914 0.5 21.2984 0.5 21.3053C0.5 21.3123 0.5 21.3192 0.5 21.3262C0.5 21.3332 0.5 21.3401 0.5 21.3471C0.5 21.354 0.5 21.361 0.5 21.3679C0.5 21.3749 0.5 21.3818 0.5 21.3888C0.5 21.3958 0.5 21.4027 0.5 21.4097C0.5 21.4166 0.5 21.4236 0.5 21.4305C0.5 21.4375 0.5 21.4444 0.5 21.4514C0.5 21.4583 0.5 21.4653 0.5 21.4722C0.5 21.4792 0.5 21.4861 0.5 21.493C0.5 21.5 0.5 21.5069 0.5 21.5139C0.5 21.5208 0.5 21.5278 0.5 21.5347C0.5 21.5416 0.5 21.5486 0.5 21.5555C0.5 21.5625 0.5 21.5694 0.5 21.5763C0.5 21.5833 0.5 21.5902 0.5 21.5971C0.5 21.6041 0.5 21.611 0.5 21.6179C0.5 21.6249 0.5 21.6318 0.5 21.6387C0.5 21.6457 0.5 21.6526 0.5 21.6595C0.5 21.6664 0.5 21.6734 0.5 21.6803C0.5 21.6872 0.5 21.6941 0.5 21.7011C0.5 21.708 0.5 21.7149 0.5 21.7218C0.5 21.7287 0.5 21.7357 0.5 21.7426C0.5 21.7495 0.5 21.7564 0.5 21.7633C0.5 21.7702 0.5 21.7771 0.5 21.784C0.5 21.7909 0.5 21.7979 0.5 21.8048C0.5 21.8117 0.5 21.8186 0.5 21.8255C0.5 21.8324 0.5 21.8393 0.5 21.8462C0.5 21.8531 0.5 21.86 0.5 21.8669C0.5 21.8738 0.5 21.8806 0.5 21.8875C0.5 21.8944 0.5 21.9013 0.5 21.9082C0.5 21.9151 0.5 21.922 0.5 21.9289C0.5 21.9357 0.5 21.9426 0.5 21.9495C0.5 21.9564 0.5 21.9633 0.5 21.9701C0.5 21.977 0.5 21.9839 0.5 21.9907C0.5 21.9976 0.5 22.0045 0.5 22.0114C0.5 22.0182 0.5 22.0251 0.5 22.0319C0.5 22.0388 0.5 22.0457 0.5 22.0525C0.5 22.0594 0.5 22.0662 0.5 22.0731C0.5 22.0799 0.5 22.0868 0.5 22.0936C0.5 22.1005 0.5 22.1073 0.5 22.1142C0.5 22.121 0.5 22.1279 0.5 22.1347C0.5 22.1415 0.5 22.1484 0.5 22.1552C0.5 22.162 0.5 22.1689 0.5 22.1757C0.5 22.1825 0.5 22.1893 0.5 22.1962C0.5 22.203 0.5 22.2098 0.5 22.2166C0.5 22.2234 0.5 22.2303 0.5 22.2371C0.5 22.2439 0.5 22.2507 0.5 22.2575C0.5 22.2643 0.5 22.2711 0.5 22.2779C0.5 22.2847 0.5 22.2915 0.5 22.2983C0.5 22.3051 0.5 22.3119 0.5 22.3187C0.5 22.3255 0.5 22.3323 0.5 22.339C0.5 22.3458 0.5 22.3526 0.5 22.3594C0.5 22.3662 0.5 22.3729 0.5 22.3797C0.5 22.3865 0.5 22.3932 0.5 22.4C0.5 22.4068 0.5 22.4135 0.5 22.4203C0.5 22.4271 0.5 22.4338 0.5 22.4406C0.5 22.4473 0.5 22.4541 0.5 22.4608C0.5 22.4676 0.5 22.4743 0.5 22.481C0.5 22.4878 0.5 22.4945 0.5 22.5012C0.5 22.508 0.5 22.5147 0.5 22.5214C0.5 22.5282 0.5 22.5349 0.5 22.5416C0.5 22.5483 0.5 22.555 0.5 22.5617C0.5 22.5685 0.5 22.5752 0.5 22.5819C0.5 22.5886 0.5 22.5953 0.5 22.602C0.5 22.6087 0.5 22.6154 0.5 22.6221C0.5 22.6288 0.5 22.6354 0.5 22.6421C0.5 22.6488 0.5 22.6555 0.5 22.6622C0.5 22.6688 0.5 22.6755 0.5 22.6822C0.5 22.6888 0.5 22.6955 0.5 22.7022C0.5 22.7088 0.5 22.7155 0.5 22.7221C0.5 22.7288 0.5 22.7354 0.5 22.7421C0.5 22.7487 0.5 22.7554 0.5 22.762C0.5 22.7686 0.5 22.7753 0.5 22.7819C0.5 22.7885 0.5 22.7952 0.5 22.8018C0.5 22.8084 0.5 22.815 0.5 22.8216C0.5 22.8282 0.5 22.8348 0.5 22.8414C0.5 22.8481 0.5 22.8547 0.5 22.8612C0.5 22.8678 0.5 22.8744 0.5 22.881C0.5 22.8876 0.5 22.8942 0.5 22.9008C0.5 22.9073 0.5 22.9139 0.5 22.9205C0.5 22.9271 0.5 22.9336 0.5 22.9402C0.5 22.9467 0.5 22.9533 0.5 22.9599C0.5 22.9664 0.5 22.973 0.5 22.9795C0.5 22.986 0.5 22.9926 0.5 22.9991C0.5 23.0056 0.5 23.0122 0.5 23.0187C0.5 23.0252 0.5 23.0317 0.5 23.0383C0.5 23.0448 0.5 23.0513 0.5 23.0578C0.5 23.0643 0.5 23.0708 0.5 23.0773C0.5 23.0838 0.5 23.0903 0.5 23.0968C0.5 23.1032 0.5 23.1097 0.5 23.1162C0.5 23.1227 0.5 23.1291 0.5 23.1356C0.5 23.1421 0.5 23.1485 0.5 23.155C0.5 23.1615 0.5 23.1679 0.5 23.1744C0.5 23.1808 0.5 23.1872 0.5 23.1937C0.5 23.2001 0.5 23.2065 0.5 23.213C0.5 23.2194 0.5 23.2258 0.5 23.2322C0.5 23.2387 0.5 23.2451 0.5 23.2515C0.5 23.2579 0.5 23.2643 0.5 23.2707C0.5 23.2771 0.5 23.2835 0.5 23.2898C0.5 23.2962 0.5 23.3026 0.5 23.309C0.5 23.3154 0.5 23.3217 0.5 23.3281C0.5 23.3344 0.5 23.3408 0.5 23.3472C0.5 23.3535 0.5 23.3599 0.5 23.3662C0.5 23.3725 0.5 23.3789 0.5 23.3852C0.5 23.3915 0.5 23.3979 0.5 23.4042C0.5 23.4105 0.5 23.4168 0.5 23.4231C0.5 23.4294 0.5 23.4357 0.5 23.442C0.5 23.4483 0.5 23.4546 0.5 23.4609C0.5 23.4672 0.5 23.4735 0.5 23.4797C0.5 23.486 0.5 23.4923 0.5 23.4985C0.5 23.5048 0.5 23.511 0.5 23.5173C0.5 23.5235 0.5 23.5298 0.5 23.536C0.5 23.5423 0.5 23.5485 0.5 23.5547C0.5 23.5609 0.5 23.5672 0.5 23.5734C0.5 23.5796 0.5 23.5858 0.5 23.592C0.5 23.5982 0.5 23.6044 0.5 23.6106C0.5 23.6168 0.5 23.623 0.5 23.6291C0.5 23.6353 0.5 23.6415 0.5 23.6476C0.5 23.6538 0.5 23.66 0.5 23.6661C0.5 23.6723 0.5 23.6784 0.5 23.6845C0.5 23.6907 0.5 23.6968 0.5 23.7029C0.5 23.7091 0.5 23.7152 0.5 23.7213C0.5 23.7274 0.5 23.7335 0.5 23.7396C0.5 23.7457 0.5 23.7518 0.5 23.7579C0.5 23.764 0.5 23.7701 0.5 23.7761C0.5 23.7822 0.5 23.7883 0.5 23.7943C0.5 23.8004 0.5 23.8065 0.5 23.8125C0.5 23.8186 0.5 23.8246 0.5 23.8306C0.5 23.8367 0.5 23.8427 0.5 23.8487C0.5 23.8547 0.5 23.8607 0.5 23.8668C0.5 23.8728 0.5 23.8788 0.5 23.8848C0.5 23.8907 0.5 23.8967 0.5 23.9027C0.5 23.9087 0.5 23.9147 0.5 23.9206C0.5 23.9266 0.5 23.9325 0.5 23.9385C0.5 23.9444 0.5 23.9504 0.5 23.9563C0.5 23.9623 0.5 23.9682 0.5 23.9741C0.5 23.98 0.5 23.986 0.5 23.9919C0.5 23.9978 0.5 24.0037 0.5 24.0096C0.5 24.0155 0.5 24.0213 0.5 24.0272C0.5 24.0331 0.5 24.039 0.5 24.0448C0.5 24.0507 0.5 24.0566 0.5 24.0624C0.5 24.0683 0.5 24.0741 0.5 24.0799C0.5 24.0858 0.5 24.0916 0.5 24.0974C0.5 24.1032 0.5 24.1091 0.5 24.1149C0.5 24.1207 0.5 24.1265 0.5 24.1323C0.5 24.138 0.5 24.1438 0.5 24.1496C0.5 24.1554 0.5 24.1611 0.5 24.1669C0.5 24.1727 0.5 24.1784 0.5 24.1842C0.5 24.1899 0.5 24.1956 0.5 24.2014C0.5 24.2071 0.5 24.2128 0.5 24.2185C0.5 24.2242 0.5 24.2299 0.5 24.2356C0.5 24.2413 0.5 24.247 0.5 24.2527C0.5 24.2584 0.5 24.2641 0.5 24.2697C0.5 24.2754 0.5 24.281 0.5 24.2867C0.5 24.2923 0.5 24.298 0.5 24.3036C0.5 24.3093 0.5 24.3149 0.5 24.3205C0.5 24.3261 0.5 24.3317 0.5 24.3373C0.5 24.3429 0.5 24.3485 0.5 24.3541C0.5 24.3597 0.5 24.3653 0.5 24.3708C0.5 24.3764 0.5 24.382 0.5 24.3875C0.5 24.3931 0.5 24.3986 0.5 24.4041C0.5 24.4097 0.5 24.4152 0.5 24.4207C0.5 24.4262 0.5 24.4317 0.5 24.4372C0.5 24.4427 0.5 24.4482 0.5 24.4537C0.5 24.4592 0.5 24.4647 0.5 24.4701C0.5 24.4756 0.5 24.4811 0.5 24.4865C0.5 24.492 0.5 24.4974 0.5 24.5028C0.5 24.5083 0.5 24.5137 0.5 24.5191C0.5 24.5245 0.5 24.5299 0.5 24.5353C0.5 24.5407 0.5 24.5461 0.5 24.5515C0.5 24.5569 0.5 24.5622 0.5 24.5676C0.5 24.573 0.5 24.5783 0.5 24.5837C0.5 24.589 0.5 24.5943 0.5 24.5997C0.5 24.605 0.5 24.6103 0.5 24.6156C0.5 24.6209 0.5 24.6262 0.5 24.6315C0.5 24.6368 0.5 24.6421 0.5 24.6474C0.5 24.6526 0.5 24.6579 0.5 24.6631C0.5 24.6684 0.5 24.6736 0.5 24.6789C0.5 24.6841 0.5 24.6893 0.5 24.6946C0.5 24.6998 0.5 24.705 0.5 24.7102C0.5 24.7154 0.5 24.7206 0.5 24.7257C0.5 24.7309 0.5 24.7361 0.5 24.7413C0.5 24.7464 0.5 24.7516 0.5 24.7567C0.5 24.7619 0.5 24.767 0.5 24.7721C0.5 24.7772 0.5 24.7823 0.5 24.7874C0.5 24.7926 0.5 24.7976 0.5 24.8027C0.5 24.8078 0.5 24.8129 0.5 24.818C0.5 24.823 0.5 24.8281 0.5 24.8331C0.5 24.8382 0.5 24.8432 0.5 24.8482C0.5 24.8533 0.5 24.8583 0.5 24.8633C0.5 24.8683 0.5 24.8733 0.5 24.8783C0.5 24.8833 0.5 24.8882 0.5 24.8932C0.5 24.8982 0.5 24.9031 0.5 24.9081C0.5 24.913 0.5 24.918 0.5 24.9229C0.5 24.9278 0.5 24.9327 0.5 24.9377C0.5 24.9426 0.5 24.9475 0.5 24.9523C0.5 24.9572 0.5 24.9621 0.5 24.967C0.5 24.9718 0.5 24.9767 0.5 24.9815C0.5 24.9864 0.5 24.9912 0.5 24.9961C0.5 25.0009 0.5 25.0057 0.5 25.0105C0.5 25.0153 0.5 25.0201 0.5 25.0249C0.5 25.0297 0.5 25.0345 0.5 25.0392C0.5 25.044 0.5 25.0487 0.5 25.0535C0.5 25.0582 0.5 25.063 0.5 25.0677C0.5 25.0724 0.5 25.0771 0.5 25.0818C0.5 25.0865 0.5 25.0912 0.5 25.0959C0.5 25.1006 0.5 25.1053 0.5 25.1099C0.5 25.1146 0.5 25.1192 0.5 25.1239C0.5 25.1285 0.5 25.1331 0.5 25.1377C0.5 25.1424 0.5 25.147 0.5 25.1516C0.5 25.1562 0.5 25.1607 0.5 25.1653C0.5 25.1699 0.5 25.1745 0.5 25.179C0.5 25.1836 0.5 25.1881 0.5 25.1926C0.5 25.1972 0.5 25.2017 0.5 25.2062C0.5 25.2107 0.5 25.2152 0.5 25.2197C0.5 25.2242 0.5 25.2286 0.5 25.2331C0.5 25.2376 0.5 25.242 0.5 25.2465C0.5 25.2509 0.5 25.2553 0.5 25.2598C0.5 25.2642 0.5 25.2686 0.5 25.273C0.5 25.2774 0.5 25.2818 0.5 25.2861C0.5 25.2905 0.5 25.2949 0.5 25.2992C0.5 25.3036 0.5 25.3079 0.5 25.3123C0.5 25.3166 0.5 25.3209 0.5 25.3252C0.5 25.3295 0.5 25.3338 0.5 25.3381C0.5 25.3424 0.5 25.3467 0.5 25.3509C0.5 25.3552 0.5 25.3594 0.5 25.3637C0.5 25.3679 0.5 25.3721 0.5 25.3763C0.5 25.3806 0.5 25.3848 0.5 25.3889C0.5 25.3931 0.5 25.3973 0.5 25.4015C0.5 25.4057 0.5 25.4098 0.5 25.414C0.5 25.4181 0.5 25.4222 0.5 25.4264C0.5 25.4305 0.5 25.4346 0.5 25.4387C0.5 25.4428 0.5 25.4469 0.5 25.4509C0.5 25.455 0.5 25.4591 0.5 25.4631C0.5 25.4672 0.5 25.4712 0.5 25.4752C0.5 25.4793 0.5 25.4833 0.5 25.4873C0.5 25.4913 0.5 25.4953 0.5 25.4992C0.5 25.5032 0.5 25.5072 0.5 25.5111C0.5 25.5151 0.5 25.519 0.5 25.523C0.5 25.5269 0.5 25.5308 0.5 25.5347C0.5 25.5386 0.5 25.5425 0.5 25.5464C0.5 25.5503 0.5 25.5541 0.5 25.558C0.5 25.5618 0.5 25.5657 0.5 25.5695C0.5 25.5734 0.5 25.5772 0.5 25.581C0.5 25.5848 0.5 25.5886 0.5 25.5924C0.5 25.5961 0.5 25.5999 0.5 25.6037C0.5 25.6074 0.5 25.6112 0.5 25.6149C0.5 25.6186 0.5 25.6223 0.5 25.626C0.5 25.6297 0.5 25.6334 0.5 25.6371C0.5 25.6408 0.5 25.6445 0.5 25.6481C0.5 25.6518 0.5 25.6554 0.5 25.659C0.5 25.6627 0.5 25.6663 0.5 25.6699C0.5 25.6735 0.5 25.6771 0.5 25.6807C0.5 25.6842 0.5 25.6878 0.5 25.6914C0.5 25.6949 0.5 25.6984 0.5 25.702C0.5 25.7055 0.5 25.709 0.5 25.7125C0.5 25.716 0.5 25.7195 0.5 25.723C0.5 25.7264 0.5 25.7299 0.5 25.7334C0.5 25.7368 0.5 25.7402 0.5 25.7437C0.5 25.7471 0.5 25.7505 0.5 25.7539C0.5 25.7573 0.5 25.7607 0.5 25.764C0.5 25.7674 0.5 25.7707 0.5 25.7741C0.5 25.7774 0.5 25.7808 0.5 25.7841C0.5 25.7874 0.5 25.7907 0.5 25.794C0.5 25.7973 0.5 25.8005 0.5 25.8038C0.5 25.8071 0.5 25.8103 0.5 25.8135C0.5 25.8168 0.5 25.82 0.5 25.8232C0.5 25.8264 0.5 25.8296 0.5 25.8328C0.5 25.836 0.5 25.8391 0.5 25.8423C0.5 25.8454 0.5 25.8486 0.5 25.8517C0.5 25.8548 0.5 25.8579 0.5 25.861C0.5 25.8641 0.5 25.8672 0.5 25.8703C0.5 25.8733 0.5 25.8764 0.5 25.8794C0.5 25.8825 0.5 25.8855 0.5 25.8885C0.5 25.8915 0.5 25.8945 0.5 25.8975C0.5 25.9005 0.5 25.9035 0.5 25.9065C0.5 25.9094 0.5 25.9124 0.5 25.9153C0.5 25.9182 0.5 25.9211 0.5 25.924C0.5 25.9269 0.5 25.9298 0.5 25.9327C0.5 25.9356 0.5 25.9384 0.5 25.9413C0.5 25.9441 0.5 25.947 0.5 25.9498C0.5 25.9526 0.5 25.9554 0.5 25.9582C0.5 25.961 0.5 25.9637 0.5 25.9665C0.5 25.9693 0.5 25.972 0.5 25.9747C0.5 25.9775 0.5 25.9802 0.5 25.9829C0.5 25.9856 0.5 25.9883 0.5 25.9909C0.5 25.9936 0.5 25.9963 0.5 25.9989C0.5 26.0016 0.5 26.0042 0.5 26.0068C0.5 26.0094 0.5 26.012 0.5 26.0146C0.5 26.0172 0.5 26.0198 0.5 26.0223C0.5 26.0249 0.5 26.0274 0.5 26.0299C0.5 26.0325 0.5 26.035 0.5 26.0375C0.5 26.04 0.5 26.0425 0.5 26.0449C0.5 26.0474 0.5 26.0499 0.5 26.0523C0.5 26.0547 0.5 26.0572 0.5 26.0596C0.5 26.062 0.5 26.0644 0.5 26.0667C0.5 26.0691 0.5 26.0715 0.5 26.0738C0.5 26.0762 0.5 26.0785 0.5 26.0808C0.5 26.0831 0.5 26.0854 0.5 26.0877C0.5 26.09 0.5 26.0923 0.5 26.0945C0.5 26.0968 0.5 26.099 0.5 26.1013C0.5 26.1035 0.5 26.1057 0.5 26.1079C0.5 26.1101 0.5 26.1123 0.5 26.1145C0.5 26.1166 0.5 26.1188 0.5 26.1209C0.5 26.123 0.5 26.1252 0.5 26.1273C0.5 26.1294 0.5 26.1315 0.5 26.1335C0.5 26.1356 0.5 26.1377 0.5 26.1397C0.5 26.1417 0.5 26.1438 0.5 26.1458C0.5 26.1478 0.5 26.1498 0.5 26.1518C0.5 26.1537 0.5 26.1557 0.5 26.1577C0.5 26.1596 0.5 26.1615 0.5 26.1634C0.5 26.1654 0.5 26.1673 0.5 26.1692C0.5 26.171 0.5 26.1729 0.5 26.1748C0.5 26.1766 0.5 26.1785 0.5 26.1803C0.5 26.1821 0.5 26.1839 0.5 26.1857C0.5 26.1875 0.5 26.1893 0.5 26.191C0.5 26.1928 0.5 26.1945 0.5 26.1962C0.5 26.198 0.5 26.1997 0.5 26.2014C0.5 26.2031 0.5 26.2047 0.5 26.2064C0.5 26.2081 0.5 26.2097 0.5 26.2113C0.5 26.213 0.5 26.2146 0.5 26.2162C0.5 26.2178 0.5 26.2194 0.5 26.2209C0.5 26.2225 0.5 26.224 0.5 26.2256C0.5 26.2271 0.5 26.2286 0.5 26.2301C0.5 26.2316 0.5 26.2331 0.5 26.2346C0.5 26.236 0.5 26.2375 0.5 26.2389C0.5 26.2403 0.5 26.2418 0.5 26.2432C0.5 26.2446 0.5 26.2459 0.5 26.2473C0.5 26.2487 0.5 26.25 0.5 26.2514C0.5 26.2527 0.5 26.254 0.5 26.2553C0.5 26.2566 0.5 26.2579 0.5 26.2592C0.5 26.2604 0.5 26.2617 0.5 26.2629C0.5 26.2642 0.5 26.2654 0.5 26.2666C0.5 26.2678 0.5 26.269 0.5 26.2701C0.5 26.2713 0.5 26.2724 0.5 26.2736C0.5 26.2747 0.5 26.2758 0.5 26.2769C0.5 26.278 0.5 26.2791 0.5 26.2802C0.5 26.2812 0.5 26.2823 0.5 26.2833C0.5 26.2843 0.5 26.2854 0.5 26.2864C0.5 26.2874 0.5 26.2883 0.5 26.2893C0.5 26.2903 0.5 26.2912 0.5 26.2921C0.5 26.2931 0.5 26.294 0.5 26.2949C0.5 26.2958 0.5 26.2966 0.5 26.2975C0.5 26.2984 0.5 26.2992 0.5 26.3C0.5 26.3008 0.5 26.3017 0.5 26.3024C0.5 26.3032 0.5 26.304 0.5 26.3048C0.5 26.3055 0.5 26.3063 0.5 26.307C0.5 26.3077 0.5 26.3084 0.5 26.3091C0.5 26.3098 0.5 26.3104 0.5 26.3111C0.5 26.3117 0.5 26.3124 0.5 26.313C0.5 26.3136 0.5 26.3142 0.5 26.3148C0.5 26.3153 0.5 26.3159 0.5 26.3165C0.5 26.317 0.5 26.3175 0.5 26.318C0.5 26.3185 0.5 26.319 0.5 26.3195C0.5 26.32 0.5 26.3204 0.5 26.3209C0.5 26.3213 0.5 26.3217 0.5 26.3221C0.5 26.3225 0.5 26.3229 0.5 26.3233C0.5 26.3236 0.5 26.324 0.5 26.3243C0.5 26.3246 0.5 26.325 0.5 26.3252C0.5 26.3255 0.5 26.3258 0.5 26.3261C0.5 26.3263 0.5 26.3266 0.5 26.3268C0.5 26.327 0.5 26.3272 0.5 26.3274C0.5 26.3276 0.5 26.3277 0.5 26.3279C0.5 26.328 0.5 26.3282 0.5 26.3283C0.5 26.3284 0.5 26.3285 0.5 26.3285C0.5 26.3286 0.5 26.3287 0.5 26.3287C0.5 26.3287 0.5 26.3288 1 26.3288ZM39.9884 26.0342C39.7202 26.4562 39.7202 26.4562 39.7202 26.4563C39.7203 26.4563 39.7203 26.4563 39.7204 26.4564C39.7206 26.4565 39.7207 26.4565 39.721 26.4568C39.7216 26.4571 39.7224 26.4577 39.7236 26.4584C39.7257 26.4598 39.7293 26.462 39.7337 26.4648C39.7425 26.4704 39.7559 26.4789 39.7733 26.49C39.8083 26.5122 39.8599 26.5451 39.9269 26.5876C40.0607 26.6726 40.2554 26.7964 40.4991 26.9513C40.9866 27.2611 41.67 27.6955 42.4539 28.1937C44.0216 29.1901 45.9911 30.4418 47.5979 31.4631L48.1343 30.6191C46.5275 29.5979 44.558 28.3461 42.9903 27.3497C42.2064 26.8515 41.523 26.4172 41.0355 26.1074C40.7918 25.9524 40.5971 25.8287 40.4633 25.7436C40.3963 25.7011 40.3447 25.6683 40.3097 25.6461C40.2923 25.635 40.279 25.6265 40.2701 25.6208C40.2656 25.618 40.2622 25.6159 40.26 25.6144C40.2588 25.6137 40.258 25.6132 40.2574 25.6128C40.2571 25.6126 40.257 25.6125 40.2568 25.6124C40.2567 25.6124 40.2567 25.6123 40.2566 25.6123C40.2566 25.6123 40.2566 25.6123 39.9884 26.0342ZM48.1422 30.6243L27.789 17.1397L27.2367 17.9734L47.5899 31.4579L48.1422 30.6243ZM13.1795 18.7953L19.473 22.9069L20.0199 22.0697L13.7265 17.9581L13.1795 18.7953ZM19.473 22.9069L26.7037 27.6309L27.2507 26.7937L20.0199 22.0697L19.473 22.9069ZM27.2448 17.1345L19.4784 22.0662L20.0145 22.9104L27.7809 17.9787L27.2448 17.1345ZM60.7885 22.6735L54.8394 18.6911L54.2831 19.5221L60.2322 23.5045L60.7885 22.6735ZM60.7647 23.5195L68.7415 18.8072L68.2329 17.9462L60.2561 22.6585L60.7647 23.5195ZM27.7656 43.4006L48.1189 31.4725L47.6133 30.6097L27.26 42.5378L27.7656 43.4006ZM48.1343 30.6191L40.2566 25.6123L39.7202 26.4562L47.5979 31.4631L48.1343 30.6191ZM47.6 31.4644L68.2211 44.4233L68.7532 43.5767L48.1321 30.6177L47.6 31.4644ZM67.828 27.3859L60.7885 22.6735L60.2322 23.5045L67.2717 28.2169L67.828 27.3859ZM60.7885 22.6735L27.791 0.584503L27.2347 1.4155L60.2322 23.5045L60.7885 22.6735ZM27.0128 34.1336V42.9692H28.0128V34.1336H27.0128ZM67.9872 35.0171V44H68.9872V35.0171H67.9872ZM0.5 18.3767V26.3288H1.5V18.3767H0.5ZM27.2809 9.81828L27.0131 17.5392L28.0125 17.5739L28.2803 9.85295L27.2809 9.81828Z" fill="white"/>
</svg>
