<?xml version="1.0" encoding="iso-8859-1"?>
<!-- Generator: Adobe Illustrator 19.0.0, SVG Export Plug-In . SVG Version: 6.00 Build 0)  -->
<svg version="1.1" id="Layer_1" xmlns="http://www.w3.org/2000/svg" xmlns:xlink="http://www.w3.org/1999/xlink" x="0px" y="0px"
	 viewBox="0 0 512 512" style="enable-background:new 0 0 512 512;" xml:space="preserve">
<g>
	<g>
		<g>
			<path d="M493.268,28.293H18.732C8.387,28.293,0,36.68,0,47.025v65.756c0,6.897,5.591,12.488,12.488,12.488h487.024
				c6.897,0,12.488-5.591,12.488-12.488V47.025C512,36.68,503.613,28.293,493.268,28.293z M71.456,88.222
				c-6.319,0-11.44-5.122-11.44-11.441s5.122-11.44,11.44-11.44c6.319,0,11.441,5.122,11.441,11.44S77.775,88.222,71.456,88.222z
				 M108.083,88.222c-6.319,0-11.441-5.122-11.441-11.441s5.122-11.44,11.441-11.44s11.44,5.122,11.44,11.44
				S114.401,88.222,108.083,88.222z M144.709,88.222c-6.319,0-11.441-5.122-11.441-11.441s5.122-11.44,11.441-11.44
				s11.44,5.122,11.44,11.44S151.028,88.222,144.709,88.222z"/>
			<path d="M499.512,150.244H12.488C5.591,150.244,0,155.835,0,162.732v302.244c0,10.345,8.387,18.732,18.732,18.732h474.537
				c10.345,0,18.732-8.387,18.732-18.732V162.732C512,155.836,506.409,150.244,499.512,150.244z M231.43,415.499
				c0,10.345-8.387,18.732-18.732,18.732H83.819c-10.345,0-18.732-8.387-18.732-18.732v-67.778c0-10.345,8.387-18.732,18.732-18.732
				h128.879c10.345,0,18.732,8.387,18.732,18.732V415.499z M428.181,429.21H280.244c-10.345,0-18.732-8.387-18.732-18.732
				s8.387-18.732,18.732-18.732h147.937c10.345,0,18.732,8.387,18.732,18.732S438.526,429.21,428.181,429.21z M428.181,371.473
				H280.244c-10.345,0-18.732-8.387-18.732-18.732c0-10.345,8.387-18.732,18.732-18.732h147.937
				c10.345,0,18.732,8.387,18.732,18.732S438.526,371.473,428.181,371.473z M446.912,282.25c0,10.345-8.387,18.732-18.732,18.732
				H83.819c-10.345,0-18.732-8.387-18.732-18.732v-63.796c0-10.345,8.387-18.732,18.732-18.732h344.361
				c10.345,0,18.732,8.387,18.732,18.732V282.25z"/>
		</g>
	</g>
</g>
<g>
</g>
<g>
</g>
<g>
</g>
<g>
</g>
<g>
</g>
<g>
</g>
<g>
</g>
<g>
</g>
<g>
</g>
<g>
</g>
<g>
</g>
<g>
</g>
<g>
</g>
<g>
</g>
<g>
</g>
</svg>
