<svg width="218" height="172" viewBox="0 0 218 172" fill="none" xmlns="http://www.w3.org/2000/svg">
<path d="M177.629 22.6885H18.2254C15.9823 22.6885 14.1638 24.5074 14.1638 26.7512V122.006C14.1638 124.25 15.9823 126.069 18.2254 126.069H177.629C179.872 126.069 181.69 124.25 181.69 122.006V26.7512C181.69 24.5074 179.872 22.6885 177.629 22.6885Z" fill="black"/>
<path d="M174.856 25.7916H21.0003C19.3301 25.7916 17.9761 27.1459 17.9761 28.8165V119.941C17.9761 121.611 19.3301 122.966 21.0003 122.966H174.856C176.526 122.966 177.88 121.611 177.88 119.941V28.8165C177.88 27.1459 176.526 25.7916 174.856 25.7916Z" fill="white" stroke="#292929" stroke-miterlimit="10"/>
<path d="M74.7499 7.96918H31.7573C29.4821 7.96918 27.6378 9.81404 27.6378 12.0898V77.2613C27.6378 79.5371 29.4821 81.3819 31.7573 81.3819H74.7499C77.025 81.3819 78.8694 79.5371 78.8694 77.2613V12.0898C78.8694 9.81404 77.025 7.96918 74.7499 7.96918Z" fill="black"/>
<path d="M71.9171 10.9841H34.5951C32.3199 10.9841 30.4756 12.8289 30.4756 15.1047V73.8913C30.4756 76.167 32.3199 78.0119 34.5951 78.0119H71.9171C74.1923 78.0119 76.0366 76.167 76.0366 73.8913V15.1047C76.0366 12.8289 74.1923 10.9841 71.9171 10.9841Z" fill="white"/>
<path d="M70.7035 21.9782H35.98C34.1137 21.9782 32.6008 23.4916 32.6008 25.3583V73.0375C32.6008 74.9043 34.1137 76.4176 35.98 76.4176H70.7035C72.5697 76.4176 74.0826 74.9043 74.0826 73.0375V25.3583C74.0826 23.4916 72.5697 21.9782 70.7035 21.9782Z" stroke="white" stroke-miterlimit="10"/>
<path d="M66.6394 13.999H35.4386C34.9491 13.999 34.5522 14.3959 34.5522 14.8855C34.5522 15.3752 34.9491 15.7721 35.4386 15.7721H66.6394C67.1289 15.7721 67.5257 15.3752 67.5257 14.8855C67.5257 14.3959 67.1289 13.999 66.6394 13.999Z" fill="#0E0E0E"/>
<path d="M66.6394 18.0768H39.5153C39.0258 18.0768 38.6289 18.4737 38.6289 18.9633C38.6289 19.453 39.0258 19.8499 39.5153 19.8499H66.6394C67.1289 19.8499 67.5257 19.453 67.5257 18.9633C67.5257 18.4737 67.1289 18.0768 66.6394 18.0768Z" fill="#0E0E0E"/>
<path d="M66.6394 93.6178H35.4386C34.9491 93.6178 34.5522 94.0148 34.5522 94.5044C34.5522 94.9941 34.9491 95.391 35.4386 95.391H66.6394C67.1289 95.391 67.5257 94.9941 67.5257 94.5044C67.5257 94.0148 67.1289 93.6178 66.6394 93.6178Z" stroke="#292929" stroke-miterlimit="10"/>
<path d="M66.6394 97.6956H39.5153C39.0258 97.6956 38.6289 98.0926 38.6289 98.5822C38.6289 99.0718 39.0258 99.4688 39.5153 99.4688H66.6394C67.1289 99.4688 67.5257 99.0718 67.5257 98.5822C67.5257 98.0926 67.1289 97.6956 66.6394 97.6956Z" stroke="#292929" stroke-miterlimit="10"/>
<path d="M32.6008 27.0056H74.0852" stroke="#0E0E0E" stroke-miterlimit="10"/>
<path d="M31.6994 87.9432H74.8103C75.8875 87.9432 76.9206 88.3712 77.6823 89.1331C78.444 89.895 78.8719 90.9284 78.8719 92.0059V122.875H27.6378V92.0059C27.6378 90.9284 28.0657 89.895 28.8274 89.1331C29.5891 88.3712 30.6222 87.9432 31.6994 87.9432Z" fill="#2411FF"/>
<path opacity="0.3" d="M34.9702 90.9581H71.5394C72.1309 90.9568 72.7169 91.0722 73.2637 91.2979C73.8105 91.5236 74.3074 91.855 74.7259 92.2731C75.1444 92.6913 75.4763 93.1879 75.7025 93.7346C75.9287 94.2813 76.0448 94.8673 76.0442 95.459V122.875H30.468V95.459C30.4674 94.8675 30.5834 94.2817 30.8094 93.7352C31.0355 93.1887 31.3671 92.6921 31.7854 92.274C32.2036 91.8559 32.7002 91.5244 33.2467 91.2986C33.7932 91.0728 34.3789 90.9571 34.9702 90.9581Z" fill="#2411FF"/>
<path d="M32.6008 122.966V103.408C32.6015 103.022 32.755 102.652 33.0278 102.379C33.3006 102.106 33.6704 101.953 34.0562 101.952H71.9197C72.3057 101.952 72.6759 102.106 72.9488 102.379C73.2217 102.652 73.3751 103.022 73.3751 103.408V122.966" stroke="#2411FF" stroke-miterlimit="10"/>
<path d="M32.6008 106.574H73.3751" stroke="#2411FF" stroke-miterlimit="10"/>
<path opacity="0.3" d="M53.2536 122.966V112.05C53.2536 111.935 53.2307 111.821 53.1861 111.716C53.1415 111.61 53.0763 111.514 52.9941 111.434C52.912 111.354 52.8146 111.291 52.7078 111.25C52.601 111.208 52.4869 111.188 52.3723 111.191C49.8291 111.261 42.4865 112.4 39.6286 122.875L53.2536 122.966Z" fill="black"/>
<path opacity="0.3" d="M54.7014 120.966L56.5043 110.589C56.5629 110.255 56.7502 109.958 57.0258 109.762C57.3014 109.565 57.6432 109.485 57.9774 109.539C60.2914 109.906 65.0681 111.239 66.1911 116.002C66.2573 116.298 66.2217 116.609 66.0902 116.883C65.9587 117.157 65.7388 117.379 65.466 117.513L56.1871 122.069C56.0234 122.15 55.8413 122.186 55.6592 122.174C55.4771 122.162 55.3014 122.103 55.1496 122.001C54.9833 121.89 54.8526 121.733 54.7731 121.55C54.6936 121.366 54.6687 121.163 54.7014 120.966Z" fill="black"/>
<path opacity="0.3" d="M59.3698 122.875L66.1232 120.785C66.2211 120.756 66.3238 120.747 66.4251 120.759C66.5264 120.771 66.6243 120.803 66.7128 120.854C66.8012 120.905 66.8785 120.973 66.9399 121.055C67.0013 121.136 67.0455 121.23 67.0699 121.329C67.2012 121.873 67.1617 122.445 66.9566 122.966L59.3698 122.875Z" fill="black"/>
<path d="M170.442 16.835H90.1224C89.0001 16.835 88.0904 17.745 88.0904 18.8676V49.7344C88.0904 50.8569 89.0001 51.767 90.1224 51.767H170.442C171.564 51.767 172.474 50.8569 172.474 49.7344V18.8676C172.474 17.745 171.564 16.835 170.442 16.835Z" fill="#2411FF"/>
<path opacity="0.3" d="M170.702 18.1649H89.8631V50.4371H170.702V18.1649Z" fill="#1A1A1A"/>
<path opacity="0.3" d="M97.1301 33.1487H92.8746V48.0443H97.1301V33.1487Z" fill="white"/>
<path opacity="0.3" d="M110.249 25.3483H105.993V48.0469H110.249V25.3483Z" fill="white"/>
<path opacity="0.3" d="M123.547 28.5395H119.291V48.0443H123.547V28.5395Z" fill="white"/>
<path opacity="0.3" d="M130.282 32.0858H126.027V48.2232H130.282V32.0858Z" fill="white"/>
<path opacity="0.3" d="M136.487 35.6321H132.231V48.2232H136.487V35.6321Z" fill="white"/>
<path opacity="0.3" d="M143.401 21.268H139.146V48.2207H143.401V21.268Z" fill="white"/>
<path opacity="0.3" d="M150.137 23.5751H145.881V48.2232H150.137V23.5751Z" fill="white"/>
<path opacity="0.3" d="M156.52 28.1843H152.265V48.2232H156.52V28.1843Z" fill="white"/>
<path opacity="0.3" d="M163.077 43.08H158.822V48.2232H163.077V43.08Z" fill="white"/>
<path opacity="0.3" d="M169.815 33.6827H165.56V48.2232H169.815V33.6827Z" fill="white"/>
<path opacity="0.3" d="M103.868 38.4707H99.6128V48.0469H103.868V38.4707Z" fill="white"/>
<path opacity="0.3" d="M116.987 42.7248H112.732V48.0443H116.987V42.7248Z" fill="white"/>
<path d="M169.687 59.5699H90.8778C89.3383 59.5699 88.0904 60.8183 88.0904 62.3582V93.3106C88.0904 94.8504 89.3383 96.0988 90.8778 96.0988H169.687C171.226 96.0988 172.474 94.8504 172.474 93.3106V62.3582C172.474 60.8183 171.226 59.5699 169.687 59.5699Z" fill="black"/>
<path d="M171.057 61.3456H89.8631V93.973H171.057V61.3456Z" fill="white"/>
<path d="M111.223 85.6385H97.3944C96.5628 85.6385 95.8887 86.3129 95.8887 87.1447V87.1473C95.8887 87.9791 96.5628 88.6534 97.3944 88.6534H111.223C112.055 88.6534 112.729 87.9791 112.729 87.1473V87.1447C112.729 86.3129 112.055 85.6385 111.223 85.6385Z" fill="#2411FF"/>
<path d="M131.788 85.6385H117.959C117.127 85.6385 116.453 86.3129 116.453 87.1447V87.1473C116.453 87.9791 117.127 88.6534 117.959 88.6534H131.788C132.62 88.6534 133.294 87.9791 133.294 87.1473V87.1447C133.294 86.3129 132.62 85.6385 131.788 85.6385Z" fill="#2411FF"/>
<path d="M152.992 85.7141H139.11C138.275 85.7141 137.597 86.3918 137.597 87.2279C137.597 88.0639 138.275 88.7416 139.11 88.7416H152.992C153.828 88.7416 154.506 88.0639 154.506 87.2279C154.506 86.3918 153.828 85.7141 152.992 85.7141Z" fill="black"/>
<path d="M103.866 81.9134C108.467 81.9134 112.198 78.182 112.198 73.579C112.198 68.976 108.467 65.2446 103.866 65.2446C99.264 65.2446 95.5336 68.976 95.5336 73.579C95.5336 78.182 99.264 81.9134 103.866 81.9134Z" fill="white"/>
<path d="M108.889 72.0501C109.218 73.125 109.2 74.2764 108.837 75.3403C108.474 76.4041 107.784 77.3263 106.867 77.9755C105.949 78.6247 104.85 78.9679 103.727 78.9561C102.603 78.9443 101.511 78.5783 100.608 77.91C99.7039 77.2417 99.034 76.3053 98.6932 75.234C98.3525 74.1628 98.3582 73.0113 98.7097 71.9435C99.0612 70.8757 99.7405 69.9461 100.651 69.2869C101.561 68.6277 102.656 68.2726 103.78 68.2721C103.929 68.2721 104.077 68.2721 104.223 68.2897V66.6828C104.077 66.6828 103.929 66.6702 103.78 66.6702C102.304 66.671 100.867 67.1428 99.6775 68.0171C98.4881 68.8914 97.6086 70.1225 97.167 71.5313C96.7254 72.9401 96.7447 74.453 97.222 75.8501C97.6994 77.2472 98.61 78.4554 99.8213 79.2991C101.033 80.1428 102.481 80.5779 103.957 80.541C105.432 80.5042 106.858 79.9974 108.025 79.0944C109.193 78.1913 110.042 76.9392 110.45 75.52C110.857 74.1009 110.801 72.5888 110.289 71.2038L108.889 72.0501Z" fill="#2411FF"/>
<path d="M145.881 82.2685C150.483 82.2685 154.214 78.5371 154.214 73.9341C154.214 69.3312 150.483 65.5997 145.881 65.5997C141.28 65.5997 137.549 69.3312 137.549 73.9341C137.549 78.5371 141.28 82.2685 145.881 82.2685Z" fill="white"/>
<path d="M150.26 77.012C149.736 77.7667 149.026 78.3735 148.199 78.7736C147.372 79.1737 146.456 79.3536 145.539 79.296C144.622 79.2384 143.736 78.9452 142.965 78.4447C142.195 77.9442 141.566 77.2533 141.141 76.4389C140.715 75.6245 140.507 74.714 140.536 73.7955C140.565 72.877 140.83 71.9816 141.306 71.1957C141.783 70.4098 142.453 69.76 143.254 69.3092C144.054 68.8584 144.958 68.6217 145.876 68.6222C146.025 68.6222 146.174 68.6222 146.32 68.6398V67.0354C146.174 67.0354 146.025 67.0203 145.876 67.0203C144.695 67.0198 143.533 67.3209 142.5 67.8953C141.467 68.4697 140.598 69.2982 139.975 70.3025C139.352 71.3067 138.995 72.4534 138.939 73.634C138.883 74.8147 139.129 75.9901 139.654 77.049C140.179 78.1079 140.965 79.0153 141.939 79.6852C142.912 80.3552 144.04 80.7655 145.217 80.8773C146.393 80.9891 147.578 80.7987 148.661 80.3242C149.743 79.8496 150.686 79.1066 151.401 78.1655L150.26 77.012Z" fill="#2411FF"/>
<path d="M124.785 81.9134C129.387 81.9134 133.118 78.182 133.118 73.579C133.118 68.976 129.387 65.2446 124.785 65.2446C120.184 65.2446 116.453 68.976 116.453 73.579C116.453 78.182 120.184 81.9134 124.785 81.9134Z" fill="white"/>
<path d="M127.578 78.158C126.874 78.5879 126.081 78.849 125.26 78.9209C124.439 78.9929 123.612 78.8737 122.845 78.5728C122.077 78.2719 121.39 77.7973 120.836 77.1863C120.283 76.5753 119.878 75.8444 119.654 75.0508C119.43 74.2573 119.393 73.4227 119.545 72.6123C119.697 71.802 120.035 71.0379 120.532 70.3798C121.029 69.7218 121.671 69.1878 122.408 68.8195C123.146 68.4512 123.959 68.2587 124.783 68.257C124.914 68.257 125.035 68.257 125.176 68.257V66.6526C125.045 66.6526 124.911 66.6526 124.78 66.6526C123.71 66.6521 122.653 66.8993 121.694 67.375C120.735 67.8507 119.898 68.5419 119.25 69.3946C118.602 70.2473 118.16 71.2384 117.959 72.2903C117.758 73.3422 117.802 74.4265 118.089 75.4583C118.376 76.4902 118.898 77.4416 119.614 78.2382C120.329 79.0349 121.22 79.6551 122.215 80.0504C123.21 80.4457 124.283 80.6054 125.35 80.517C126.417 80.4286 127.45 80.0945 128.366 79.5408L127.578 78.158Z" fill="#2411FF"/>
<path d="M90.1224 100.355H170.447C170.986 100.355 171.503 100.57 171.884 100.951C172.265 101.332 172.479 101.849 172.479 102.388V122.875H88.0904V102.388C88.0904 101.849 88.3045 101.332 88.6855 100.951C89.0666 100.57 89.5835 100.355 90.1224 100.355Z" fill="#2411FF"/>
<path opacity="0.3" d="M171.057 102.484H89.8631V122.875H171.057V102.484Z" fill="#2411FF"/>
<path opacity="0.3" d="M128.331 106.385H110.425V107.803H128.331V106.385Z" fill="black"/>
<path opacity="0.3" d="M128.331 110.994H103.513V112.412H128.331V110.994Z" fill="black"/>
<path opacity="0.3" d="M128.331 113.123H98.0164V114.541H128.331V113.123Z" fill="black"/>
<path opacity="0.3" d="M128.331 115.251H94.471V116.669H128.331V115.251Z" fill="black"/>
<path opacity="0.3" d="M128.331 117.379H112.732V118.797H128.331V117.379Z" fill="black"/>
<path opacity="0.3" d="M128.331 119.508H108.121V120.926H128.331V119.508Z" fill="black"/>
<path opacity="0.3" d="M128.331 121.812H103.866V122.875H128.331V121.812Z" fill="black"/>
<path opacity="0.3" d="M128.331 108.69H122.126V110.108H128.331V108.69Z" fill="black"/>
<path opacity="0.3" d="M132.763 107.803H150.668V106.385H132.763V107.803Z" fill="black"/>
<path opacity="0.3" d="M132.765 112.415H157.583V110.997H132.765V112.415Z" fill="black"/>
<path opacity="0.3" d="M132.763 114.543H163.077V113.125H132.763V114.543Z" fill="black"/>
<path opacity="0.3" d="M132.763 116.669H166.622V115.251H132.763V116.669Z" fill="black"/>
<path opacity="0.3" d="M132.765 118.797H148.364V117.379H132.765V118.797Z" fill="black"/>
<path opacity="0.3" d="M132.763 120.926H152.972V119.508H132.763V120.926Z" fill="black"/>
<path opacity="0.3" d="M132.763 122.875H157.228V121.812H132.763V122.875Z" fill="black"/>
<path opacity="0.3" d="M132.763 110.11H138.967V108.692H132.763V110.11Z" fill="black"/>
<path d="M59.944 61.658L62.3386 62.2902L63.3836 58.3207L60.9361 57.6784C61.0093 56.1456 60.74 54.6158 60.1479 53.2002L62.467 51.7695L60.3141 48.2736L57.8439 49.7848C56.9897 48.9488 55.9972 48.2671 54.9105 47.7698L55.6986 44.7851L51.7302 43.7374L50.9118 46.848C49.6023 46.8047 48.2964 47.0115 47.0643 47.4575L45.7398 45.1453L42.1793 47.1855L43.5567 49.5934C42.6531 50.4298 41.9062 51.421 41.3509 52.5201L38.8984 51.8728L37.8534 55.8423L40.2531 56.477C40.161 57.7904 40.32 59.1094 40.7214 60.3634L38.0221 62.0257L40.175 65.5217L42.7383 63.9399C43.5833 64.9308 44.6087 65.7521 45.76 66.3604L45.0423 69.0806L49.0107 70.1309L49.7007 67.5165C51.012 67.6333 52.3335 67.4974 53.5935 67.116L54.8324 69.2821L58.3954 67.2419L57.2094 65.1716C58.3665 64.2141 59.2998 63.0148 59.944 61.658Z" fill="#2411FF"/>
<path d="M53.1075 50.6714C54.5582 51.248 55.7638 52.3105 56.5182 53.6775C57.2727 55.0444 57.5293 56.631 57.2442 58.1662C56.959 59.7014 56.1498 61.0899 54.9549 62.0946C53.7599 63.0993 52.2533 63.6578 50.6923 63.6747C49.1314 63.6916 47.613 63.1659 46.3965 62.1874C45.1801 61.2088 44.341 59.8382 44.0227 58.3095C43.7043 56.7809 43.9265 55.1891 44.6512 53.8061C45.3758 52.4231 46.5581 51.3347 47.9959 50.7268" stroke="white" stroke-linecap="round" stroke-linejoin="round"/>
<path d="M50.6248 59.4188C51.996 59.4188 53.1075 58.3069 53.1075 56.9354C53.1075 55.5638 51.996 54.4519 50.6248 54.4519C49.2536 54.4519 48.142 55.5638 48.142 56.9354C48.142 58.3069 49.2536 59.4188 50.6248 59.4188Z" stroke="white" stroke-linecap="round" stroke-linejoin="round"/>
<path d="M66.2919 39.9366L67.5509 40.264L68.0948 38.1962L66.8207 37.8587C66.8581 37.0602 66.717 36.2634 66.4077 35.5264L67.6189 34.7707L66.4757 32.9598L65.1965 33.7507C64.7523 33.3134 64.235 32.9571 63.6681 32.6978L64.0785 31.1413L62.0112 30.5947L61.5857 32.2092C60.9002 32.1857 60.2164 32.2934 59.5713 32.5266L58.8839 31.3226L57.0256 32.3855L57.7457 33.6449C57.2732 34.08 56.8833 34.5971 56.595 35.1712L55.3158 34.8337L54.7719 36.9016L56.031 37.2315C55.9845 37.9173 56.0699 38.6056 56.2828 39.2591L54.8676 40.1306L55.9907 41.9516L57.3277 41.128C57.7693 41.6442 58.3051 42.0716 58.9065 42.3873L58.5313 43.8028L60.5986 44.3494L60.9587 42.9893C61.6424 43.0498 62.3313 42.9788 62.9882 42.7802L63.6329 43.9086L65.4911 42.8457L64.8717 41.7652C65.4721 41.2659 65.9566 40.6419 66.2919 39.9366Z" fill="#2411FF"/>
<path d="M62.7289 34.2091C63.4853 34.5092 64.1141 35.0628 64.5079 35.7752C64.9016 36.4876 65.0358 37.3146 64.8876 38.115C64.7394 38.9154 64.318 39.6395 63.6953 40.1636C63.0726 40.6877 62.2873 40.9792 61.4736 40.9885C60.6598 40.9977 59.8681 40.724 59.2337 40.2142C58.5993 39.7044 58.1616 38.99 57.9952 38.1932C57.8289 37.3964 57.9443 36.5665 58.3218 35.8453C58.6993 35.1242 59.3154 34.5565 60.0648 34.2393" stroke="white" stroke-linecap="round" stroke-linejoin="round"/>
<path d="M61.4346 38.7679C62.1494 38.7679 62.7289 38.1883 62.7289 37.4733C62.7289 36.7583 62.1494 36.1787 61.4346 36.1787C60.7198 36.1787 60.1404 36.7583 60.1404 37.4733C60.1404 38.1883 60.7198 38.7679 61.4346 38.7679Z" stroke="white" stroke-linecap="round" stroke-linejoin="round"/>
<path fill-rule="evenodd" clip-rule="evenodd" d="M170.674 127.736H175.418V157.031H170.674V127.736Z" fill="#292929"/>
<path d="M187.844 160.011C187.844 158.366 185.928 157.031 183.564 157.031H164.351C161.989 157.031 160.07 158.366 160.07 160.011" stroke="#2E3135" stroke-width="10" stroke-miterlimit="10"/>
<path d="M194.726 79.7826H179.434L173.693 118.145H189.808C190.693 118.118 191.541 117.785 192.21 117.204C192.878 116.623 193.325 115.829 193.474 114.956L198.138 83.7823C198.47 81.5734 196.947 79.7826 194.739 79.7826" fill="#2E3135"/>
<path d="M191.792 79.7826H173.491C172.45 79.7831 171.444 80.1574 170.655 80.8373C169.866 81.5172 169.348 82.4576 169.193 83.4876L164.52 114.684C164.457 115.113 164.487 115.55 164.608 115.966C164.729 116.382 164.938 116.767 165.22 117.096C165.503 117.424 165.853 117.687 166.247 117.868C166.64 118.049 167.068 118.144 167.501 118.145H186.865C187.749 118.118 188.597 117.785 189.265 117.204C189.933 116.623 190.379 115.829 190.528 114.956L195.194 83.7823C195.524 81.5734 194.001 79.7826 191.792 79.7826Z" fill="#1A1B1C"/>
<path d="M189.831 118.142H158.336C158.255 118.142 158.176 118.158 158.102 118.188C158.027 118.219 157.96 118.263 157.903 118.32C157.846 118.377 157.801 118.444 157.77 118.518C157.74 118.592 157.724 118.672 157.724 118.752C157.724 119.954 158.201 121.108 159.051 121.958C159.901 122.808 161.054 123.286 162.256 123.286H185.293C186.496 123.286 187.648 122.808 188.498 121.958C189.348 121.108 189.826 119.954 189.826 118.752V118.142H189.831Z" fill="#292929"/>
<path d="M180.29 127.736H165.804C165.37 127.736 164.954 127.564 164.647 127.257C164.34 126.95 164.167 126.533 164.167 126.099V123.278H181.922V126.099C181.922 126.314 181.88 126.527 181.798 126.726C181.716 126.925 181.595 127.105 181.443 127.257C181.291 127.41 181.111 127.53 180.912 127.612C180.713 127.694 180.5 127.737 180.285 127.736" fill="#1A1B1C"/>
<path d="M191.017 160.011C191.017 160.639 190.832 161.253 190.483 161.775C190.135 162.297 189.64 162.704 189.06 162.945C188.48 163.185 187.842 163.249 187.227 163.126C186.611 163.004 186.046 162.702 185.602 162.258C185.158 161.815 184.855 161.249 184.733 160.634C184.61 160.018 184.673 159.38 184.913 158.8C185.153 158.22 185.559 157.724 186.081 157.375C186.603 157.026 187.217 156.84 187.844 156.84C188.685 156.841 189.491 157.175 190.085 157.769C190.68 158.364 191.014 159.17 191.014 160.011" fill="#292929"/>
<path d="M189.516 160.011C189.516 160.342 189.418 160.665 189.234 160.94C189.05 161.215 188.789 161.43 188.483 161.556C188.178 161.683 187.841 161.716 187.517 161.651C187.193 161.586 186.895 161.427 186.661 161.193C186.427 160.958 186.268 160.66 186.204 160.336C186.14 160.011 186.173 159.675 186.3 159.369C186.427 159.064 186.642 158.803 186.917 158.619C187.192 158.436 187.516 158.338 187.847 158.339C188.066 158.339 188.283 158.382 188.486 158.466C188.689 158.55 188.873 158.673 189.028 158.829C189.183 158.984 189.306 159.168 189.39 159.371C189.474 159.574 189.517 159.791 189.516 160.011Z" fill="#383A3C"/>
<path d="M163.168 160.011C163.168 160.639 162.982 161.253 162.634 161.775C162.286 162.297 161.79 162.704 161.21 162.945C160.63 163.186 159.992 163.249 159.377 163.126C158.761 163.004 158.195 162.702 157.751 162.258C157.308 161.814 157.005 161.248 156.883 160.632C156.761 160.016 156.824 159.378 157.064 158.798C157.305 158.218 157.712 157.722 158.234 157.374C158.756 157.025 159.37 156.839 159.997 156.84C160.838 156.841 161.644 157.175 162.238 157.769C162.833 158.364 163.167 159.17 163.168 160.011Z" fill="#292929"/>
<path d="M161.657 160.011C161.657 160.342 161.559 160.665 161.375 160.94C161.191 161.215 160.93 161.43 160.624 161.556C160.318 161.683 159.982 161.716 159.658 161.651C159.333 161.586 159.035 161.427 158.802 161.193C158.568 160.958 158.409 160.66 158.345 160.336C158.28 160.011 158.314 159.675 158.441 159.369C158.568 159.064 158.782 158.803 159.058 158.619C159.333 158.436 159.657 158.338 159.987 158.339C160.207 158.339 160.424 158.382 160.627 158.466C160.83 158.55 161.014 158.673 161.169 158.829C161.324 158.984 161.447 159.168 161.53 159.371C161.614 159.574 161.657 159.791 161.657 160.011Z" fill="#383A3C"/>
<path d="M170.674 127.736H175.418V130.575L170.674 129.054V127.736Z" fill="#2E3135"/>
<path d="M139.664 148.38L139.211 153.445C139.211 153.445 139.894 155.261 141.671 155.596C142.68 155.807 143.728 155.727 144.693 155.364L146.561 147.503L139.664 148.38Z" fill="#F9B499"/>
<path d="M147.433 162.882H128.087C128 162.882 127.918 162.848 127.857 162.787C127.796 162.726 127.762 162.644 127.762 162.557C127.767 162.106 127.807 161.655 127.883 161.21C128.134 159.699 128.91 157.646 131.254 157.094C135.069 156.195 136.814 154.827 136.814 154.827C136.814 154.827 137.441 152.004 138.342 151.964C139.244 151.923 139.523 153.445 140.05 153.81C140.576 154.175 141.525 154.205 142.215 154.205C144.58 154.205 145.01 152.661 146.093 153.251C146.685 153.576 147.783 158.54 148.336 161.215C148.367 161.376 148.402 161.527 148.43 161.668C148.462 161.817 148.46 161.971 148.423 162.119C148.387 162.267 148.318 162.405 148.221 162.522C148.124 162.639 148.002 162.733 147.864 162.796C147.725 162.86 147.575 162.891 147.422 162.887" fill="#2411FF"/>
<path d="M147.433 162.882H128.087C128 162.882 127.918 162.848 127.857 162.787C127.796 162.726 127.762 162.644 127.762 162.557C127.767 162.106 127.807 161.655 127.883 161.21H148.336C148.367 161.371 148.402 161.522 148.43 161.663C148.462 161.812 148.46 161.966 148.423 162.114C148.387 162.262 148.318 162.4 148.221 162.517C148.124 162.634 148.002 162.728 147.864 162.791C147.725 162.855 147.575 162.886 147.422 162.882" fill="#292929"/>
<path d="M136.477 157.684C136.424 157.688 136.371 157.675 136.325 157.647C136.28 157.618 136.245 157.577 136.225 157.527C135.618 156.15 134.714 155.963 134.664 155.956C134.595 155.944 134.533 155.905 134.493 155.847C134.452 155.79 134.436 155.719 134.448 155.65C134.46 155.581 134.499 155.519 134.557 155.479C134.614 155.438 134.685 155.422 134.754 155.434C134.802 155.434 135.981 155.659 136.708 157.313C136.736 157.378 136.738 157.451 136.712 157.516C136.687 157.582 136.636 157.635 136.572 157.664C136.542 157.676 136.51 157.683 136.477 157.684ZM138.239 157.044C138.186 157.048 138.133 157.034 138.087 157.006C138.042 156.977 138.007 156.935 137.987 156.885C137.383 155.507 136.477 155.324 136.429 155.316C136.395 155.31 136.362 155.297 136.333 155.278C136.303 155.26 136.278 155.235 136.258 155.207C136.238 155.178 136.224 155.146 136.217 155.112C136.209 155.078 136.209 155.043 136.215 155.009C136.219 154.974 136.231 154.941 136.249 154.911C136.267 154.881 136.291 154.856 136.319 154.836C136.347 154.815 136.38 154.801 136.414 154.794C136.448 154.787 136.483 154.787 136.517 154.795C136.567 154.795 137.746 155.019 138.473 156.674C138.491 156.715 138.499 156.76 138.494 156.804C138.49 156.849 138.475 156.891 138.45 156.928C138.425 156.965 138.39 156.995 138.351 157.016C138.311 157.036 138.266 157.046 138.222 157.044H138.239Z" fill="black"/>
<path d="M163.246 150.196L164.93 154.999C164.93 154.999 166.303 156.369 168.058 155.941C169.066 155.718 169.99 155.212 170.722 154.482L169.178 146.551L163.256 150.196H163.246Z" fill="#F9B499"/>
<path d="M155.679 106.239C155.679 106.239 143.671 110.745 142.585 111.372C141.5 111.999 139.944 113.687 139.601 117.289C139.259 120.89 138.526 148.772 138.526 148.772L147.44 150.601L152.781 121.47L174.751 106.239H155.679Z" fill="#292929"/>
<path opacity="0.2" d="M155.679 106.239C155.679 106.239 143.671 110.745 142.585 111.372C141.5 111.999 139.944 113.687 139.601 117.289C139.259 120.89 138.526 148.772 138.526 148.772L147.44 150.601L152.781 121.47L174.751 106.239H155.679Z" fill="#2411FF"/>
<path d="M178.779 99.4184C178.779 99.4184 160.609 111.004 158.383 113.211C156.709 114.868 154.956 116.989 155.984 121.329C157.011 125.668 162.092 150.596 162.092 150.596L170.807 148.697L167.763 120.185L179.598 117.666C182.932 116.568 185.195 114.548 185.195 111.037V106.239L178.779 99.4184Z" fill="#2411FF"/>
<path d="M157.202 73.9417C157.202 73.9417 155.644 74.9492 154.909 76.342C152.99 80.0017 152.063 92.1242 152.063 92.1242L150.744 99.4285L158.003 100.627L160.342 82.2937L157.202 73.9518V73.9417Z" fill="#2411FF"/>
<path d="M159.655 71C159.655 71 154.679 71.9118 152.945 73.9368C150.124 77.2338 154.518 94.1192 154.518 94.1192L154.332 104.932C154.332 104.932 157.187 107.36 162.548 106.972C167.126 106.64 169.259 105.139 174.35 104.058C179.442 102.978 181.821 105.504 181.821 105.504L180.562 100.799C180.562 100.799 180.537 75.9115 179.85 74.3675C179.162 72.8235 172.248 71.6801 172.248 71.6801L159.658 71H159.655Z" fill="#2411FF"/>
<path d="M172.026 63.756C172.026 63.756 172.066 68.9521 172.467 71.0099L167.461 75.4882L165.524 71.1812C165.524 71.1812 165.59 70.141 165.323 69.5062C165.091 68.9547 172.026 63.756 172.026 63.756Z" fill="#F9B499"/>
<path d="M172.001 64.2497C172.001 64.2497 171.875 69.2871 169.432 70.5465C166.99 71.8058 165.434 69.5163 165.434 69.5163L171.993 64.2447L172.001 64.2497Z" fill="#F7A48B"/>
<path d="M159.59 57.4794C159.59 57.4794 158.761 58.5373 159.305 59.6531C159.849 60.7689 161.103 60.9628 161.103 60.9628L161.277 57.3384L159.59 57.4794Z" fill="#292929"/>
<path d="M160.803 58.832C160.833 59.8697 161.105 61.3507 161.375 62.8166C161.627 64.1313 161.833 65.4839 162.13 66.2974C162.732 68.0127 164.93 69.4987 166.139 69.8236C167.952 70.3097 171.346 67.3502 171.731 66.0002C171.965 65.1485 172.066 64.2658 172.031 63.3833V57.1671C172.031 57.1671 169.513 54.7592 166.26 54.7038C163.067 54.6484 160.75 56.8598 160.808 58.8345" fill="#F9B499"/>
<path d="M164.588 57.7917C164.588 57.7917 162.644 58.9378 160.833 59.3634C160.774 58.8795 160.803 58.3888 160.919 57.9152C161.251 56.89 164.588 57.7917 164.588 57.7917Z" fill="#F7A48B"/>
<path d="M172.026 58.6028L172.021 61.5597L173.207 61.8695L173.794 57.6154L172.026 58.6028Z" fill="#292929"/>
<path d="M172.023 58.7665C171.434 58.8798 169.208 58.7992 168.632 57.5071C168.632 57.5071 166.575 59.0385 164.588 57.7917C164.588 57.7917 158.975 59.8923 157.789 55.734C156.961 52.845 158.761 50.2432 161.521 50.2457C162.797 50.2457 163.764 51.4043 163.764 51.4043C164.345 51.0529 164.992 50.8249 165.665 50.7343C166.338 50.6438 167.022 50.6926 167.675 50.8779C169.941 51.5025 170.417 52.8652 170.417 52.8652C170.417 52.8652 173.796 53.5452 174.247 55.9934C174.604 57.9303 172.736 58.6305 172.023 58.764" fill="#2411FF"/>
<path d="M161.463 64.9827C161.289 64.9639 161.126 64.8872 161 64.7648C160.875 64.6424 160.794 64.4814 160.77 64.3076L160.478 63.0332C160.442 62.8902 160.436 62.7411 160.462 62.5957C160.487 62.4503 160.542 62.3119 160.624 62.1894C160.675 62.1184 160.74 62.0591 160.816 62.0157C160.892 61.9722 160.976 61.9456 161.063 61.9375L163.863 61.6857C163.95 61.6804 164.038 61.6939 164.12 61.7252C164.202 61.7564 164.277 61.8048 164.339 61.867C164.441 61.9734 164.52 62.1002 164.57 62.239C164.62 62.3778 164.641 62.5257 164.631 62.673V62.7158C164.804 62.5132 165.048 62.3851 165.313 62.3582C165.614 62.3422 165.91 62.4413 166.141 62.6352L166.119 62.532C166.083 62.3889 166.077 62.2399 166.102 62.0945C166.127 61.9492 166.183 61.8107 166.265 61.6882C166.316 61.6176 166.381 61.5587 166.457 61.5153C166.532 61.4719 166.616 61.445 166.703 61.4363L169.503 61.1844C169.591 61.1794 169.679 61.1932 169.761 61.2249C169.843 61.2566 169.917 61.3055 169.979 61.3683C170.078 61.4644 170.153 61.5815 170.2 61.7109L173.255 60.5472L173.35 60.7991L170.263 61.9753C170.269 62.0432 170.269 62.1114 170.263 62.1793L170.198 63.4865C170.175 63.9147 169.918 64.2422 169.586 64.2749L167.144 64.489C166.809 64.5192 166.499 64.2371 166.403 63.819L166.245 63.1238C166.167 63.0256 165.799 62.5924 165.331 62.6201C164.862 62.6478 164.636 63.1516 164.595 63.2498L164.56 63.9676C164.537 64.3958 164.281 64.7232 163.948 64.7585L161.506 64.9726L161.463 64.9827ZM163.923 61.9451H163.898L161.098 62.197C161.047 62.203 160.999 62.2199 160.955 62.2464C160.912 62.2729 160.875 62.3084 160.846 62.3506C160.786 62.4428 160.747 62.5463 160.729 62.6547C160.711 62.763 160.716 62.8739 160.743 62.9803L161.037 64.2573C161.1 64.5394 161.304 64.7409 161.496 64.7232L163.936 64.5091C164.137 64.4915 164.293 64.2573 164.308 63.9701L164.374 62.6629C164.381 62.5535 164.366 62.4436 164.33 62.3401C164.294 62.2366 164.237 62.1416 164.162 62.061C164.101 61.9928 164.015 61.9513 163.923 61.9451ZM169.561 61.4414H169.536L166.736 61.6932C166.685 61.6988 166.636 61.7154 166.593 61.742C166.549 61.7685 166.512 61.8043 166.484 61.8469C166.425 61.9392 166.385 62.0427 166.367 62.151C166.349 62.2593 166.354 62.3701 166.381 62.4765L166.675 63.7535C166.738 64.0356 166.927 64.2371 167.133 64.2195L169.576 64.0029C169.775 63.9878 169.931 63.751 169.946 63.4664L170.012 62.1567C170.019 62.0472 170.005 61.9373 169.968 61.8337C169.932 61.7301 169.875 61.6352 169.8 61.5547C169.732 61.4907 169.642 61.4555 169.548 61.4565L169.561 61.4414Z" fill="#292929"/>
<path d="M167.461 75.4882C167.461 75.4882 171.709 69.0907 173.794 69.3778C175.879 69.6649 176.337 71.7882 176.312 72.4405C176.287 73.0929 176.312 73.448 167.463 75.4882" fill="#2411FF"/>
<path d="M167.461 75.4882C167.461 75.4882 162.014 71.9771 162.944 70.5943C163.178 70.1997 163.558 69.9123 164.001 69.7933C164.445 69.6742 164.917 69.733 165.318 69.9571C165.726 70.6296 167.433 74.7023 167.461 75.4982" fill="#2411FF"/>
<path d="M172.021 60.4339C172.021 60.4339 173.852 60.5648 173.927 62.0635C174.033 64.2497 172.001 64.2497 172.001 64.2497L172.021 60.4339Z" fill="#F9B499"/>
<path d="M163.943 99.0809C163.943 99.0809 162.206 97.3027 159.159 98.484L160.599 96.2877L164.087 95.9753L165.018 98.494L163.936 99.0834L163.943 99.0809Z" fill="#EDA89F"/>
<path d="M166.078 98.4815C166.078 98.4815 166.157 97.6276 165.728 97.0609C165.3 96.4942 164.394 97.8165 163.759 97.9198C163.125 98.0231 161.617 97.9677 161.543 98.9071C161.47 99.8466 162.536 100.28 164.185 99.6829C165.834 99.086 165.948 99.0079 166.078 98.4815Z" fill="#EDA89F"/>
<path d="M166.149 99.7081L171.611 101.534V97.5294C171.611 97.5294 166.071 96.3632 165.275 96.1189C164.48 95.8746 163.261 95.3457 162.777 95.2424C162.294 95.1391 161.591 95.4943 161.322 95.4943C161.052 95.4943 159.907 95.0308 159.292 95.4187C158.678 95.8066 156.271 98.0885 156.656 99.1162C157.041 100.144 158.167 99.4285 158.167 99.4285C158.167 100.522 158.978 100.801 159.527 100.411C159.861 100.174 159.824 100.131 159.937 99.295C160.05 98.4588 161.133 97.9173 161.289 97.8392C161.478 97.747 161.684 97.696 161.894 97.6895C162.105 97.683 162.314 97.7211 162.508 97.8014C163.012 97.9702 163.339 98.1465 163.933 99.0859C164.185 99.4864 165.683 99.8416 166.139 99.7131" fill="#F9B499"/>
<path d="M180.29 74.2187C182.871 73.3523 184.248 76.3193 184.991 78.3041C185.734 80.2888 189.161 98.5293 188.632 100.617C188.433 101.408 187.217 102.763 185.941 103.151C183.171 103.997 174.395 103.121 170.654 102.438C169.589 102.242 169.244 101.534 169.244 101.534L170.523 96.9853C170.625 96.6937 170.819 96.4429 171.075 96.2704C171.332 96.0979 171.637 96.013 171.945 96.0282L180.189 96.4665C180.189 96.4665 178.175 82.9284 177.671 80.0143C177.168 77.1001 178.097 74.9643 180.285 74.2213" fill="#2411FF"/>
<path d="M157.8 81.4502L155.929 99.0753L156.192 99.1032L158.063 81.4781L157.8 81.4502Z" fill="#2411FF"/>
<g opacity="0.2">
<path d="M157.8 81.4502L155.929 99.0753L156.192 99.1032L158.063 81.4781L157.8 81.4502Z" fill="#292929"/>
</g>
<path d="M170.644 96.7133L168.04 96.0937L167.199 100.695L170.203 101.408L170.644 96.7133Z" fill="#2411FF"/>
<path opacity="0.2" d="M170.644 96.7133L168.04 96.0937L167.199 100.695L170.203 101.408L170.644 96.7133Z" fill="#292929"/>
<path d="M170.749 96.7964L170.54 96.6302C170.576 96.5874 171.381 95.59 172.409 95.59C173.303 95.59 178.956 96.1894 180.033 96.3053L177.767 81.4751L178.019 81.4373L180.325 96.605L180.154 96.5874C180.086 96.5874 173.356 95.8544 172.386 95.8544C171.51 95.8544 170.757 96.7864 170.749 96.7964Z" fill="#2411FF"/>
<g opacity="0.2">
<path d="M170.749 96.7964L170.54 96.6302C170.576 96.5874 171.381 95.59 172.409 95.59C173.303 95.59 178.956 96.1894 180.033 96.3053L177.767 81.4751L178.019 81.4373L180.325 96.605L180.154 96.5874C180.086 96.5874 173.356 95.8544 172.386 95.8544C171.51 95.8544 170.757 96.7864 170.749 96.7964Z" fill="#292929"/>
</g>
<path d="M169.055 101.408C169.055 101.408 170.092 102.61 170.646 102.839C171.2 103.068 179.207 103.753 184.455 103.411" stroke="#292929" stroke-miterlimit="10"/>
<path d="M153.796 84.9912H132.483C132.341 84.991 132.2 85.0242 132.073 85.0881C131.945 85.152 131.835 85.2449 131.75 85.3592C131.665 85.4736 131.608 85.6063 131.584 85.7466C131.559 85.887 131.568 86.0311 131.609 86.1675L135.973 100.582C136.087 100.957 136.318 101.285 136.633 101.519C136.947 101.753 137.329 101.879 137.721 101.879H160.04L155.256 86.0718C155.163 85.758 154.97 85.4831 154.707 85.2882C154.444 85.0933 154.125 84.9891 153.798 84.9912" fill="#2E3135"/>
<path d="M169.596 100.202H149.303V101.879H169.596C169.676 101.879 169.755 101.863 169.829 101.833C169.903 101.802 169.97 101.757 170.026 101.701C170.082 101.644 170.127 101.577 170.157 101.503C170.188 101.429 170.203 101.35 170.203 101.27V100.809C170.203 100.648 170.139 100.493 170.025 100.38C169.911 100.266 169.757 100.202 169.596 100.202Z" fill="#2E3135"/>
<path d="M152.735 84.9913H131.42C131.278 84.9916 131.138 85.0251 131.011 85.0891C130.884 85.1532 130.774 85.246 130.689 85.3602C130.604 85.4745 130.547 85.6069 130.522 85.7471C130.498 85.8872 130.506 86.0312 130.547 86.1675L134.908 100.582C135.023 100.96 135.256 101.29 135.574 101.524C135.891 101.757 136.276 101.882 136.671 101.879H158.988L154.203 86.0718C154.11 85.7585 153.918 85.4838 153.656 85.289C153.393 85.0941 153.075 84.9897 152.748 84.9913" fill="#262626"/>
<path d="M139.027 89.7692H132.468L131.509 86.4042H138.065L139.027 89.7692Z" fill="#2411FF"/>
<path d="M142.321 94.1266C142.271 93.9367 142.265 93.7376 142.306 93.5453C142.346 93.353 142.431 93.1728 142.553 93.0191C142.675 92.8654 142.832 92.7424 143.01 92.6601C143.189 92.5778 143.384 92.5383 143.58 92.5449C144.026 92.5613 144.454 92.7256 144.797 93.0119C145.14 93.2982 145.378 93.6903 145.473 94.1266C145.524 94.3165 145.529 94.5156 145.489 94.7079C145.449 94.9002 145.364 95.0804 145.242 95.2341C145.119 95.3878 144.963 95.5108 144.784 95.5931C144.606 95.6755 144.411 95.7149 144.214 95.7084C143.768 95.6919 143.34 95.5277 142.997 95.2414C142.655 94.955 142.417 94.5629 142.321 94.1266Z" stroke="#989CA3" stroke-miterlimit="10"/>
<path d="M153.644 97.9903H156.19L156.951 100.381L156.082 100.912L154.773 100.33L153.644 97.9903Z" fill="#292929"/>
<path d="M154.858 100.245L156.077 100.786L156.817 100.33L156.117 98.1036H153.826L154.858 100.245ZM156.094 101.043L154.689 100.421L153.466 97.877H156.276L157.089 100.433L156.082 101.043H156.094Z" fill="black"/>
<path d="M152.156 93.8067H154.702L155.462 96.197L154.594 96.7284L153.284 96.1491L152.156 93.8067Z" fill="#2411FF"/>
<path d="M153.367 96.061L154.586 96.6L155.327 96.1466L154.619 93.9226H152.34L153.37 96.061H153.367ZM154.604 96.8569L153.199 96.2348L151.975 93.6959H154.785L155.598 96.2499L154.591 96.8594L154.604 96.8569Z" fill="black"/>
<path d="M172.449 163.187H153.096C153.009 163.187 152.926 163.153 152.865 163.092C152.804 163.031 152.769 162.949 152.768 162.862C152.773 162.41 152.813 161.96 152.889 161.515C153.141 160.003 153.919 157.948 156.261 157.397C160.075 156.5 161.82 155.13 161.82 155.13C161.82 155.13 162.447 152.309 163.349 152.268C164.25 152.228 164.53 153.749 165.056 154.115C165.582 154.48 166.532 154.51 167.222 154.51C169.586 154.51 170.017 152.966 171.099 153.555C171.691 153.88 172.789 158.845 173.343 161.52C173.373 161.681 173.408 161.829 173.436 161.973C173.468 162.122 173.466 162.276 173.43 162.424C173.394 162.572 173.325 162.709 173.228 162.827C173.131 162.944 173.009 163.038 172.87 163.101C172.732 163.164 172.581 163.195 172.429 163.192" fill="#2411FF"/>
<path d="M172.449 163.187H153.096C153.009 163.187 152.926 163.153 152.865 163.092C152.804 163.031 152.769 162.949 152.768 162.862C152.773 162.41 152.813 161.96 152.889 161.515H173.343C173.373 161.676 173.408 161.824 173.436 161.968C173.468 162.117 173.466 162.271 173.43 162.419C173.394 162.567 173.325 162.704 173.228 162.822C173.131 162.939 173.009 163.033 172.87 163.096C172.732 163.159 172.581 163.19 172.429 163.187" fill="#292929"/>
<path d="M161.491 157.988C161.438 157.992 161.385 157.979 161.339 157.951C161.294 157.923 161.259 157.882 161.239 157.832C160.632 156.455 159.728 156.268 159.678 156.261C159.609 156.249 159.547 156.21 159.507 156.152C159.466 156.095 159.45 156.024 159.462 155.955C159.474 155.885 159.513 155.824 159.571 155.784C159.628 155.743 159.699 155.727 159.768 155.739C159.819 155.739 160.995 155.963 161.722 157.618C161.75 157.683 161.752 157.756 161.726 157.821C161.701 157.887 161.65 157.94 161.586 157.968C161.556 157.981 161.524 157.988 161.491 157.988ZM163.253 157.349C163.2 157.351 163.148 157.336 163.103 157.308C163.058 157.28 163.023 157.239 163.001 157.19C162.397 155.812 161.491 155.628 161.443 155.621C161.374 155.608 161.313 155.569 161.273 155.511C161.233 155.454 161.217 155.383 161.229 155.314C161.233 155.279 161.245 155.246 161.263 155.216C161.281 155.186 161.305 155.16 161.333 155.14C161.361 155.12 161.394 155.106 161.428 155.099C161.462 155.092 161.497 155.092 161.531 155.099C161.581 155.099 162.76 155.321 163.487 156.978C163.505 157.019 163.513 157.064 163.508 157.109C163.504 157.153 163.489 157.196 163.464 157.233C163.439 157.27 163.404 157.3 163.365 157.32C163.325 157.341 163.28 157.35 163.236 157.349H163.253Z" fill="black"/>
<path d="M163.296 150.334L169.634 148.954L169.954 150.596L163.296 150.334Z" fill="#F7A48B"/>
<path d="M139.609 148.989L145.501 151.959L145.902 150.281L139.609 148.989Z" fill="#F7A48B"/>
<g opacity="0.2">
<path d="M167.773 149.359C167.559 148.188 162.546 120.674 163.057 118.203C163.354 116.78 168.536 115.004 173.106 113.44C176.647 112.229 179.988 111.083 180.205 110.395C180.708 108.801 180.132 106.282 180.126 106.257L180.255 106.226C180.28 106.33 180.847 108.806 180.33 110.435C180.094 111.191 176.876 112.289 173.152 113.566C168.619 115.12 163.467 116.881 163.188 118.231C162.684 120.676 167.851 149.05 167.904 149.334L167.773 149.359Z" fill="#292929"/>
</g>
<g opacity="0.2">
<path d="M142.361 149.359L142.23 149.344C142.351 148.145 145.232 119.933 146.511 118.054C147.79 116.175 160.738 107.831 161.287 107.476L161.36 107.587C161.224 107.675 147.878 116.274 146.622 118.127C145.365 119.981 142.391 149.057 142.361 149.359Z" fill="#292929"/>
</g>
<path d="M167.31 75.6267L167.267 75.6065C167.123 75.536 163.724 73.8435 162.923 71.7832L163.175 71.6874C163.893 73.5286 166.952 75.1456 167.348 75.3471C169.923 74.7527 174.874 73.5513 175.488 73.1987C176.161 72.8158 176.055 72.4934 176.055 72.4884L176.307 72.3902C176.307 72.4103 176.518 72.9191 175.627 73.4279C174.821 73.8913 167.672 75.5461 167.368 75.6166L167.31 75.6267Z" fill="#2411FF"/>
<g opacity="0.2">
<path d="M167.31 75.6267L167.267 75.6065C167.123 75.536 163.724 73.8435 162.923 71.7832L163.175 71.6874C163.893 73.5286 166.952 75.1456 167.348 75.3471C169.923 74.7527 174.874 73.5513 175.488 73.1987C176.161 72.8158 176.055 72.4934 176.055 72.4884L176.307 72.3902C176.307 72.4103 176.518 72.9191 175.627 73.4279C174.821 73.8913 167.672 75.5461 167.368 75.6166L167.31 75.6267Z" fill="#292929"/>
</g>
<path d="M165.99 74.0651C165.99 74.0651 165.036 76.2891 164.323 84.9912M169.236 74.5311C170.595 77.8672 171.418 81.3977 171.673 84.9912L169.236 74.5311Z" stroke="black" stroke-miterlimit="10"/>
<path d="M172.26 84.9913C172.26 85.1073 172.226 85.2208 172.161 85.3173C172.097 85.4138 172.005 85.489 171.898 85.5334C171.791 85.5779 171.673 85.5895 171.559 85.5668C171.445 85.5442 171.341 85.4883 171.259 85.4062C171.177 85.3241 171.121 85.2196 171.098 85.1057C171.075 84.9919 171.087 84.8739 171.131 84.7667C171.176 84.6594 171.251 84.5678 171.348 84.5033C171.444 84.4388 171.557 84.4044 171.674 84.4044C171.829 84.4044 171.978 84.4662 172.088 84.5763C172.198 84.6863 172.26 84.8356 172.26 84.9913Z" fill="black"/>
<path d="M164.91 84.9913C164.91 85.1073 164.876 85.2208 164.811 85.3173C164.747 85.4138 164.655 85.489 164.548 85.5334C164.441 85.5779 164.323 85.5895 164.209 85.5668C164.095 85.5442 163.991 85.4883 163.909 85.4062C163.826 85.3241 163.771 85.2196 163.748 85.1057C163.725 84.9919 163.737 84.8739 163.781 84.7667C163.826 84.6594 163.901 84.5678 163.997 84.5033C164.094 84.4388 164.207 84.4044 164.323 84.4044C164.479 84.4051 164.628 84.4671 164.738 84.577C164.847 84.6869 164.909 84.8358 164.91 84.9913Z" fill="black"/>
<path d="M162.095 150.596L161.654 148.339L170.573 146.478L170.81 148.697L162.095 150.596Z" fill="#292929"/>
<path d="M138.524 148.767L138.597 146.083L147.898 148.082L147.438 150.596L138.524 148.767Z" fill="#292929"/>
<path d="M84.3259 164.031H88.2666L101.605 111.158H97.6639L84.3259 164.031Z" fill="#989CA3"/>
<path d="M97.1578 113.166H101.098L101.605 111.158H97.6639L97.1578 113.166Z" fill="#292929"/>
<path d="M203.836 164.031H199.895L186.557 111.158H190.498L203.836 164.031Z" fill="#989CA3"/>
<path d="M191.004 113.166H187.064L186.557 111.158H190.498L191.004 113.166Z" fill="#292929"/>
<path d="M90.4548 101.396H199.571C199.739 101.396 199.875 101.69 199.875 102.058V106.561C199.875 106.927 199.739 107.221 199.571 107.221H90.4548C90.2861 107.221 90.1476 106.927 90.1476 106.561V102.058C90.1476 101.69 90.2861 101.396 90.4548 101.396Z" fill="#E1E1E2"/>
<path d="M92.8796 107.221H197.146V111.158H93.6552C93.2271 111.158 92.8796 110.402 92.8796 109.481V107.214V107.221Z" fill="#C2C4C6"/>
<path fill-rule="evenodd" clip-rule="evenodd" d="M92.8796 107.221H197.146V108.556H92.8796V107.221Z" fill="#989CA3"/>
</svg>
