<svg width="249" height="197" viewBox="0 0 249 197" fill="none" xmlns="http://www.w3.org/2000/svg">
<path d="M158.999 89.9653C160.808 92.0164 162.303 90.7961 162.303 90.7961C162.372 90.75 162.438 90.7009 162.502 90.6519C162.903 90.3372 163.236 89.943 163.478 89.4938C163.721 89.0447 163.869 88.5501 163.913 88.0411C163.957 87.532 163.896 87.0193 163.734 86.5349C163.572 86.0505 163.312 85.6048 162.971 85.2256C160.273 82.2139 154.365 72.7171 154.365 72.7171L150.626 73.0748L158.999 89.9653Z" fill="#E5E5E5"/>
<path opacity="0.2" d="M158.999 89.9653C160.808 92.0164 162.303 90.7961 162.303 90.7961C162.372 90.75 162.438 90.7009 162.502 90.6519C162.903 90.3372 163.236 89.943 163.478 89.4938C163.721 89.0447 163.869 88.5501 163.913 88.0411C163.957 87.532 163.896 87.0193 163.734 86.5349C163.572 86.0505 163.312 85.6048 162.971 85.2256C160.273 82.2139 154.365 72.7171 154.365 72.7171L150.626 73.0748L158.999 89.9653Z" fill="#2411FF"/>
<path d="M51.7206 79.9031V105.085L54.66 106.691V81.6888L51.7206 79.9031Z" fill="#E5E5E5"/>
<path d="M72.9088 66.9562L51.7206 79.9032L54.66 81.6888L75.6698 68.9207L72.9088 66.9562Z" fill="#E5E5E5"/>
<path d="M54.66 106.691L76.2911 94.1021L75.6698 68.9207L54.66 81.6888V106.691Z" fill="#E5E5E5"/>
<path d="M62.5836 94.1915C62.5836 94.1915 60.8896 97.6735 59.9117 98.1206C59.9117 98.1206 67.3896 96.8686 70.2398 83.2956C70.2398 83.2956 70.4181 80.4397 71.6634 79.456C71.6634 79.456 70.1506 79.9926 70.7718 79.0983C70.7718 79.0983 69.6214 79.6752 69.0462 79.5916C69.0462 79.5916 65.3073 79.4675 65.4396 84.7063C65.4496 84.9702 65.3893 85.2319 65.265 85.4647C65.1406 85.6974 64.9567 85.8927 64.7321 86.0304C63.8203 86.5757 62.0746 87.1584 59.4746 86.1228C59.4746 86.1228 58.8217 88.6845 60.1878 89.9336C60.1878 89.9336 60.0095 90.2913 59.0604 90.2913C59.0604 90.2913 59.535 92.4953 61.4936 92.3106C61.4936 92.3106 61.4332 92.9655 60.4237 93.2915C60.4151 93.2972 60.7717 94.4598 62.5836 94.1915Z" fill="#2411FF"/>
<path d="M67.2371 134.429L73.6652 130.52L93.1449 142.166L87.4992 146.057L67.2371 134.429Z" fill="#CCCCCC"/>
<path d="M53.1903 126.726L55.7213 128.111L102.728 100.674L99.8002 98.5563L53.1903 126.726Z" fill="#CCCCCC"/>
<path d="M46.3798 122.229L98.2816 91.7481L100.953 98.9226L54.335 126.726L46.3798 122.229Z" fill="#E5E5E5"/>
<path opacity="0.21" d="M46.3798 122.229L98.2816 91.7481L100.953 98.9226L54.335 126.726L46.3798 122.229Z" fill="#2411FF"/>
<path d="M75.8798 130.52L103.749 114.045C103.749 114.045 103.91 130.575 99.8002 144.096L75.8798 130.52Z" fill="#E5E5E5"/>
<path d="M76.1616 152.352L124.218 179.409L186.951 142.613L169.548 133.116L123.695 159.927L110.844 152.615L103.749 156.699L85.67 146.455L76.1616 152.352Z" fill="#E5E5E5"/>
<path d="M188.97 141.427L124.218 179.408V181.67L188.97 143.571V141.427Z" fill="#3F3D56"/>
<path d="M66.6993 147.027L124.218 179.408V181.67L66.6993 149.285V147.027Z" fill="#3F3D56"/>
<path opacity="0.2" d="M66.6993 147.027L124.218 179.408V181.67L66.6993 149.285V147.027Z" fill="#2411FF"/>
<path d="M169.548 133.116L186.951 142.613L188.97 141.427L171.944 131.717L169.548 133.116Z" fill="#3F3D56"/>
<path opacity="0.2" d="M169.548 133.116L186.951 142.613L188.97 141.427L171.944 131.717L169.548 133.116Z" fill="#2411FF"/>
<path d="M182.83 118.833L186.413 120.902L144.753 145.362V139.665L140.235 137.164C140.526 134.395 140.982 131.647 141.601 128.933C142.176 126.36 142.524 124.144 143.583 121.912L145.403 119.402C145.403 119.402 159.35 127.191 166.563 122.027C166.563 122.027 170.244 119.607 169.258 110.993L182.83 118.833Z" fill="#E5E5E5"/>
<path d="M168.973 107.903L188.97 119.402L186.413 120.902L169.258 110.993L168.973 107.903Z" fill="#E5E5E5"/>
<path d="M145.403 119.402C145.403 119.402 160.563 127.768 167.21 121.479C167.21 121.479 171.098 118.109 168.846 106.244C168.846 106.244 167.46 95.1176 165.165 90.7961C165.165 90.7961 160.463 95.1637 153.609 93.6809C153.609 93.6809 152.746 107.493 154.285 110.99L148.075 108.065" fill="#060606"/>
<path d="M133.002 86.4228C133.002 86.4228 139.939 86.2064 144.273 90.7961L132.409 107.496L120.361 97.1369C120.361 97.1369 122.625 95.0079 122.202 91.7481C122.202 91.7481 126.191 95.6368 130.781 92.3914C130.781 92.3914 133.778 90.7817 133.002 86.4228Z" fill="#060606"/>
<path d="M128.981 70.7295L133.007 86.4228C133.893 90.15 131.282 93.153 127.488 93.655C124.779 94.0156 121.374 91.777 120.134 89.3278L117.258 83.6505L116.683 74.1941L128.981 70.7295Z" fill="#F9B499"/>
<path d="M149.269 87.2334C149.269 87.2334 146.617 86.2728 146.217 88.2835C146.111 88.8724 146.234 89.4798 146.562 89.9797C147.253 91.0731 149.001 93.3434 152.43 95.0887C152.43 95.0887 156.626 97.7629 158.996 95.8445C158.996 95.8445 160.031 93.9233 157.296 91.7712L149.269 87.2334Z" fill="#2411FF"/>
<path opacity="0.2" d="M149.269 87.2334C149.269 87.2334 146.617 86.2728 146.217 88.2835C146.111 88.8724 146.234 89.4798 146.562 89.9797C147.253 91.0731 149.001 93.3434 152.43 95.0887C152.43 95.0887 156.626 97.7629 158.996 95.8445C158.996 95.8445 160.031 93.9233 157.296 91.7712L149.269 87.2334Z" fill="#2411FF"/>
<path d="M148.791 88.7422C148.791 88.7422 150.037 93.029 156.683 94.2233C156.683 94.2233 163.057 86.0506 166.675 81.9744C166.981 81.6298 167.158 81.1885 167.174 80.727C167.191 80.2655 167.046 79.8128 166.764 79.4473L161.823 73.0373C161.539 72.668 161.133 72.4115 160.678 72.3133C160.224 72.2151 159.749 72.2815 159.338 72.5008C157.63 73.4037 154.863 75.4231 152.786 79.6147C152.558 80.0739 152.365 80.5504 152.211 81.0398C151.699 82.6754 150.227 87.0632 148.791 88.7422Z" fill="#F9B499"/>
<path d="M172.234 73.147C173.672 73.8653 165.76 73.0777 164.25 72.9018C163.963 72.87 163.675 72.821 163.405 72.7691C159.042 71.9296 155.892 72.7142 154.397 73.2595C154.047 73.3916 153.666 73.4217 153.3 73.3461C152.934 73.2706 152.596 73.0925 152.326 72.8325C149.309 69.8554 149.718 63.9733 150.068 61.4116C150.148 60.8088 150.395 60.2404 150.78 59.7708C151.165 59.3012 151.674 58.9492 152.248 58.7547H152.292C152.292 58.7547 157.336 56.2997 162.786 50.7725C162.786 50.7725 165.22 48.3319 166.94 47.7348C166.94 47.7348 164.282 48.7214 165.237 60.0067C165.269 60.3776 165.322 60.7465 165.395 61.1116C165.849 63.3473 167.656 70.8766 172.234 73.147Z" fill="#E5E5E5"/>
<path d="M173.684 73.2471C176.849 72.6369 178.275 66.1924 176.868 58.8529C175.462 51.5134 171.756 46.0582 168.591 46.6684C165.426 47.2786 164 53.7231 165.407 61.0626C166.813 68.4021 170.519 73.8572 173.684 73.2471Z" fill="#E5E5E5"/>
<path d="M152.835 73.2739L150.247 73.3777C146.968 72.3738 147.256 62.9059 147.256 62.9059C147.256 61.8356 150.255 60.7048 150.255 60.7048C150.255 60.7048 148.271 69.3765 152.835 73.2739Z" fill="#E5E5E5"/>
<path d="M177.693 103.388V78.2069L199.416 90.7961V116.246L177.693 103.388Z" fill="#E5E5E5"/>
<path d="M181.257 75.8846L177.693 78.2069L199.416 90.7961L202.62 88.5662L181.257 75.8846Z" fill="#E5E5E5"/>
<path d="M199.416 116.246L202.62 114.102V88.5662L199.416 90.7961V116.246Z" fill="#E5E5E5"/>
<path d="M189.177 105.442L189.221 105.468C189.913 105.904 190.7 106.164 191.514 106.227C192.329 106.29 193.147 106.153 193.897 105.829C196.632 104.62 196.399 101.502 196.299 100.757C196.278 100.607 196.261 100.469 196.247 100.304C195.473 92.7232 187.368 87.6113 187.368 87.6113C181.671 85.2314 180.84 91.65 180.84 91.65C179.534 99.7477 186.894 104.51 186.894 104.51L187.181 98.3341L185.26 97.5062L185.438 95.4522L187.086 96.1676C187.086 96.1676 186.419 90.8538 190.158 92.9078L191.806 94.0242L191.76 95.7205C191.76 95.7205 189.712 94.1137 189.712 96.032L189.623 97.685L191.45 98.8389L191.271 100.893L189.445 99.9554L189.177 105.442Z" fill="#2411FF"/>
<path d="M139.689 148.163C139.47 132.444 143.583 121.912 143.583 121.912L102.823 101.256C106.061 120.397 99.8002 144.096 99.8002 144.096L123.695 157.729L139.689 148.163Z" fill="#060606"/>
<path d="M66.6993 125.298L123.695 157.729V159.927L66.6993 127.497V125.298Z" fill="#E5E5E5"/>
<path opacity="0.2" d="M66.6993 125.298L123.695 157.729V159.927L66.6993 127.497V125.298Z" fill="#2411FF"/>
<path d="M103.228 104.049L66.7021 125.298L74.5165 129.744L103.749 112.435C103.749 112.435 103.631 106.856 103.228 104.049Z" fill="#E5E5E5"/>
<path d="M75.8797 130.52L103.749 114.045C103.749 114.045 103.749 113.179 103.749 112.438L74.5165 129.747L75.8797 130.52Z" fill="#E5E5E5"/>
<path opacity="0.2" d="M75.8797 130.52L103.749 114.045C103.749 114.045 103.749 113.179 103.749 112.438L74.5165 129.747L75.8797 130.52Z" fill="#2411FF"/>
<path d="M188.97 119.402L123.695 157.729V159.927L188.97 121.759V119.402Z" fill="#E5E5E5"/>
<path opacity="0.2" d="M188.97 119.402L123.695 157.729V159.927L188.97 121.759V119.402Z" fill="#2411FF"/>
<path d="M158.702 91.6587C158.702 91.6587 159.801 92.0626 161.371 91.1567C161.371 91.1567 160.189 91.1077 159.594 90.5365L158.702 91.6587Z" fill="#3F3D56"/>
<path d="M163.488 89.4893C163.488 89.4893 165.844 89.5759 165.165 90.7961C165.165 90.7961 163.12 92.8963 158.935 93.7559C158.721 93.2811 158.429 92.8453 158.073 92.4664L158.714 91.6587C158.714 91.6587 161.242 92.2905 163.488 89.4893Z" fill="#2411FF"/>
<path opacity="0.2" d="M163.488 89.4893C163.488 89.4893 165.844 89.5759 165.165 90.7961C165.165 90.7961 163.12 92.8963 158.935 93.7559C158.721 93.2811 158.429 92.8453 158.073 92.4664L158.714 91.6587C158.714 91.6587 161.242 92.2905 163.488 89.4893Z" fill="#2411FF"/>
<path d="M126.415 153.036V131.426L142.795 140.536V162.146L126.415 153.036Z" fill="#E5E5E5"/>
<path d="M144.753 139.665L142.795 140.536V162.146L144.753 160.804V139.665Z" fill="#E5E5E5"/>
<path d="M128.078 130.171L126.415 131.426L142.795 140.536L144.753 139.665L128.078 130.171Z" fill="#E5E5E5"/>
<path d="M129.619 141.696C129.619 141.696 129.55 140.285 131.098 140.412C131.457 140.445 131.805 140.558 132.116 140.741L138.521 144.376C138.521 144.376 140.658 145.446 140.569 148.841L140.37 152.245C140.363 152.471 140.304 152.692 140.199 152.892C140.094 153.092 139.945 153.265 139.763 153.399C139.335 153.688 138.633 153.846 137.543 153.22C137.543 153.22 132.009 150.047 130.051 147.863C130.051 147.863 129.605 147.684 129.559 145.945L129.619 141.696Z" fill="#2411FF"/>
<path d="M134.161 147.99V144.955L136.163 147.456L134.161 147.99Z" fill="#E5E5E5"/>
<path d="M76.5873 141.309L66.6993 147.027L74.8127 151.593L84.5713 145.656L76.5873 141.309Z" fill="#E5E5E5"/>
<path d="M76.1616 152.352L85.67 146.455L84.5713 145.656L74.8127 151.593L76.1616 152.352Z" fill="#E5E5E5"/>
<path opacity="0.2" d="M76.1616 152.352L85.67 146.455L84.5713 145.656L74.8127 151.593L76.1616 152.352Z" fill="#2411FF"/>
<path d="M46.3798 124.193L103.749 156.699V154.645L46.3798 122.229V124.193Z" fill="#3F3D56"/>
<path opacity="0.2" d="M46.3798 124.193L103.749 156.699V154.645L46.3798 122.229V124.193Z" fill="#2411FF"/>
<path d="M109.053 151.593C108.765 151.423 103.749 154.645 103.749 154.645V156.699L110.844 152.606L109.053 151.593Z" fill="#CCCCCC"/>
<path opacity="0.2" d="M86.0093 144.621L91.1863 141.427L92.4834 142.166L87.4992 145.463L86.0093 144.621Z" fill="#2411FF"/>
<path d="M68.0223 51.0984V84.9083L93.6597 69.8294L93.2024 36.4437L68.0223 51.0984Z" fill="#E5E5E5"/>
<path d="M65.477 79.0983V49.1945L90.6514 34.5887L93.2025 36.4437L68.0223 51.0984V84.9083L65.477 83.9448V79.0983Z" fill="#E5E5E5"/>
<path d="M76.1357 65.1964L75.7331 55.6477C75.7138 55.1973 75.8218 54.7506 76.0447 54.3591C76.2676 53.9676 76.5963 53.6473 76.9928 53.4351L84.3009 49.5175C84.6575 49.3265 85.0567 49.2295 85.4609 49.2358C85.8651 49.242 86.2611 49.3512 86.6116 49.5531C86.9622 49.755 87.2558 50.043 87.4649 50.39C87.674 50.7371 87.7917 51.1317 87.8069 51.5369L88.1923 61.3077C88.2105 61.7654 88.097 62.2187 87.8655 62.6136C87.634 63.0085 87.2942 63.3282 86.8866 63.5348L79.5957 67.236C79.2392 67.4171 78.8432 67.5055 78.4438 67.493C78.0444 67.4804 77.6546 67.3675 77.3101 67.1644C76.9657 66.9614 76.6776 66.6747 76.4724 66.3308C76.2672 65.987 76.1514 65.5969 76.1357 65.1964Z" fill="#2411FF"/>
<path d="M82.0691 61.8933C83.5765 61.8933 84.7985 60.6676 84.7985 59.1557C84.7985 57.6437 83.5765 56.418 82.0691 56.418C80.5617 56.418 79.3397 57.6437 79.3397 59.1557C79.3397 60.6676 80.5617 61.8933 82.0691 61.8933Z" fill="#E5E5E5"/>
<path d="M85.3651 52.6735C85.678 52.6735 85.9317 52.4191 85.9317 52.1052C85.9317 51.7914 85.678 51.5369 85.3651 51.5369C85.0522 51.5369 84.7985 51.7914 84.7985 52.1052C84.7985 52.4191 85.0522 52.6735 85.3651 52.6735Z" fill="#E5E5E5"/>
<path d="M116.654 15.3298L130.781 38.013L140.572 32.2694L143.151 39.2737L146.482 29.4509L157.474 23.1996L116.654 15.3298Z" fill="#E5E5E5"/>
<path d="M137.75 34.4503L143.151 39.2736L140.572 32.2693L137.463 34.0925L137.75 34.4503Z" fill="#CCCCCC"/>
<path opacity="0.2" d="M137.75 34.4503L143.151 39.2736L140.572 32.2693L137.463 34.0925L137.75 34.4503Z" fill="#E5E5E5"/>
<path opacity="0.2" d="M140.572 32.2694L117.002 15.5375L146.482 29.4509L143.151 39.2737L140.572 32.2694Z" fill="#2411FF"/>
<path d="M81.9943 126.905L86.4407 129.017V127.499L83.5445 125.988L81.9943 126.905Z" fill="#E5E5E5"/>
<path d="M97.3037 121.479L86.4407 127.499V129.017L97.3037 123.213V121.479Z" fill="#E5E5E5"/>
<path d="M87.4991 145.463L92.4834 142.166L109.053 151.593L103.749 154.645L87.4991 145.463Z" fill="#E5E5E5"/>
<path d="M73.3517 131.273L66.7511 127.517V125.316L103.277 104.069L102.872 101.265L101.664 100.705L55.7213 127.499L67.9821 134.429L73.3517 131.273Z" fill="#E5E5E5"/>
<path opacity="0.21" d="M73.3517 131.273L66.7511 127.517V125.316L103.277 104.069L102.872 101.265L101.664 100.705L55.7213 127.499L67.9821 134.429L73.3517 131.273Z" fill="#2411FF"/>
<path d="M132.409 107.496L120.361 97.1369C120.361 97.1369 108.512 85.6843 103.427 94.982C103.427 94.982 98.8251 102.257 110.925 113.445C110.925 113.445 125.751 130.465 133.174 128.327C133.174 128.327 138.107 129.161 144.635 120.59C144.635 120.59 156.14 102.849 158.999 95.8244C158.999 95.8244 156.505 98.562 149.62 92.9684C149.62 92.9684 145.349 89.3941 146.534 87.6085L132.409 107.496Z" fill="#2411FF"/>
<path d="M94.3443 119.604L97.3037 121.479L86.4408 127.499L83.5446 125.988L94.3443 119.604Z" fill="#E5E5E5"/>
<path d="M103.226 66.6388C103.226 66.6388 95.417 45.476 118.181 40.3122C118.181 40.3122 134.31 38.2034 138.941 54.1592C138.941 54.1592 140.347 57.6642 139.516 63.7685C139.516 63.7685 137.037 53.7438 128.132 52.7024C128.132 52.7024 120.655 51.811 117.98 61.9741C117.98 61.9741 117.39 64.8358 117.5 66.6388L116.637 74.1999C116.637 74.1999 119.01 77.2261 118.475 85.0842C118.475 85.0842 125.507 91.5145 120.344 97.1398C120.344 97.1398 114.73 91.6212 109.297 91.451C107.968 91.4052 106.658 91.7809 105.553 92.5246C104.449 93.2682 103.606 94.3421 103.145 95.5936C102.633 96.9638 102.345 98.8303 102.806 101.248C102.806 101.248 90.9648 97.1398 99.9555 84.1034C99.9727 84.1005 92.4115 75.0682 103.226 66.6388Z" fill="black"/>
<path d="M117.488 74.1198C119.225 73.7186 120.261 71.7723 119.802 69.7726C119.342 67.7728 117.562 66.477 115.825 66.8782C114.089 67.2794 113.053 69.2257 113.512 71.2255C113.971 73.2252 115.752 74.521 117.488 74.1198Z" fill="#F9B499"/>
<path d="M133.002 86.4228L132.188 83.2495C132.188 83.2495 124.894 83.9419 121.693 78.8156C121.693 78.8098 122.375 84.9083 133.002 86.4228Z" fill="#F4A48E"/>
<path d="M131.755 83.1021C137.87 81.913 141.505 74.1128 139.875 65.6799C138.245 57.247 131.967 51.3746 125.853 52.5637C119.738 53.7528 116.103 61.5529 117.733 69.9859C119.363 78.4188 125.641 84.2911 131.755 83.1021Z" fill="#F9B499"/>
</svg>
