<svg width="237" height="185" viewBox="0 0 237 185" fill="none" xmlns="http://www.w3.org/2000/svg">
<path d="M171.495 136.673H119.984L119.481 136.172L119.207 135.901H102.706L102.54 136.172L102.138 136.822H50.396L71.1048 113.773L150.683 113.77L171.495 136.673Z" fill="#1C1C1C"/>
<path opacity="0.4" d="M171.495 136.673H119.984L119.481 136.172L119.207 135.901H102.706L102.54 136.172L102.138 136.822H50.396L71.1048 113.773L150.683 113.77L171.495 136.673Z" fill="black"/>
<path d="M50.3988 136.808V138.277C50.398 138.404 50.4225 138.53 50.4709 138.647C50.5192 138.765 50.5903 138.872 50.6803 138.962C50.7702 139.052 50.8771 139.124 50.9949 139.173C51.1127 139.221 51.239 139.246 51.3665 139.246H170.12C170.482 139.247 170.83 139.105 171.087 138.852C171.345 138.598 171.492 138.253 171.495 137.892V136.684H119.984L119.207 135.909H102.709L102.138 136.827L50.3988 136.808Z" fill="white"/>
<path d="M72.3852 61.7181H149.487C149.827 61.7181 150.152 61.8526 150.392 62.0919C150.633 62.3312 150.767 62.6557 150.767 62.9941V113.781H71.1184V62.9968C71.1177 62.6603 71.2504 62.3371 71.4876 62.0976C71.7249 61.8581 72.0475 61.7217 72.3852 61.7181V61.7181Z" fill="white"/>
<path d="M148.935 64.755H72.8962C72.7251 64.755 72.5863 64.8933 72.5863 65.0638V111.752C72.5863 111.923 72.7251 112.061 72.8962 112.061H148.935C149.106 112.061 149.245 111.923 149.245 111.752V65.0638C149.245 64.8933 149.106 64.755 148.935 64.755Z" fill="black"/>
<path d="M144.423 67.0821V108.406C144.423 108.506 144.404 108.604 144.366 108.696C144.328 108.788 144.272 108.871 144.201 108.942C144.131 109.012 144.047 109.068 143.955 109.105C143.863 109.143 143.764 109.163 143.664 109.162H78.2025C78.1031 109.162 78.0046 109.143 77.9127 109.105C77.8208 109.067 77.7374 109.011 77.6672 108.941C77.597 108.87 77.5414 108.787 77.5036 108.695C77.4657 108.604 77.4465 108.505 77.4468 108.406V67.0821C77.4475 66.8828 77.5275 66.692 77.6691 66.5513C77.8108 66.4107 78.0026 66.3317 78.2025 66.3317H143.664C143.864 66.3317 144.057 66.4106 144.199 66.5512C144.341 66.6917 144.421 66.8826 144.423 67.0821Z" fill="white"/>
<path opacity="0.4" d="M144.423 67.0821V68.8891H77.4468V67.0821C77.4475 66.8828 77.5275 66.692 77.6691 66.5513C77.8108 66.4107 78.0026 66.3317 78.2025 66.3317H143.664C143.864 66.3317 144.057 66.4106 144.199 66.5512C144.341 66.6917 144.421 66.8826 144.423 67.0821Z" fill="#303030"/>
<path d="M78.5478 67.9355C78.7925 67.9355 78.9909 67.7378 78.9909 67.4939C78.9909 67.25 78.7925 67.0523 78.5478 67.0523C78.3031 67.0523 78.1047 67.25 78.1047 67.4939C78.1047 67.7378 78.3031 67.9355 78.5478 67.9355Z" fill="#1C1C1C"/>
<path d="M80.293 67.9355C80.5377 67.9355 80.7361 67.7378 80.7361 67.4939C80.7361 67.25 80.5377 67.0523 80.293 67.0523C80.0483 67.0523 79.8499 67.25 79.8499 67.4939C79.8499 67.7378 80.0483 67.9355 80.293 67.9355Z" fill="white"/>
<path d="M81.886 67.9355C82.1307 67.9355 82.3291 67.7378 82.3291 67.4939C82.3291 67.25 82.1307 67.0523 81.886 67.0523C81.6413 67.0523 81.4429 67.25 81.4429 67.4939C81.4429 67.7378 81.6413 67.9355 81.886 67.9355Z" fill="#303030"/>
<path opacity="0.4" d="M84.6832 71.758H83.1772C83.1352 71.758 83.1011 71.7919 83.1011 71.8338V73.3346C83.1011 73.3765 83.1352 73.4105 83.1772 73.4105H84.6832C84.7252 73.4105 84.7593 73.3765 84.7593 73.3346V71.8338C84.7593 71.7919 84.7252 71.758 84.6832 71.758Z" fill="#2411FF"/>
<path opacity="0.75" d="M88.0377 71.758H85.8113C85.7693 71.758 85.7352 71.7919 85.7352 71.8338V73.3346C85.7352 73.3765 85.7693 73.4105 85.8113 73.4105H88.0377C88.0798 73.4105 88.1138 73.3765 88.1138 73.3346V71.8338C88.1138 71.7919 88.0798 71.758 88.0377 71.758Z" fill="#2411FF"/>
<path d="M84.6832 81.302H83.1772C83.1352 81.302 83.1011 81.336 83.1011 81.3779V82.8787C83.1011 82.9206 83.1352 82.9546 83.1772 82.9546H84.6832C84.7252 82.9546 84.7593 82.9206 84.7593 82.8787V81.3779C84.7593 81.336 84.7252 81.302 84.6832 81.302Z" fill="#2411FF"/>
<path d="M88.0377 81.302H85.8113C85.7693 81.302 85.7352 81.336 85.7352 81.3779V82.8787C85.7352 82.9206 85.7693 82.9546 85.8113 82.9546H88.0377C88.0798 82.9546 88.1138 82.9206 88.1138 82.8787V81.3779C88.1138 81.336 88.0798 81.302 88.0377 81.302Z" fill="white"/>
<path opacity="0.4" d="M84.6832 84.45H83.1772C83.1352 84.45 83.1011 84.4839 83.1011 84.5258V86.0267C83.1011 86.0685 83.1352 86.1025 83.1772 86.1025H84.6832C84.7252 86.1025 84.7593 86.0685 84.7593 86.0267V84.5258C84.7593 84.4839 84.7252 84.45 84.6832 84.45Z" fill="#2411FF"/>
<path d="M92.0338 84.45H88.8641C88.8221 84.45 88.788 84.4839 88.788 84.5258V86.0267C88.788 86.0685 88.8221 86.1025 88.8641 86.1025H92.0338C92.0758 86.1025 92.1099 86.0685 92.1099 86.0267V84.5258C92.1099 84.4839 92.0758 84.45 92.0338 84.45Z" fill="#2411FF"/>
<path d="M84.6832 87.7469H83.1772C83.1352 87.7469 83.1011 87.7809 83.1011 87.8228V89.3236C83.1011 89.3655 83.1352 89.3995 83.1772 89.3995H84.6832C84.7252 89.3995 84.7593 89.3655 84.7593 89.3236V87.8228C84.7593 87.7809 84.7252 87.7469 84.6832 87.7469Z" fill="#2411FF"/>
<path opacity="0.75" d="M90.1689 87.7469H86.9993C86.9572 87.7469 86.9232 87.7809 86.9232 87.8228V89.3236C86.9232 89.3655 86.9572 89.3995 86.9993 89.3995H90.1689C90.211 89.3995 90.2451 89.3655 90.2451 89.3236V87.8228C90.2451 87.7809 90.211 87.7469 90.1689 87.7469Z" fill="#2411FF"/>
<g opacity="0.4">
<path d="M84.6832 100.482H83.1772C83.1352 100.482 83.1011 100.516 83.1011 100.558V102.059C83.1011 102.101 83.1352 102.135 83.1772 102.135H84.6832C84.7252 102.135 84.7593 102.101 84.7593 102.059V100.558C84.7593 100.516 84.7252 100.482 84.6832 100.482Z" fill="#2411FF"/>
<path d="M90.1689 100.482H86.9993C86.9572 100.482 86.9232 100.516 86.9232 100.558V102.059C86.9232 102.101 86.9572 102.135 86.9993 102.135H90.1689C90.211 102.135 90.2451 102.101 90.2451 102.059V100.558C90.2451 100.516 90.211 100.482 90.1689 100.482Z" fill="#2411FF"/>
</g>
<g opacity="0.4">
<path d="M84.6832 103.638H83.1772C83.1352 103.638 83.1011 103.672 83.1011 103.714V105.215C83.1011 105.257 83.1352 105.291 83.1772 105.291H84.6832C84.7252 105.291 84.7593 105.257 84.7593 105.215V103.714C84.7593 103.672 84.7252 103.638 84.6832 103.638Z" fill="#2411FF"/>
<path d="M90.1689 103.638H86.9993C86.9572 103.638 86.9232 103.672 86.9232 103.714V105.215C86.9232 105.257 86.9572 105.291 86.9993 105.291H90.1689C90.211 105.291 90.2451 105.257 90.2451 105.215V103.714C90.2451 103.672 90.211 103.638 90.1689 103.638Z" fill="#2411FF"/>
</g>
<path d="M84.6832 106.99H83.1772C83.1352 106.99 83.1011 107.023 83.1011 107.065V108.566C83.1011 108.608 83.1352 108.642 83.1772 108.642H84.6832C84.7252 108.642 84.7593 108.608 84.7593 108.566V107.065C84.7593 107.023 84.7252 106.99 84.6832 106.99Z" fill="#2411FF"/>
<path d="M88.0567 106.99H85.8059C85.7638 106.99 85.7298 107.023 85.7298 107.065V108.566C85.7298 108.608 85.7638 108.642 85.8059 108.642H88.0567C88.0988 108.642 88.1328 108.608 88.1328 108.566V107.065C88.1328 107.023 88.0988 106.99 88.0567 106.99Z" fill="white"/>
<path opacity="0.4" d="M84.6832 90.8461H83.1772C83.1352 90.8461 83.1011 90.8801 83.1011 90.922V92.4228C83.1011 92.4647 83.1352 92.4987 83.1772 92.4987H84.6832C84.7252 92.4987 84.7593 92.4647 84.7593 92.4228V90.922C84.7593 90.8801 84.7252 90.8461 84.6832 90.8461Z" fill="#2411FF"/>
<path d="M90.1689 90.8461H86.9993C86.9572 90.8461 86.9232 90.8801 86.9232 90.922V92.4228C86.9232 92.4647 86.9572 92.4987 86.9993 92.4987H90.1689C90.211 92.4987 90.2451 92.4647 90.2451 92.4228V90.922C90.2451 90.8801 90.211 90.8461 90.1689 90.8461Z" fill="#2411FF"/>
<path opacity="0.75" d="M100.828 90.8461H91.0687C91.0267 90.8461 90.9926 90.8801 90.9926 90.922V92.4228C90.9926 92.4647 91.0267 92.4987 91.0687 92.4987H100.828C100.87 92.4987 100.904 92.4647 100.904 92.4228V90.922C100.904 90.8801 100.87 90.8461 100.828 90.8461Z" fill="#2411FF"/>
<path d="M111.571 90.8461H101.812C101.77 90.8461 101.736 90.8801 101.736 90.922V92.4228C101.736 92.4647 101.77 92.4987 101.812 92.4987H111.571C111.613 92.4987 111.647 92.4647 111.647 92.4228V90.922C111.647 90.8801 111.613 90.8461 111.571 90.8461Z" fill="white"/>
<path opacity="0.75" d="M117.608 90.8461H112.558C112.516 90.8461 112.482 90.8801 112.482 90.922V92.4228C112.482 92.4647 112.516 92.4987 112.558 92.4987H117.608C117.65 92.4987 117.685 92.4647 117.685 92.4228V90.922C117.685 90.8801 117.65 90.8461 117.608 90.8461Z" fill="#2411FF"/>
<g opacity="0.4">
<path d="M84.6832 94.1403H83.1772C83.1352 94.1403 83.1011 94.1743 83.1011 94.2162V95.717C83.1011 95.7589 83.1352 95.7929 83.1772 95.7929H84.6832C84.7252 95.7929 84.7593 95.7589 84.7593 95.717V94.2162C84.7593 94.1743 84.7252 94.1403 84.6832 94.1403Z" fill="#2411FF"/>
<path d="M90.1689 94.1403H86.9993C86.9572 94.1403 86.9232 94.1743 86.9232 94.2162V95.717C86.9232 95.7589 86.9572 95.7929 86.9993 95.7929H90.1689C90.211 95.7929 90.2451 95.7589 90.2451 95.717V94.2162C90.2451 94.1743 90.211 94.1403 90.1689 94.1403Z" fill="#2411FF"/>
<path d="M100.828 94.1403H91.0687C91.0267 94.1403 90.9926 94.1743 90.9926 94.2162V95.717C90.9926 95.7589 91.0267 95.7929 91.0687 95.7929H100.828C100.87 95.7929 100.904 95.7589 100.904 95.717V94.2162C100.904 94.1743 100.87 94.1403 100.828 94.1403Z" fill="#2411FF"/>
<path d="M111.571 94.1403H101.812C101.77 94.1403 101.736 94.1743 101.736 94.2162V95.717C101.736 95.7589 101.77 95.7929 101.812 95.7929H111.571C111.613 95.7929 111.647 95.7589 111.647 95.717V94.2162C111.647 94.1743 111.613 94.1403 111.571 94.1403Z" fill="#2411FF"/>
<path d="M117.608 94.1403H112.558C112.516 94.1403 112.482 94.1743 112.482 94.2162V95.717C112.482 95.7589 112.516 95.7929 112.558 95.7929H117.608C117.65 95.7929 117.685 95.7589 117.685 95.717V94.2162C117.685 94.1743 117.65 94.1403 117.608 94.1403Z" fill="#2411FF"/>
</g>
<path d="M84.6832 97.188H83.1772C83.1352 97.188 83.1011 97.222 83.1011 97.2639V98.7647C83.1011 98.8066 83.1352 98.8406 83.1772 98.8406H84.6832C84.7252 98.8406 84.7593 98.8066 84.7593 98.7647V97.2639C84.7593 97.222 84.7252 97.188 84.6832 97.188Z" fill="#2411FF"/>
<path opacity="0.75" d="M90.1689 97.188H86.9993C86.9572 97.188 86.9232 97.222 86.9232 97.2639V98.7647C86.9232 98.8066 86.9572 98.8406 86.9993 98.8406H90.1689C90.211 98.8406 90.2451 98.8066 90.2451 98.7647V97.2639C90.2451 97.222 90.211 97.188 90.1689 97.188Z" fill="#2411FF"/>
<path d="M100.828 97.188H91.0687C91.0267 97.188 90.9926 97.222 90.9926 97.2639V98.7647C90.9926 98.8066 91.0267 98.8406 91.0687 98.8406H100.828C100.87 98.8406 100.904 98.8066 100.904 98.7647V97.2639C100.904 97.222 100.87 97.188 100.828 97.188Z" fill="white"/>
<path d="M111.571 97.188H101.812C101.77 97.188 101.736 97.222 101.736 97.2639V98.7647C101.736 98.8066 101.77 98.8406 101.812 98.8406H111.571C111.613 98.8406 111.647 98.8066 111.647 98.7647V97.2639C111.647 97.222 111.613 97.188 111.571 97.188Z" fill="#2411FF"/>
<path d="M117.608 97.188H112.558C112.516 97.188 112.482 97.222 112.482 97.2639V98.7647C112.482 98.8066 112.516 98.8406 112.558 98.8406H117.608C117.65 98.8406 117.685 98.8066 117.685 98.7647V97.2639C117.685 97.222 117.65 97.188 117.608 97.188Z" fill="white"/>
<path d="M107.708 71.758H88.8261C88.784 71.758 88.7499 71.7919 88.7499 71.8338V73.3346C88.7499 73.3765 88.784 73.4105 88.8261 73.4105H107.708C107.75 73.4105 107.784 73.3765 107.784 73.3346V71.8338C107.784 71.7919 107.75 71.758 107.708 71.758Z" fill="white"/>
<path opacity="0.4" d="M84.6832 74.8653H83.1772C83.1352 74.8653 83.1011 74.8993 83.1011 74.9411V76.442C83.1011 76.4839 83.1352 76.5178 83.1772 76.5178H84.6832C84.7252 76.5178 84.7593 76.4839 84.7593 76.442V74.9411C84.7593 74.8993 84.7252 74.8653 84.6832 74.8653Z" fill="#2411FF"/>
<path opacity="0.75" d="M90.2559 74.8653H87.3173C87.2753 74.8653 87.2412 74.8993 87.2412 74.9411V76.442C87.2412 76.4839 87.2753 76.5178 87.3173 76.5178H90.2559C90.298 76.5178 90.332 76.4839 90.332 76.442V74.9411C90.332 74.8993 90.298 74.8653 90.2559 74.8653Z" fill="#2411FF"/>
<path opacity="0.75" d="M117.608 74.8653H113.294C113.252 74.8653 113.218 74.8993 113.218 74.9411V76.442C113.218 76.4839 113.252 76.5178 113.294 76.5178H117.608C117.65 76.5178 117.685 76.4839 117.685 76.442V74.9411C117.685 74.8993 117.65 74.8653 117.608 74.8653Z" fill="#2411FF"/>
<path d="M129.325 74.8653H118.582C118.54 74.8653 118.506 74.8993 118.506 74.9411V76.442C118.506 76.4839 118.54 76.5178 118.582 76.5178H129.325C129.367 76.5178 129.401 76.4839 129.401 76.442V74.9411C129.401 74.8993 129.367 74.8653 129.325 74.8653Z" fill="white"/>
<path d="M112.403 74.8653H91.0687C91.0267 74.8653 90.9926 74.8993 90.9926 74.9411V76.442C90.9926 76.4839 91.0267 76.5178 91.0687 76.5178H112.403C112.445 76.5178 112.479 76.4839 112.479 76.442V74.9411C112.479 74.8993 112.445 74.8653 112.403 74.8653Z" fill="#2411FF"/>
<path opacity="0.4" d="M84.6832 78.1568H83.1772C83.1352 78.1568 83.1011 78.1908 83.1011 78.2327V79.7335C83.1011 79.7754 83.1352 79.8093 83.1772 79.8093H84.6832C84.7252 79.8093 84.7593 79.7754 84.7593 79.7335V78.2327C84.7593 78.1908 84.7252 78.1568 84.6832 78.1568Z" fill="#2411FF"/>
<path opacity="0.75" d="M90.2559 78.1568H87.3173C87.2753 78.1568 87.2412 78.1908 87.2412 78.2327V79.7335C87.2412 79.7754 87.2753 79.8093 87.3173 79.8093H90.2559C90.298 79.8093 90.332 79.7754 90.332 79.7335V78.2327C90.332 78.1908 90.298 78.1568 90.2559 78.1568Z" fill="#2411FF"/>
<path opacity="0.75" d="M117.608 78.1568H113.294C113.252 78.1568 113.218 78.1908 113.218 78.2327V79.7335C113.218 79.7754 113.252 79.8093 113.294 79.8093H117.608C117.65 79.8093 117.685 79.7754 117.685 79.7335V78.2327C117.685 78.1908 117.65 78.1568 117.608 78.1568Z" fill="#2411FF"/>
<path d="M129.325 78.1568H118.582C118.54 78.1568 118.506 78.1908 118.506 78.2327V79.7335C118.506 79.7754 118.54 79.8093 118.582 79.8093H129.325C129.367 79.8093 129.401 79.7754 129.401 79.7335V78.2327C129.401 78.1908 129.367 78.1568 129.325 78.1568Z" fill="#2411FF"/>
<path d="M112.403 78.1568H91.0687C91.0267 78.1568 90.9926 78.1908 90.9926 78.2327V79.7335C90.9926 79.7754 91.0267 79.8093 91.0687 79.8093H112.403C112.445 79.8093 112.479 79.7754 112.479 79.7335V78.2327C112.479 78.1908 112.445 78.1568 112.403 78.1568Z" fill="white"/>
<path opacity="0.2" d="M110.957 64.1834C111.398 64.1834 111.756 63.8268 111.756 63.3869C111.756 62.947 111.398 62.5905 110.957 62.5905C110.515 62.5905 110.157 62.947 110.157 63.3869C110.157 63.8268 110.515 64.1834 110.957 64.1834Z" fill="#303030"/>
<path d="M188.287 107.567V131.981C188.285 132.274 188.167 132.555 187.958 132.762C187.749 132.968 187.467 133.084 187.172 133.083H172.607C172.461 133.084 172.317 133.055 172.182 133C172.048 132.945 171.925 132.864 171.822 132.761C171.719 132.659 171.637 132.537 171.581 132.403C171.525 132.27 171.496 132.126 171.495 131.981V107.567H171.626C172.319 107.962 175.76 108.265 179.892 108.265C184.024 108.265 187.463 107.962 188.156 107.567H188.287Z" fill="#2411FF"/>
<path opacity="0.2" d="M188.287 110.671V131.981C188.285 132.274 188.167 132.555 187.958 132.762C187.749 132.968 187.467 133.084 187.172 133.083H172.607C172.461 133.084 172.317 133.055 172.182 133C172.048 132.945 171.925 132.864 171.822 132.761C171.719 132.659 171.637 132.537 171.581 132.403C171.525 132.27 171.496 132.126 171.495 131.981V130.989C173.852 131.314 181.841 131.962 185.332 126.319C185.613 125.854 185.851 125.364 186.041 124.856C186.77 122.962 188.281 118.181 188.287 110.671Z" fill="#303030"/>
<path d="M188.512 110.671C188.437 110.667 188.362 110.667 188.287 110.671V113.781C188.362 113.777 188.437 113.777 188.512 113.781C191.312 113.781 193.588 116.149 193.588 119.064C193.588 121.979 191.312 124.347 188.512 124.347C188.434 124.347 188.363 124.347 188.287 124.347V127.435C188.363 127.435 188.434 127.435 188.512 127.435C192.96 127.435 196.567 123.683 196.567 119.037C196.567 114.391 192.96 110.671 188.512 110.671Z" fill="#2411FF"/>
<path opacity="0.4" d="M188.287 110.679V113.781C188.287 113.781 189.747 113.746 190.576 114.234V110.95C189.827 110.763 189.058 110.672 188.287 110.679V110.679Z" fill="#303030"/>
<path opacity="0.4" d="M188.287 124.33V127.435C188.287 127.435 189.755 127.454 190.63 127.148L190.453 123.935C189.771 124.229 189.03 124.364 188.287 124.33V124.33Z" fill="#303030"/>
<path d="M176.119 108.157H175.527V116.645H176.119V108.157Z" fill="#303030"/>
<path opacity="0.4" d="M131.894 136.172H119.481L119.21 135.901H102.709L102.543 136.172H89.8319C89.7741 136.17 89.7175 136.154 89.667 136.126C89.6165 136.098 89.5734 136.059 89.5414 136.011C89.5095 135.963 89.4896 135.908 89.4833 135.85C89.4771 135.793 89.4848 135.735 89.5057 135.681L92.6019 127.535L129.425 127.554L132.225 135.681C132.247 135.735 132.255 135.794 132.249 135.852C132.243 135.91 132.222 135.966 132.19 136.014C132.157 136.062 132.113 136.102 132.061 136.129C132.01 136.157 131.952 136.171 131.894 136.172V136.172Z" fill="#303030"/>
<path d="M173.689 120.012V117.574C173.689 117.454 173.716 117.336 173.767 117.228C173.818 117.12 173.893 117.024 173.985 116.948L175.673 115.556C175.716 115.522 175.77 115.503 175.824 115.503C175.879 115.503 175.932 115.522 175.975 115.556L177.824 117.013C177.921 117.089 177.999 117.186 178.052 117.297C178.106 117.408 178.134 117.529 178.134 117.652V120.012C178.134 120.055 178.125 120.097 178.109 120.136C178.092 120.176 178.068 120.212 178.038 120.242C178.008 120.272 177.972 120.296 177.932 120.312C177.893 120.329 177.85 120.337 177.807 120.337H174.015C173.929 120.337 173.846 120.303 173.785 120.242C173.723 120.181 173.689 120.098 173.689 120.012V120.012Z" fill="white"/>
<path d="M92.5122 116.699H129.534" stroke="#303030" stroke-width="0.25" stroke-miterlimit="10"/>
<path d="M96.7746 118.563H125.272" stroke="#303030" stroke-width="0.25" stroke-miterlimit="10"/>
<path d="M98.4057 120.294H123.641" stroke="#303030" stroke-width="0.25" stroke-miterlimit="10"/>
<path d="M89.261 122.621H132.788" stroke="#303030" stroke-width="0.25" stroke-miterlimit="10"/>
<path d="M97.5412 125.078H124.538" stroke="#303030" stroke-width="0.25" stroke-miterlimit="10"/>
<path d="M90.0683 124.712L91.5254 120.565" stroke="#303030" stroke-width="0.25" stroke-miterlimit="10"/>
<path d="M97.109 116.699L95.4508 122.64" stroke="#303030" stroke-width="0.25" stroke-miterlimit="10"/>
<path d="M98.893 118.563L98.6367 120.294" stroke="#303030" stroke-width="0.25" stroke-miterlimit="10"/>
<path d="M101.027 116.699L100.692 118.563" stroke="#303030" stroke-width="0.25" stroke-miterlimit="10"/>
<path d="M100.341 120.294L99.9253 122.621" stroke="#303030" stroke-width="0.25" stroke-miterlimit="10"/>
<path d="M104.451 122.621L104.676 120.294" stroke="#303030" stroke-width="0.25" stroke-miterlimit="10"/>
<path d="M103.004 118.563L102.809 120.294" stroke="#303030" stroke-width="0.25" stroke-miterlimit="10"/>
<path d="M105.143 116.699L105.044 118.563" stroke="#303030" stroke-width="0.25" stroke-miterlimit="10"/>
<path d="M109.329 116.78L109.233 118.647" stroke="#303030" stroke-width="0.25" stroke-miterlimit="10"/>
<path d="M107.246 118.563V120.294" stroke="#303030" stroke-width="0.25" stroke-miterlimit="10"/>
<path d="M111.536 118.563V120.294" stroke="#303030" stroke-width="0.25" stroke-miterlimit="10"/>
<path d="M109.054 120.294V122.621" stroke="#303030" stroke-width="0.25" stroke-miterlimit="10"/>
<path d="M113.661 120.294V122.621" stroke="#303030" stroke-width="0.25" stroke-miterlimit="10"/>
<path d="M118.005 120.294V122.621" stroke="#303030" stroke-width="0.25" stroke-miterlimit="10"/>
<path d="M122.148 120.326L122.556 125.078" stroke="#303030" stroke-width="0.25" stroke-miterlimit="10"/>
<path d="M126.84 120.41L127.506 125.078" stroke="#303030" stroke-width="0.25" stroke-miterlimit="10"/>
<path d="M131.122 120.348L132.247 125.078" stroke="#303030" stroke-width="0.25" stroke-miterlimit="10"/>
<path d="M115.924 120.294L115.787 118.563" stroke="#303030" stroke-width="0.25" stroke-miterlimit="10"/>
<path d="M120.088 118.563L120.36 120.294" stroke="#303030" stroke-width="0.25" stroke-miterlimit="10"/>
<path d="M113.433 116.699V118.563" stroke="#303030" stroke-width="0.25" stroke-miterlimit="10"/>
<path d="M117.494 116.699V118.563" stroke="#303030" stroke-width="0.25" stroke-miterlimit="10"/>
<path d="M121.662 116.699V118.563" stroke="#303030" stroke-width="0.25" stroke-miterlimit="10"/>
<path d="M125.679 116.699V118.563" stroke="#303030" stroke-width="0.25" stroke-miterlimit="10"/>
<path d="M188.287 107.42C188.287 107.466 188.243 107.52 188.156 107.567C187.463 107.962 184.022 108.265 179.892 108.265C175.763 108.265 172.319 107.962 171.626 107.567C171.536 107.52 171.495 107.466 171.495 107.42C171.495 106.954 175.255 106.575 179.892 106.575C184.53 106.575 188.287 106.954 188.287 107.42Z" fill="#1C1C1C"/>
<path d="M179.621 108.263C183.721 108.263 187.044 107.966 187.044 107.599C187.044 107.232 183.721 106.935 179.621 106.935C175.52 106.935 172.197 107.232 172.197 107.599C172.197 107.966 175.52 108.263 179.621 108.263Z" fill="#303030"/>
<path d="M151.336 27.0013C147.12 27.0019 143.001 28.2603 139.509 30.6144C136.017 32.9685 133.313 36.3106 131.744 40.2101C130.175 44.1096 129.813 48.3879 130.706 52.494C131.598 56.6001 133.704 60.3458 136.751 63.2488L133.745 68.8403L141.131 66.4563C143.951 68.0105 147.091 68.9006 150.309 69.0586C153.528 69.2166 156.741 68.6382 159.7 67.3678C162.66 66.0973 165.289 64.1685 167.385 61.7292C169.481 59.2898 170.989 56.4046 171.794 53.2947C172.598 50.1847 172.677 46.9325 172.026 43.7873C171.374 40.642 170.008 37.6872 168.034 35.1492C166.059 32.6112 163.527 30.5574 160.633 29.1451C157.739 27.7327 154.558 26.9994 151.336 27.0013V27.0013Z" fill="white"/>
<path d="M150.343 25.5005C146.128 25.5008 142.008 26.7588 138.516 29.1125C135.024 31.4662 132.319 34.8079 130.749 38.7072C129.179 42.6065 128.817 46.8848 129.708 50.9912C130.6 55.0976 132.704 58.844 135.751 61.7479L132.747 67.3368L140.13 64.9555C142.951 66.5115 146.091 67.4034 149.311 67.5628C152.53 67.7222 155.744 67.1448 158.705 65.875C161.666 64.6052 164.296 62.6767 166.394 60.2371C168.491 57.7976 170 54.9119 170.805 51.8012C171.611 48.6904 171.691 45.4373 171.039 42.291C170.387 39.1448 169.022 36.189 167.046 33.6501C165.071 31.1113 162.539 29.0568 159.644 27.6442C156.748 26.2315 153.567 25.4983 150.343 25.5005V25.5005Z" fill="#2411FF"/>
<path d="M150.343 67.7702C146.762 67.7674 143.239 66.8675 140.098 65.1532L132.807 67.5128C132.771 67.524 132.733 67.5243 132.697 67.5137C132.661 67.5031 132.63 67.482 132.606 67.4532C132.583 67.4244 132.569 67.3898 132.565 67.3534C132.561 67.317 132.568 67.2802 132.584 67.2473L135.539 61.7831C131.991 58.3548 129.75 53.8037 129.199 48.9094C128.649 44.0151 129.823 39.0823 132.521 34.9561C135.219 30.83 139.273 27.7673 143.988 26.2927C148.704 24.8182 153.787 25.0235 158.366 26.8737C162.946 28.7238 166.738 32.1035 169.092 36.4338C171.446 40.7641 172.216 45.7755 171.27 50.6093C170.323 55.4431 167.72 59.7985 163.905 62.9293C160.09 66.0601 155.302 67.7715 150.36 67.7702H150.343ZM140.119 64.7713C140.151 64.7714 140.181 64.7788 140.209 64.7929C144.869 67.3693 150.339 68.0811 155.506 66.7838C160.674 65.4865 165.152 62.2773 168.031 57.8082C170.911 53.3392 171.975 47.9455 171.007 42.7228C170.04 37.5002 167.114 32.8404 162.824 29.6901C158.533 26.5398 153.201 25.1353 147.909 25.7619C142.617 26.3886 137.763 28.9993 134.333 33.0638C130.903 37.1283 129.154 42.3416 129.441 47.6447C129.729 52.9478 132.032 57.9429 135.882 61.6152C135.911 61.6423 135.93 61.6785 135.936 61.7179C135.942 61.7572 135.934 61.7974 135.914 61.8319L133.128 67.0198L140.062 64.7794L140.119 64.7713Z" fill="white"/>
<path d="M143.276 55.2164L135.153 49.5056V46.4769L143.276 40.712V43.7651L137.458 47.9777L143.276 52.1903V55.2164Z" fill="#2411FF"/>
<path d="M145.744 56.235L151.928 33.3216H154.568L148.354 56.2269L145.744 56.235Z" fill="#2411FF"/>
<path d="M157.033 55.2164V52.1903L162.878 47.9506L157.033 43.7678V40.712L165.189 46.4525V49.4758L157.033 55.2164Z" fill="#2411FF"/>
<path d="M144.281 53.9621L136.159 48.2513V45.2253L144.281 39.4577V42.5108L138.461 46.7234L144.281 50.9306V53.9621Z" fill="white"/>
<path d="M146.747 54.9942L152.931 32.0917H155.571L149.357 54.9942H146.747Z" fill="white"/>
<path d="M158.039 53.9621V50.9306L163.889 46.6936L158.039 42.5054V39.4577L166.194 45.1955V48.2215L158.039 53.9621Z" fill="white"/>
<path d="M80.2712 133.609C80.299 133.827 80.268 134.049 80.1815 134.251C80.0951 134.453 79.9562 134.629 79.7792 134.76C77.9552 136.142 71.8605 142.262 65.4532 165.595H35.9912C41.9391 148.257 60.5846 129.236 64.0179 125.831C64.3732 125.477 64.8483 125.269 65.3499 125.246C67.0027 125.175 70.9417 125.17 74.3669 126.514C77.2674 127.66 79.8037 129.765 80.2712 133.609Z" fill="#161616"/>
<path d="M98.8923 126.904C98.8923 130.233 93.0477 129.461 93.0477 129.461C90.5414 129.342 88.9946 130.109 88.9946 130.109C85.235 131.301 79.9396 132.027 79.9396 132.027C79.9405 132.02 79.9405 132.012 79.9396 132.005C79.5653 130.892 78.9595 129.87 78.1618 129.006C78.12 128.956 78.0745 128.909 78.0258 128.865C74.182 124.891 67.1169 125.216 67.1169 125.216L74.8045 119.47C74.8045 119.47 75.2476 119.348 75.8403 118.037C75.8403 118.037 76.7754 115.675 77.9606 115.675H80.0755C80.0755 115.675 82.0192 112.093 83.5415 113.061C84.0109 113.355 84.4388 113.71 84.8137 114.117C84.8137 114.117 87.774 111.083 90.1445 113.304C90.1445 113.304 92.0881 115.664 92.5122 116.68C93.3404 116.611 94.1703 116.792 94.8935 117.2C96.1565 117.955 97.2922 118.904 98.2589 120.012C98.3289 120.089 98.3792 120.182 98.4057 120.283C98.4395 120.383 98.4481 120.49 98.4305 120.593C98.413 120.697 98.3699 120.796 98.3051 120.879C96.9731 122.561 94.657 120.359 94.657 120.359C93.2244 120.654 90.9627 120.538 90.9627 120.538C90.0085 122.556 87.3255 123.924 87.3255 123.924C90.3157 125.23 92.3899 124.634 92.3899 124.634C97.1933 123.759 98.46 125.595 98.7808 126.468C98.8343 126.608 98.8717 126.755 98.8923 126.904Z" fill="#F9B499"/>
<path d="M85.8277 116.78L91.7918 116.569C91.7918 116.569 90.313 113.957 88.8016 114.25C88.8097 114.25 87.3092 114.545 85.8277 116.78Z" fill="#7C574B"/>
<path d="M98.3051 120.89C96.9731 122.572 94.657 120.37 94.657 120.37C93.2244 120.665 90.9627 120.548 90.9627 120.548C90.0085 122.567 87.3255 123.935 87.3255 123.935C86.7595 123.756 86.2455 123.442 85.8277 123.022C85.8277 123.022 90.2695 122.052 90.5658 119.814C90.5658 119.814 93.6104 120.356 94.5455 119.142C94.5455 119.142 95.1382 121.161 96.7828 120.784C97.3429 120.697 97.8876 120.53 98.4002 120.288V120.288C98.4358 120.389 98.4457 120.496 98.4291 120.601C98.4125 120.706 98.3699 120.805 98.3051 120.89V120.89Z" fill="#7C574B"/>
<path d="M98.8923 126.904C98.8923 130.233 93.0477 129.461 93.0477 129.461C90.5414 129.342 88.9946 130.109 88.9946 130.109C85.235 131.301 79.9396 132.027 79.9396 132.027C79.9405 132.02 79.9405 132.012 79.9396 132.005C79.5831 130.884 78.9751 129.858 78.1618 129.006C78.12 128.956 78.0745 128.909 78.0258 128.865C78.2433 128.739 78.4442 128.586 78.6239 128.41C78.6984 128.335 78.7956 128.286 78.9006 128.271C79.0056 128.256 79.1127 128.275 79.2056 128.326C79.9641 128.757 82.1959 129.654 86.6867 128.798C86.9927 128.732 87.2928 128.642 87.5837 128.527C88.3768 128.238 89.2161 128.097 90.0602 128.109C90.0602 128.109 93.8986 128.269 95.2741 126.741C95.3352 126.673 95.4186 126.63 95.5094 126.618C95.6001 126.606 95.6922 126.626 95.7688 126.676C96.3478 127.047 97.6962 127.687 98.7863 126.468C98.8379 126.609 98.8735 126.755 98.8923 126.904V126.904Z" fill="#7C574B"/>
<path d="M79.4856 116.105C79.5102 116.242 79.5072 116.383 79.4768 116.519C79.4465 116.654 79.3894 116.783 79.3089 116.897C79.1748 117.124 79.0081 117.33 78.8142 117.509C78.4351 117.868 77.9654 118.118 77.455 118.232C77.5783 118.003 77.7299 117.79 77.9062 117.598C78.0685 117.415 78.24 117.241 78.42 117.075C78.5967 116.916 78.7788 116.758 78.9637 116.607C79.1556 116.459 79.3307 116.291 79.4856 116.105V116.105Z" fill="#7C574B"/>
<path d="M81.5679 116.387C82.2254 115.48 83.1917 114.843 84.2863 114.594C83.6322 115.505 82.6646 116.144 81.5679 116.39V116.387Z" fill="#7C574B"/>
<path opacity="0.2" d="M80.2712 133.609C80.299 133.827 80.268 134.049 80.1815 134.251C80.0951 134.453 79.9562 134.629 79.7792 134.76C77.9552 136.142 71.8605 142.262 65.4532 165.595H53.2803C53.2803 165.595 64.1239 158.519 72.5809 140.474C72.5809 140.474 75.5358 134.679 74.3642 126.514C77.2674 127.66 79.8037 129.765 80.2712 133.609Z" fill="black"/>
<path d="M141.778 133.609C141.75 133.827 141.781 134.049 141.867 134.251C141.954 134.453 142.093 134.629 142.27 134.76C144.094 136.142 150.188 142.262 156.596 165.595H186.058C180.11 148.257 161.464 129.236 158.031 125.831C157.675 125.477 157.199 125.268 156.696 125.246C155.046 125.175 151.107 125.17 147.682 126.514C144.782 127.66 142.245 129.765 141.778 133.609Z" fill="#161616"/>
<path d="M141.973 115.677H144.091C145.274 115.677 146.211 118.04 146.211 118.04C146.804 119.351 147.247 119.473 147.247 119.473L154.94 125.211C154.94 125.211 147.872 124.886 144.031 128.86C143.983 128.903 143.937 128.951 143.895 129.001C143.098 129.865 142.492 130.887 142.118 132C142.117 132.007 142.117 132.014 142.118 132.021C142.118 132.021 136.822 131.295 133.063 130.103C133.063 130.103 131.516 129.337 129.009 129.456C129.009 129.456 123.165 130.228 123.165 126.898C123.184 126.753 123.22 126.611 123.271 126.473V126.473C123.592 125.601 124.858 123.764 129.662 124.639C129.662 124.639 131.747 125.235 134.726 123.929C134.726 123.929 132.043 122.561 131.089 120.543C131.089 120.543 128.827 120.659 127.395 120.364C127.395 120.364 125.079 122.567 123.747 120.884C123.681 120.801 123.638 120.703 123.62 120.599C123.602 120.495 123.61 120.388 123.643 120.288C123.672 120.188 123.723 120.095 123.793 120.017C124.759 118.912 125.895 117.966 127.158 117.214C127.88 116.805 128.709 116.624 129.537 116.693C129.537 116.693 131.404 112.562 137.238 114.12C137.235 114.125 139.345 113.136 141.973 115.677Z" fill="#F9B499"/>
<path d="M136.221 116.78L130.257 116.569C130.257 116.569 131.736 114.8 133.247 115.095C133.239 115.095 134.944 115.035 136.221 116.78Z" fill="#7C574B"/>
<path d="M123.744 120.89C125.076 122.572 127.392 120.37 127.392 120.37C128.825 120.665 131.086 120.548 131.086 120.548C132.04 122.567 134.723 123.935 134.723 123.935C135.289 123.755 135.803 123.442 136.221 123.022C136.221 123.022 131.779 122.052 131.483 119.814C131.483 119.814 128.439 120.356 127.503 119.142C127.503 119.142 126.911 121.161 125.263 120.784C124.704 120.695 124.16 120.526 123.649 120.283C123.612 120.384 123.602 120.492 123.618 120.598C123.635 120.705 123.678 120.805 123.744 120.89V120.89Z" fill="#7C574B"/>
<path d="M123.159 126.904C123.159 130.233 129.004 129.461 129.004 129.461C131.51 129.342 133.057 130.109 133.057 130.109C136.817 131.301 142.112 132.027 142.112 132.027C142.111 132.02 142.111 132.012 142.112 132.005C142.469 130.884 143.077 129.858 143.89 129.006C143.932 128.956 143.977 128.909 144.026 128.865C143.808 128.739 143.608 128.586 143.428 128.41C143.353 128.335 143.256 128.286 143.151 128.271C143.046 128.256 142.939 128.275 142.846 128.326C142.088 128.757 139.856 129.654 135.365 128.798C135.059 128.732 134.759 128.642 134.468 128.527C133.675 128.238 132.836 128.097 131.991 128.109C131.991 128.109 128.153 128.269 126.778 126.741C126.717 126.673 126.633 126.63 126.542 126.618C126.452 126.606 126.36 126.626 126.283 126.676C125.704 127.047 124.353 127.687 123.265 126.468C123.214 126.609 123.178 126.755 123.159 126.904Z" fill="#7C574B"/>
<path d="M142.561 116.105C142.722 116.292 142.905 116.46 143.104 116.607C143.286 116.758 143.466 116.916 143.648 117.075C143.828 117.241 144 117.415 144.162 117.598C144.338 117.79 144.49 118.003 144.613 118.232C144.103 118.118 143.633 117.868 143.254 117.509C143.05 117.332 142.874 117.125 142.732 116.897C142.573 116.666 142.511 116.381 142.561 116.105V116.105Z" fill="#7C574B"/>
<path d="M140.476 116.387C139.379 116.141 138.411 115.502 137.757 114.591C138.852 114.841 139.819 115.479 140.476 116.387Z" fill="#7C574B"/>
<path opacity="0.2" d="M141.778 133.609C141.75 133.827 141.781 134.049 141.867 134.251C141.954 134.453 142.093 134.629 142.27 134.76C144.094 136.142 150.188 142.262 156.596 165.595H168.769C168.769 165.595 157.922 158.519 149.468 140.474C149.468 140.474 146.513 134.679 147.685 126.514C144.782 127.66 142.245 129.765 141.778 133.609Z" fill="black"/>
</svg>
