<svg width="602" height="276" viewBox="0 0 602 276" fill="none" xmlns="http://www.w3.org/2000/svg">
<path d="M431.769 53.5479L342.88 116.377L380.853 141.753L431.769 111.726V53.5479Z" fill="black"/>
<path d="M170.231 212.13C170.231 212.13 67.0887 150.936 1 111.726C1 131.514 1 162.397 1 162.397L170.231 268.431L300.145 192.425L249.862 160.521L170.231 212.13Z" fill="black"/>
<path d="M601 111.726L431.769 217.76L171.94 57.3014L80.4872 111.726L120.658 137.926L168.521 108.911L300.145 192.425L431.769 275L601 168.027V111.726Z" fill="black"/>
<path d="M518.094 111.726L431.769 53.5479V111.726L471.94 141.753L518.094 111.726Z" fill="black"/>
<path d="M1 111.726C67.0887 150.936 170.231 212.13 170.231 212.13L249.862 160.521L215.53 138.737L166.812 168.027L120.658 137.926L80.4872 111.726L171.94 57.3014L431.769 217.76L601 111.726L425.786 1L298.436 86.676L342.88 116.377L431.769 53.5479L518.094 111.726L471.94 141.753L425.786 171.781L380.853 141.753L170.231 1C170.231 1 67.0887 68.4848 1 111.726Z" fill="#2411FF"/>
<path d="M1 111.726L0.726245 111.308L0.5 111.456V111.726H1ZM170.231 1L170.509 0.584283L170.234 0.400577L169.957 0.5816L170.231 1ZM425.786 171.781L425.508 172.197L425.783 172.38L426.059 172.2L425.786 171.781ZM518.094 111.726L518.367 112.145L519 111.733L518.373 111.311L518.094 111.726ZM431.769 53.5479L432.049 53.1333L431.762 52.9404L431.481 53.1396L431.769 53.5479ZM342.88 116.377L342.603 116.793L342.88 116.377ZM298.436 86.676L298.157 86.2611L297.538 86.6774L298.158 87.0917L298.436 86.676ZM425.786 1L426.053 0.577326L425.778 0.403128L425.507 0.585145L425.786 1ZM601 111.726H601.5V111.451L601.267 111.303L601 111.726ZM171.94 57.3014L172.203 56.876L171.945 56.7167L171.684 56.8717L171.94 57.3014ZM80.4872 111.726L80.2315 111.296L79.5421 111.707L80.214 112.145L80.4872 111.726ZM166.812 168.027L166.539 168.446L166.801 168.617L167.07 168.456L166.812 168.027ZM215.53 138.737L215.798 138.315L215.537 138.15L215.272 138.309L215.53 138.737ZM249.862 160.521L250.13 160.098L249.862 160.521ZM170.231 268.431L169.965 268.855L170.222 269.016L170.483 268.863L170.231 268.431ZM431.769 275L431.503 275.424L431.77 275.591L432.036 275.423L431.769 275ZM601 168.027L601.267 168.45L601.5 168.303V168.027H601ZM380.853 141.753L380.576 142.169L380.853 141.753ZM1 162.397H0.5V162.674L0.734524 162.821L1 162.397ZM168.521 108.911L168.789 108.489L168.527 108.323L168.262 108.483L168.521 108.911ZM170.231 212.13C170.486 211.7 170.485 211.7 170.485 211.699C170.484 211.699 170.483 211.698 170.481 211.697C170.478 211.695 170.474 211.693 170.467 211.689C170.454 211.681 170.436 211.67 170.411 211.656C170.361 211.626 170.287 211.582 170.188 211.523C169.991 211.406 169.697 211.232 169.311 211.003C168.54 210.546 167.4 209.869 165.925 208.994C162.976 207.244 158.688 204.701 153.337 201.526C142.635 195.176 127.677 186.302 110.654 176.202C76.6072 156.002 34.2995 130.901 1.25513 111.296L0.744875 112.156C33.7892 131.761 76.0969 156.862 110.144 177.062C127.167 187.162 142.125 196.036 152.827 202.386C158.178 205.561 162.465 208.104 165.415 209.854C166.889 210.729 168.03 211.406 168.801 211.863C169.187 212.092 169.481 212.266 169.678 212.383C169.776 212.442 169.851 212.486 169.901 212.516C169.925 212.53 169.944 212.542 169.957 212.549C169.963 212.553 169.968 212.556 169.971 212.557C169.972 212.558 169.974 212.559 169.974 212.559C169.975 212.56 169.976 212.56 170.231 212.13ZM1.27375 112.144C34.3181 90.5238 76.6258 62.8423 110.672 40.566C127.696 29.4278 142.654 19.6409 153.356 12.6385C158.707 9.13737 162.994 6.33235 165.944 4.40259C167.418 3.43773 168.558 2.69167 169.33 2.18684C169.716 1.93432 170.009 1.74243 170.207 1.61331C170.306 1.54859 170.379 1.50029 170.43 1.46748C170.455 1.45071 170.472 1.43937 170.486 1.43071C170.493 1.42592 170.496 1.42423 170.5 1.42148C170.501 1.42046 170.503 1.41969 170.503 1.41917C170.504 1.41866 170.505 1.4184 170.231 1C169.957 0.5816 169.957 0.581858 169.956 0.582372C169.955 0.582886 169.954 0.583657 169.952 0.584684C169.95 0.586041 169.943 0.590513 169.938 0.593913C169.926 0.601644 169.906 0.614841 169.882 0.630678C169.833 0.663063 169.757 0.712223 169.659 0.77651C169.462 0.905406 169.168 1.09774 168.783 1.35004C168.011 1.85488 166.871 2.60092 165.396 3.56579C162.447 5.49553 158.16 8.30058 152.808 11.8017C142.106 18.8041 127.148 28.591 110.125 39.7292C76.0783 62.0055 33.7706 89.687 0.726245 111.308L1.27375 112.144ZM518.373 111.311L432.049 53.1333L431.49 53.9626L517.815 112.141L518.373 111.311ZM431.481 53.1396L342.592 115.969L343.169 116.785L432.058 53.9562L431.481 53.1396ZM343.158 115.961L298.714 86.2603L298.158 87.0917L342.603 116.793L343.158 115.961ZM298.715 87.0909L426.065 1.41486L425.507 0.585145L298.157 86.2611L298.715 87.0909ZM425.519 1.42267L600.733 112.149L601.267 111.303L426.053 0.577326L425.519 1.42267ZM600.734 111.302L431.504 217.337L432.035 218.184L601.266 112.15L600.734 111.302ZM432.032 217.335L172.203 56.876L171.677 57.7268L431.506 218.186L432.032 217.335ZM171.684 56.8717L80.2315 111.296L80.7429 112.156L172.196 57.731L171.684 56.8717ZM167.07 168.456L215.788 139.166L215.272 138.309L166.554 167.599L167.07 168.456ZM215.262 139.159L249.594 160.943L250.13 160.098L215.798 138.315L215.262 139.159ZM249.59 160.101L169.959 211.711L170.503 212.55L250.134 160.94L249.59 160.101ZM170.231 268.431C170.483 268.863 170.484 268.863 170.484 268.863C170.485 268.862 170.486 268.862 170.487 268.861C170.488 268.86 170.494 268.857 170.498 268.855C170.507 268.849 170.522 268.841 170.541 268.829C170.579 268.807 170.636 268.774 170.712 268.729C170.863 268.641 171.089 268.509 171.385 268.336C171.977 267.989 172.853 267.477 173.985 266.815C176.249 265.49 179.54 263.564 183.648 261.161C191.864 256.354 203.347 249.636 216.415 241.991C242.552 226.699 275.03 207.697 300.398 192.856L299.893 191.993C274.525 206.834 242.047 225.836 215.91 241.127C202.842 248.773 191.359 255.491 183.143 260.298C179.035 262.701 175.744 264.627 173.48 265.951C172.348 266.614 171.472 267.126 170.88 267.472C170.584 267.646 170.358 267.778 170.207 267.866C170.131 267.91 170.074 267.944 170.036 267.966C170.017 267.977 170.002 267.986 169.993 267.991C169.988 267.994 169.984 267.996 169.982 267.998C169.981 267.999 169.98 267.999 169.979 267.999C169.979 268 169.978 268 170.231 268.431ZM299.88 192.848C325.581 208.972 358.487 229.616 384.967 246.229C398.208 254.535 409.842 261.834 418.166 267.056C422.328 269.667 425.662 271.759 427.956 273.198C429.103 273.918 429.99 274.474 430.59 274.85C430.89 275.039 431.118 275.182 431.272 275.278C431.348 275.326 431.407 275.363 431.445 275.387C431.464 275.399 431.479 275.408 431.489 275.414C431.495 275.418 431.497 275.419 431.5 275.421C431.501 275.422 431.502 275.423 431.503 275.423C431.503 275.423 431.503 275.424 431.769 275C432.035 274.576 432.035 274.576 432.034 274.576C432.033 274.576 432.032 274.575 432.031 274.574C432.028 274.572 432.026 274.571 432.02 274.567C432.01 274.561 431.996 274.552 431.977 274.54C431.938 274.515 431.88 274.479 431.803 274.431C431.65 274.335 431.422 274.192 431.121 274.003C430.521 273.627 429.634 273.07 428.487 272.351C426.194 270.912 422.859 268.82 418.697 266.209C410.373 260.987 398.739 253.688 385.499 245.382C359.018 228.769 326.112 208.125 300.411 192.001L299.88 192.848ZM432.036 275.423L601.267 168.45L600.733 167.605L431.502 274.577L432.036 275.423ZM601.5 168.027V111.726H600.5V168.027H601.5ZM431.269 53.5479V111.726H432.269V53.5479H431.269ZM426.059 172.2L472.213 142.173L471.667 141.334L425.514 171.362L426.059 172.2ZM472.213 142.173L518.367 112.145L517.821 111.307L471.667 141.334L472.213 142.173ZM431.47 112.127L471.641 142.154L472.239 141.353L432.069 111.326L431.47 112.127ZM170.231 1C169.953 1.41572 169.953 1.41604 169.954 1.4167C169.955 1.41735 169.957 1.41833 169.959 1.41964C169.963 1.42229 169.969 1.42611 169.976 1.43137C169.992 1.44178 170.015 1.45739 170.046 1.4781C170.108 1.51954 170.201 1.58149 170.324 1.66348C170.569 1.82747 170.935 2.07169 171.415 2.39255C172.375 3.03429 173.794 3.98264 175.629 5.20918C179.3 7.66225 184.636 11.228 191.296 15.6786C204.616 24.5799 223.232 37.0209 244.419 51.1796C286.793 79.497 339.449 114.685 380.576 142.169L381.131 141.338C340.005 113.854 287.349 78.6655 244.975 50.3481C223.788 36.1894 205.171 23.7485 191.852 14.8472C185.192 10.3965 179.856 6.83082 176.185 4.37775C174.35 3.15123 172.931 2.20284 171.97 1.56112C171.49 1.24025 171.125 0.996047 170.879 0.83205C170.757 0.750048 170.664 0.688119 170.602 0.64667C170.571 0.625945 170.548 0.610355 170.532 0.599936C170.524 0.594774 170.518 0.590768 170.514 0.588203C170.512 0.586898 170.511 0.585918 170.51 0.585264C170.509 0.584611 170.509 0.584283 170.231 1ZM380.576 142.169C389.349 148.032 400.583 155.539 409.622 161.58C414.142 164.601 418.114 167.255 420.955 169.154C422.376 170.103 423.514 170.864 424.297 171.387C424.689 171.649 424.992 171.851 425.197 171.988C425.299 172.057 425.377 172.109 425.429 172.144C425.456 172.161 425.475 172.174 425.489 172.183C425.495 172.188 425.5 172.191 425.503 172.193C425.505 172.194 425.507 172.195 425.507 172.196C425.508 172.196 425.508 172.196 425.508 172.196C425.508 172.196 425.508 172.197 425.786 171.781C426.064 171.365 426.064 171.365 426.064 171.365C426.064 171.365 426.063 171.365 426.063 171.364C426.062 171.364 426.061 171.363 426.059 171.362C426.056 171.36 426.051 171.356 426.044 171.352C426.031 171.343 426.011 171.33 425.985 171.312C425.933 171.277 425.855 171.225 425.752 171.157C425.547 171.02 425.245 170.817 424.853 170.556C424.07 170.033 422.932 169.272 421.511 168.322C418.669 166.423 414.698 163.769 410.178 160.749C401.138 154.708 389.905 147.201 381.131 141.338L380.576 142.169ZM431.769 111.726C431.515 111.295 431.515 111.295 431.515 111.296C431.515 111.296 431.514 111.296 431.514 111.296C431.513 111.297 431.511 111.298 431.51 111.299C431.506 111.301 431.5 111.304 431.493 111.309C431.478 111.317 431.455 111.331 431.426 111.348C431.366 111.383 431.278 111.435 431.162 111.504C430.93 111.641 430.587 111.843 430.143 112.105C429.256 112.628 427.966 113.389 426.356 114.338C423.136 116.237 418.635 118.891 413.514 121.912C403.27 127.953 390.541 135.46 380.599 141.323L381.107 142.184C391.049 136.321 403.778 128.814 414.022 122.773C419.143 119.752 423.644 117.098 426.864 115.199C428.474 114.25 429.764 113.489 430.651 112.966C431.095 112.704 431.438 112.502 431.67 112.365C431.786 112.297 431.874 112.245 431.934 112.21C431.963 112.192 431.986 112.179 432.001 112.17C432.008 112.166 432.014 112.162 432.018 112.16C432.02 112.159 432.021 112.158 432.022 112.158C432.022 112.157 432.023 112.157 432.023 112.157C432.023 112.157 432.023 112.157 431.769 111.726ZM170.496 268.008L1.26548 161.974L0.734524 162.821L169.965 268.855L170.496 268.008ZM1 162.397C1.5 162.397 1.5 162.397 1.5 162.397C1.5 162.397 1.5 162.396 1.5 162.396C1.5 162.395 1.5 162.395 1.5 162.394C1.5 162.393 1.5 162.393 1.5 162.392C1.5 162.391 1.5 162.39 1.5 162.388C1.5 162.387 1.5 162.386 1.5 162.385C1.5 162.383 1.5 162.382 1.5 162.38C1.5 162.378 1.5 162.377 1.5 162.375C1.5 162.373 1.5 162.371 1.5 162.369C1.5 162.367 1.5 162.365 1.5 162.362C1.5 162.36 1.5 162.357 1.5 162.355C1.5 162.352 1.5 162.35 1.5 162.347C1.5 162.344 1.5 162.341 1.5 162.338C1.5 162.335 1.5 162.332 1.5 162.329C1.5 162.326 1.5 162.322 1.5 162.319C1.5 162.315 1.5 162.312 1.5 162.308C1.5 162.304 1.5 162.301 1.5 162.297C1.5 162.293 1.5 162.289 1.5 162.285C1.5 162.28 1.5 162.276 1.5 162.272C1.5 162.267 1.5 162.263 1.5 162.258C1.5 162.254 1.5 162.249 1.5 162.244C1.5 162.239 1.5 162.235 1.5 162.23C1.5 162.225 1.5 162.219 1.5 162.214C1.5 162.209 1.5 162.203 1.5 162.198C1.5 162.193 1.5 162.187 1.5 162.181C1.5 162.176 1.5 162.17 1.5 162.164C1.5 162.158 1.5 162.152 1.5 162.146C1.5 162.14 1.5 162.133 1.5 162.127C1.5 162.121 1.5 162.114 1.5 162.108C1.5 162.101 1.5 162.094 1.5 162.088C1.5 162.081 1.5 162.074 1.5 162.067C1.5 162.06 1.5 162.053 1.5 162.046C1.5 162.038 1.5 162.031 1.5 162.024C1.5 162.016 1.5 162.009 1.5 162.001C1.5 161.993 1.5 161.986 1.5 161.978C1.5 161.97 1.5 161.962 1.5 161.954C1.5 161.946 1.5 161.938 1.5 161.929C1.5 161.921 1.5 161.913 1.5 161.904C1.5 161.896 1.5 161.887 1.5 161.878C1.5 161.87 1.5 161.861 1.5 161.852C1.5 161.843 1.5 161.834 1.5 161.825C1.5 161.816 1.5 161.806 1.5 161.797C1.5 161.788 1.5 161.778 1.5 161.769C1.5 161.759 1.5 161.749 1.5 161.74C1.5 161.73 1.5 161.72 1.5 161.71C1.5 161.7 1.5 161.69 1.5 161.68C1.5 161.67 1.5 161.659 1.5 161.649C1.5 161.639 1.5 161.628 1.5 161.618C1.5 161.607 1.5 161.596 1.5 161.585C1.5 161.575 1.5 161.564 1.5 161.553C1.5 161.542 1.5 161.531 1.5 161.519C1.5 161.508 1.5 161.497 1.5 161.486C1.5 161.474 1.5 161.463 1.5 161.451C1.5 161.439 1.5 161.428 1.5 161.416C1.5 161.404 1.5 161.392 1.5 161.38C1.5 161.368 1.5 161.356 1.5 161.344C1.5 161.332 1.5 161.319 1.5 161.307C1.5 161.294 1.5 161.282 1.5 161.269C1.5 161.257 1.5 161.244 1.5 161.231C1.5 161.218 1.5 161.205 1.5 161.192C1.5 161.179 1.5 161.166 1.5 161.153C1.5 161.14 1.5 161.127 1.5 161.113C1.5 161.1 1.5 161.086 1.5 161.073C1.5 161.059 1.5 161.045 1.5 161.032C1.5 161.018 1.5 161.004 1.5 160.99C1.5 160.976 1.5 160.962 1.5 160.948C1.5 160.933 1.5 160.919 1.5 160.905C1.5 160.89 1.5 160.876 1.5 160.861C1.5 160.847 1.5 160.832 1.5 160.817C1.5 160.803 1.5 160.788 1.5 160.773C1.5 160.758 1.5 160.743 1.5 160.728C1.5 160.712 1.5 160.697 1.5 160.682C1.5 160.666 1.5 160.651 1.5 160.636C1.5 160.62 1.5 160.604 1.5 160.589C1.5 160.573 1.5 160.557 1.5 160.541C1.5 160.525 1.5 160.509 1.5 160.493C1.5 160.477 1.5 160.461 1.5 160.445C1.5 160.428 1.5 160.412 1.5 160.395C1.5 160.379 1.5 160.362 1.5 160.346C1.5 160.329 1.5 160.312 1.5 160.295C1.5 160.279 1.5 160.262 1.5 160.245C1.5 160.228 1.5 160.21 1.5 160.193C1.5 160.176 1.5 160.159 1.5 160.141C1.5 160.124 1.5 160.106 1.5 160.089C1.5 160.071 1.5 160.054 1.5 160.036C1.5 160.018 1.5 160 1.5 159.982C1.5 159.964 1.5 159.946 1.5 159.928C1.5 159.91 1.5 159.892 1.5 159.873C1.5 159.855 1.5 159.837 1.5 159.818C1.5 159.8 1.5 159.781 1.5 159.763C1.5 159.744 1.5 159.725 1.5 159.706C1.5 159.687 1.5 159.668 1.5 159.649C1.5 159.63 1.5 159.611 1.5 159.592C1.5 159.573 1.5 159.554 1.5 159.534C1.5 159.515 1.5 159.495 1.5 159.476C1.5 159.456 1.5 159.437 1.5 159.417C1.5 159.397 1.5 159.377 1.5 159.357C1.5 159.337 1.5 159.317 1.5 159.297C1.5 159.277 1.5 159.257 1.5 159.237C1.5 159.217 1.5 159.196 1.5 159.176C1.5 159.155 1.5 159.135 1.5 159.114C1.5 159.094 1.5 159.073 1.5 159.052C1.5 159.031 1.5 159.01 1.5 158.99C1.5 158.969 1.5 158.948 1.5 158.926C1.5 158.905 1.5 158.884 1.5 158.863C1.5 158.841 1.5 158.82 1.5 158.799C1.5 158.777 1.5 158.756 1.5 158.734C1.5 158.712 1.5 158.691 1.5 158.669C1.5 158.647 1.5 158.625 1.5 158.603C1.5 158.581 1.5 158.559 1.5 158.537C1.5 158.515 1.5 158.493 1.5 158.47C1.5 158.448 1.5 158.426 1.5 158.403C1.5 158.381 1.5 158.358 1.5 158.336C1.5 158.313 1.5 158.29 1.5 158.267C1.5 158.245 1.5 158.222 1.5 158.199C1.5 158.176 1.5 158.153 1.5 158.13C1.5 158.107 1.5 158.083 1.5 158.06C1.5 158.037 1.5 158.013 1.5 157.99C1.5 157.967 1.5 157.943 1.5 157.919C1.5 157.896 1.5 157.872 1.5 157.848C1.5 157.825 1.5 157.801 1.5 157.777C1.5 157.753 1.5 157.729 1.5 157.705C1.5 157.681 1.5 157.657 1.5 157.632C1.5 157.608 1.5 157.584 1.5 157.559C1.5 157.535 1.5 157.51 1.5 157.486C1.5 157.461 1.5 157.437 1.5 157.412C1.5 157.387 1.5 157.362 1.5 157.337C1.5 157.313 1.5 157.288 1.5 157.263C1.5 157.238 1.5 157.212 1.5 157.187C1.5 157.162 1.5 157.137 1.5 157.111C1.5 157.086 1.5 157.061 1.5 157.035C1.5 157.01 1.5 156.984 1.5 156.958C1.5 156.933 1.5 156.907 1.5 156.881C1.5 156.855 1.5 156.83 1.5 156.804C1.5 156.778 1.5 156.752 1.5 156.726C1.5 156.699 1.5 156.673 1.5 156.647C1.5 156.621 1.5 156.594 1.5 156.568C1.5 156.542 1.5 156.515 1.5 156.489C1.5 156.462 1.5 156.435 1.5 156.409C1.5 156.382 1.5 156.355 1.5 156.328C1.5 156.301 1.5 156.275 1.5 156.248C1.5 156.221 1.5 156.193 1.5 156.166C1.5 156.139 1.5 156.112 1.5 156.085C1.5 156.057 1.5 156.03 1.5 156.002C1.5 155.975 1.5 155.948 1.5 155.92C1.5 155.892 1.5 155.865 1.5 155.837C1.5 155.809 1.5 155.781 1.5 155.754C1.5 155.726 1.5 155.698 1.5 155.67C1.5 155.642 1.5 155.614 1.5 155.585C1.5 155.557 1.5 155.529 1.5 155.501C1.5 155.472 1.5 155.444 1.5 155.416C1.5 155.387 1.5 155.359 1.5 155.33C1.5 155.301 1.5 155.273 1.5 155.244C1.5 155.215 1.5 155.187 1.5 155.158C1.5 155.129 1.5 155.1 1.5 155.071C1.5 155.042 1.5 155.013 1.5 154.984C1.5 154.954 1.5 154.925 1.5 154.896C1.5 154.867 1.5 154.837 1.5 154.808C1.5 154.779 1.5 154.749 1.5 154.719C1.5 154.69 1.5 154.66 1.5 154.631C1.5 154.601 1.5 154.571 1.5 154.541C1.5 154.511 1.5 154.482 1.5 154.452C1.5 154.422 1.5 154.392 1.5 154.362C1.5 154.331 1.5 154.301 1.5 154.271C1.5 154.241 1.5 154.211 1.5 154.18C1.5 154.15 1.5 154.119 1.5 154.089C1.5 154.058 1.5 154.028 1.5 153.997C1.5 153.967 1.5 153.936 1.5 153.905C1.5 153.874 1.5 153.844 1.5 153.813C1.5 153.782 1.5 153.751 1.5 153.72C1.5 153.689 1.5 153.658 1.5 153.627C1.5 153.595 1.5 153.564 1.5 153.533C1.5 153.502 1.5 153.47 1.5 153.439C1.5 153.408 1.5 153.376 1.5 153.345C1.5 153.313 1.5 153.281 1.5 153.25C1.5 153.218 1.5 153.186 1.5 153.155C1.5 153.123 1.5 153.091 1.5 153.059C1.5 153.027 1.5 152.995 1.5 152.963C1.5 152.931 1.5 152.899 1.5 152.867C1.5 152.835 1.5 152.803 1.5 152.77C1.5 152.738 1.5 152.706 1.5 152.673C1.5 152.641 1.5 152.608 1.5 152.576C1.5 152.543 1.5 152.511 1.5 152.478C1.5 152.445 1.5 152.413 1.5 152.38C1.5 152.347 1.5 152.314 1.5 152.281C1.5 152.249 1.5 152.216 1.5 152.183C1.5 152.15 1.5 152.117 1.5 152.083C1.5 152.05 1.5 152.017 1.5 151.984C1.5 151.951 1.5 151.917 1.5 151.884C1.5 151.851 1.5 151.817 1.5 151.784C1.5 151.75 1.5 151.717 1.5 151.683C1.5 151.65 1.5 151.616 1.5 151.582C1.5 151.548 1.5 151.515 1.5 151.481C1.5 151.447 1.5 151.413 1.5 151.379C1.5 151.345 1.5 151.311 1.5 151.277C1.5 151.243 1.5 151.209 1.5 151.175C1.5 151.141 1.5 151.107 1.5 151.072C1.5 151.038 1.5 151.004 1.5 150.969C1.5 150.935 1.5 150.9 1.5 150.866C1.5 150.831 1.5 150.797 1.5 150.762C1.5 150.728 1.5 150.693 1.5 150.658C1.5 150.624 1.5 150.589 1.5 150.554C1.5 150.519 1.5 150.484 1.5 150.449C1.5 150.414 1.5 150.379 1.5 150.344C1.5 150.309 1.5 150.274 1.5 150.239C1.5 150.204 1.5 150.169 1.5 150.133C1.5 150.098 1.5 150.063 1.5 150.027C1.5 149.992 1.5 149.957 1.5 149.921C1.5 149.886 1.5 149.85 1.5 149.814C1.5 149.779 1.5 149.743 1.5 149.708C1.5 149.672 1.5 149.636 1.5 149.6C1.5 149.565 1.5 149.529 1.5 149.493C1.5 149.457 1.5 149.421 1.5 149.385C1.5 149.349 1.5 149.313 1.5 149.277C1.5 149.241 1.5 149.205 1.5 149.168C1.5 149.132 1.5 149.096 1.5 149.06C1.5 149.023 1.5 148.987 1.5 148.951C1.5 148.914 1.5 148.878 1.5 148.841C1.5 148.805 1.5 148.768 1.5 148.732C1.5 148.695 1.5 148.658 1.5 148.622C1.5 148.585 1.5 148.548 1.5 148.511C1.5 148.475 1.5 148.438 1.5 148.401C1.5 148.364 1.5 148.327 1.5 148.29C1.5 148.253 1.5 148.216 1.5 148.179C1.5 148.142 1.5 148.105 1.5 148.068C1.5 148.03 1.5 147.993 1.5 147.956C1.5 147.919 1.5 147.881 1.5 147.844C1.5 147.807 1.5 147.769 1.5 147.732C1.5 147.694 1.5 147.657 1.5 147.619C1.5 147.582 1.5 147.544 1.5 147.506C1.5 147.469 1.5 147.431 1.5 147.393C1.5 147.355 1.5 147.318 1.5 147.28C1.5 147.242 1.5 147.204 1.5 147.166C1.5 147.128 1.5 147.09 1.5 147.052C1.5 147.014 1.5 146.976 1.5 146.938C1.5 146.9 1.5 146.862 1.5 146.824C1.5 146.786 1.5 146.747 1.5 146.709C1.5 146.671 1.5 146.632 1.5 146.594C1.5 146.556 1.5 146.517 1.5 146.479C1.5 146.44 1.5 146.402 1.5 146.363C1.5 146.325 1.5 146.286 1.5 146.248C1.5 146.209 1.5 146.17 1.5 146.132C1.5 146.093 1.5 146.054 1.5 146.015C1.5 145.977 1.5 145.938 1.5 145.899C1.5 145.86 1.5 145.821 1.5 145.782C1.5 145.743 1.5 145.704 1.5 145.665C1.5 145.626 1.5 145.587 1.5 145.548C1.5 145.509 1.5 145.47 1.5 145.431C1.5 145.391 1.5 145.352 1.5 145.313C1.5 145.274 1.5 145.234 1.5 145.195C1.5 145.156 1.5 145.116 1.5 145.077C1.5 145.037 1.5 144.998 1.5 144.958C1.5 144.919 1.5 144.879 1.5 144.84C1.5 144.8 1.5 144.76 1.5 144.721C1.5 144.681 1.5 144.641 1.5 144.602C1.5 144.562 1.5 144.522 1.5 144.482C1.5 144.442 1.5 144.403 1.5 144.363C1.5 144.323 1.5 144.283 1.5 144.243C1.5 144.203 1.5 144.163 1.5 144.123C1.5 144.083 1.5 144.043 1.5 144.003C1.5 143.963 1.5 143.922 1.5 143.882C1.5 143.842 1.5 143.802 1.5 143.761C1.5 143.721 1.5 143.681 1.5 143.641C1.5 143.6 1.5 143.56 1.5 143.519C1.5 143.479 1.5 143.439 1.5 143.398C1.5 143.358 1.5 143.317 1.5 143.277C1.5 143.236 1.5 143.195 1.5 143.155C1.5 143.114 1.5 143.074 1.5 143.033C1.5 142.992 1.5 142.952 1.5 142.911C1.5 142.87 1.5 142.829 1.5 142.788C1.5 142.748 1.5 142.707 1.5 142.666C1.5 142.625 1.5 142.584 1.5 142.543C1.5 142.502 1.5 142.461 1.5 142.42C1.5 142.379 1.5 142.338 1.5 142.297C1.5 142.256 1.5 142.215 1.5 142.174C1.5 142.133 1.5 142.091 1.5 142.05C1.5 142.009 1.5 141.968 1.5 141.926C1.5 141.885 1.5 141.844 1.5 141.803C1.5 141.761 1.5 141.72 1.5 141.679C1.5 141.637 1.5 141.596 1.5 141.554C1.5 141.513 1.5 141.471 1.5 141.43C1.5 141.388 1.5 141.347 1.5 141.305C1.5 141.264 1.5 141.222 1.5 141.18C1.5 141.139 1.5 141.097 1.5 141.055C1.5 141.014 1.5 140.972 1.5 140.93C1.5 140.888 1.5 140.847 1.5 140.805C1.5 140.763 1.5 140.721 1.5 140.679C1.5 140.638 1.5 140.596 1.5 140.554C1.5 140.512 1.5 140.47 1.5 140.428C1.5 140.386 1.5 140.344 1.5 140.302C1.5 140.26 1.5 140.218 1.5 140.176C1.5 140.134 1.5 140.092 1.5 140.049C1.5 140.007 1.5 139.965 1.5 139.923C1.5 139.881 1.5 139.839 1.5 139.796C1.5 139.754 1.5 139.712 1.5 139.67C1.5 139.627 1.5 139.585 1.5 139.543C1.5 139.5 1.5 139.458 1.5 139.415C1.5 139.373 1.5 139.331 1.5 139.288C1.5 139.246 1.5 139.203 1.5 139.161C1.5 139.118 1.5 139.076 1.5 139.033C1.5 138.991 1.5 138.948 1.5 138.906C1.5 138.863 1.5 138.82 1.5 138.778C1.5 138.735 1.5 138.692 1.5 138.65C1.5 138.607 1.5 138.564 1.5 138.522C1.5 138.479 1.5 138.436 1.5 138.393C1.5 138.351 1.5 138.308 1.5 138.265C1.5 138.222 1.5 138.179 1.5 138.137C1.5 138.094 1.5 138.051 1.5 138.008C1.5 137.965 1.5 137.922 1.5 137.879C1.5 137.836 1.5 137.793 1.5 137.75C1.5 137.707 1.5 137.664 1.5 137.621C1.5 137.578 1.5 137.535 1.5 137.492C1.5 137.449 1.5 137.406 1.5 137.363C1.5 137.32 1.5 137.277 1.5 137.233C1.5 137.19 1.5 137.147 1.5 137.104C1.5 137.061 1.5 137.018 1.5 136.974C1.5 136.931 1.5 136.888 1.5 136.845C1.5 136.801 1.5 136.758 1.5 136.715C1.5 136.671 1.5 136.628 1.5 136.585C1.5 136.542 1.5 136.498 1.5 136.455C1.5 136.411 1.5 136.368 1.5 136.325C1.5 136.281 1.5 136.238 1.5 136.194C1.5 136.151 1.5 136.107 1.5 136.064C1.5 136.02 1.5 135.977 1.5 135.933C1.5 135.89 1.5 135.846 1.5 135.803C1.5 135.759 1.5 135.716 1.5 135.672C1.5 135.629 1.5 135.585 1.5 135.541C1.5 135.498 1.5 135.454 1.5 135.411C1.5 135.367 1.5 135.323 1.5 135.28C1.5 135.236 1.5 135.192 1.5 135.149C1.5 135.105 1.5 135.061 1.5 135.018C1.5 134.974 1.5 134.93 1.5 134.886C1.5 134.843 1.5 134.799 1.5 134.755C1.5 134.711 1.5 134.667 1.5 134.624C1.5 134.58 1.5 134.536 1.5 134.492C1.5 134.448 1.5 134.404 1.5 134.361C1.5 134.317 1.5 134.273 1.5 134.229C1.5 134.185 1.5 134.141 1.5 134.097C1.5 134.053 1.5 134.009 1.5 133.966C1.5 133.922 1.5 133.878 1.5 133.834C1.5 133.79 1.5 133.746 1.5 133.702C1.5 133.658 1.5 133.614 1.5 133.57C1.5 133.526 1.5 133.482 1.5 133.438C1.5 133.394 1.5 133.35 1.5 133.306C1.5 133.262 1.5 133.218 1.5 133.174C1.5 133.13 1.5 133.085 1.5 133.041C1.5 132.997 1.5 132.953 1.5 132.909C1.5 132.865 1.5 132.821 1.5 132.777C1.5 132.733 1.5 132.688 1.5 132.644C1.5 132.6 1.5 132.556 1.5 132.512C1.5 132.468 1.5 132.424 1.5 132.379C1.5 132.335 1.5 132.291 1.5 132.247C1.5 132.203 1.5 132.159 1.5 132.114C1.5 132.07 1.5 132.026 1.5 131.982C1.5 131.937 1.5 131.893 1.5 131.849C1.5 131.805 1.5 131.761 1.5 131.716C1.5 131.672 1.5 131.628 1.5 131.584C1.5 131.539 1.5 131.495 1.5 131.451C1.5 131.407 1.5 131.362 1.5 131.318C1.5 131.274 1.5 131.229 1.5 131.185C1.5 131.141 1.5 131.097 1.5 131.052C1.5 131.008 1.5 130.964 1.5 130.919C1.5 130.875 1.5 130.831 1.5 130.786C1.5 130.742 1.5 130.698 1.5 130.653C1.5 130.609 1.5 130.565 1.5 130.52C1.5 130.476 1.5 130.432 1.5 130.387C1.5 130.343 1.5 130.299 1.5 130.254C1.5 130.21 1.5 130.166 1.5 130.121C1.5 130.077 1.5 130.033 1.5 129.988C1.5 129.944 1.5 129.9 1.5 129.855C1.5 129.811 1.5 129.766 1.5 129.722C1.5 129.678 1.5 129.633 1.5 129.589C1.5 129.545 1.5 129.5 1.5 129.456C1.5 129.412 1.5 129.367 1.5 129.323C1.5 129.278 1.5 129.234 1.5 129.19C1.5 129.145 1.5 129.101 1.5 129.057C1.5 129.012 1.5 128.968 1.5 128.923C1.5 128.879 1.5 128.835 1.5 128.79C1.5 128.746 1.5 128.702 1.5 128.657C1.5 128.613 1.5 128.568 1.5 128.524C1.5 128.48 1.5 128.435 1.5 128.391C1.5 128.347 1.5 128.302 1.5 128.258C1.5 128.213 1.5 128.169 1.5 128.125C1.5 128.08 1.5 128.036 1.5 127.992C1.5 127.947 1.5 127.903 1.5 127.859C1.5 127.814 1.5 127.77 1.5 127.725C1.5 127.681 1.5 127.637 1.5 127.592C1.5 127.548 1.5 127.504 1.5 127.459C1.5 127.415 1.5 127.371 1.5 127.326C1.5 127.282 1.5 127.238 1.5 127.193C1.5 127.149 1.5 127.105 1.5 127.061C1.5 127.016 1.5 126.972 1.5 126.928C1.5 126.883 1.5 126.839 1.5 126.795C1.5 126.75 1.5 126.706 1.5 126.662C1.5 126.618 1.5 126.573 1.5 126.529C1.5 126.485 1.5 126.44 1.5 126.396C1.5 126.352 1.5 126.308 1.5 126.263C1.5 126.219 1.5 126.175 1.5 126.131C1.5 126.086 1.5 126.042 1.5 125.998C1.5 125.954 1.5 125.91 1.5 125.865C1.5 125.821 1.5 125.777 1.5 125.733C1.5 125.689 1.5 125.644 1.5 125.6C1.5 125.556 1.5 125.512 1.5 125.468C1.5 125.424 1.5 125.379 1.5 125.335C1.5 125.291 1.5 125.247 1.5 125.203C1.5 125.159 1.5 125.115 1.5 125.071C1.5 125.026 1.5 124.982 1.5 124.938C1.5 124.894 1.5 124.85 1.5 124.806C1.5 124.762 1.5 124.718 1.5 124.674C1.5 124.63 1.5 124.586 1.5 124.542C1.5 124.498 1.5 124.454 1.5 124.41C1.5 124.366 1.5 124.322 1.5 124.278C1.5 124.234 1.5 124.19 1.5 124.146C1.5 124.102 1.5 124.058 1.5 124.014C1.5 123.97 1.5 123.926 1.5 123.882C1.5 123.838 1.5 123.794 1.5 123.75C1.5 123.706 1.5 123.663 1.5 123.619C1.5 123.575 1.5 123.531 1.5 123.487C1.5 123.443 1.5 123.4 1.5 123.356C1.5 123.312 1.5 123.268 1.5 123.224C1.5 123.181 1.5 123.137 1.5 123.093C1.5 123.049 1.5 123.005 1.5 122.962C1.5 122.918 1.5 122.874 1.5 122.831C1.5 122.787 1.5 122.743 1.5 122.699C1.5 122.656 1.5 122.612 1.5 122.569C1.5 122.525 1.5 122.481 1.5 122.438C1.5 122.394 1.5 122.35 1.5 122.307C1.5 122.263 1.5 122.22 1.5 122.176C1.5 122.133 1.5 122.089 1.5 122.046C1.5 122.002 1.5 121.958 1.5 121.915C1.5 121.872 1.5 121.828 1.5 121.785C1.5 121.741 1.5 121.698 1.5 121.654C1.5 121.611 1.5 121.567 1.5 121.524C1.5 121.481 1.5 121.437 1.5 121.394C1.5 121.351 1.5 121.307 1.5 121.264C1.5 121.221 1.5 121.177 1.5 121.134C1.5 121.091 1.5 121.048 1.5 121.004C1.5 120.961 1.5 120.918 1.5 120.875C1.5 120.831 1.5 120.788 1.5 120.745C1.5 120.702 1.5 120.659 1.5 120.616C1.5 120.573 1.5 120.529 1.5 120.486C1.5 120.443 1.5 120.4 1.5 120.357C1.5 120.314 1.5 120.271 1.5 120.228C1.5 120.185 1.5 120.142 1.5 120.099C1.5 120.056 1.5 120.013 1.5 119.97C1.5 119.927 1.5 119.885 1.5 119.842C1.5 119.799 1.5 119.756 1.5 119.713C1.5 119.67 1.5 119.628 1.5 119.585C1.5 119.542 1.5 119.499 1.5 119.456C1.5 119.414 1.5 119.371 1.5 119.328C1.5 119.286 1.5 119.243 1.5 119.2C1.5 119.158 1.5 119.115 1.5 119.072C1.5 119.03 1.5 118.987 1.5 118.945C1.5 118.902 1.5 118.86 1.5 118.817C1.5 118.775 1.5 118.732 1.5 118.69C1.5 118.647 1.5 118.605 1.5 118.562C1.5 118.52 1.5 118.478 1.5 118.435C1.5 118.393 1.5 118.35 1.5 118.308C1.5 118.266 1.5 118.224 1.5 118.181C1.5 118.139 1.5 118.097 1.5 118.055C1.5 118.012 1.5 117.97 1.5 117.928C1.5 117.886 1.5 117.844 1.5 117.802C1.5 117.76 1.5 117.718 1.5 117.675C1.5 117.633 1.5 117.591 1.5 117.549C1.5 117.507 1.5 117.465 1.5 117.424C1.5 117.382 1.5 117.34 1.5 117.298C1.5 117.256 1.5 117.214 1.5 117.172C1.5 117.13 1.5 117.089 1.5 117.047C1.5 117.005 1.5 116.963 1.5 116.922C1.5 116.88 1.5 116.838 1.5 116.797C1.5 116.755 1.5 116.713 1.5 116.672C1.5 116.63 1.5 116.589 1.5 116.547C1.5 116.506 1.5 116.464 1.5 116.423C1.5 116.381 1.5 116.34 1.5 116.298C1.5 116.257 1.5 116.215 1.5 116.174C1.5 116.133 1.5 116.091 1.5 116.05C1.5 116.009 1.5 115.968 1.5 115.926C1.5 115.885 1.5 115.844 1.5 115.803C1.5 115.762 1.5 115.72 1.5 115.679C1.5 115.638 1.5 115.597 1.5 115.556C1.5 115.515 1.5 115.474 1.5 115.433C1.5 115.392 1.5 115.351 1.5 115.31C1.5 115.269 1.5 115.228 1.5 115.188C1.5 115.147 1.5 115.106 1.5 115.065C1.5 115.024 1.5 114.984 1.5 114.943C1.5 114.902 1.5 114.862 1.5 114.821C1.5 114.78 1.5 114.74 1.5 114.699C1.5 114.659 1.5 114.618 1.5 114.578C1.5 114.537 1.5 114.497 1.5 114.456C1.5 114.416 1.5 114.375 1.5 114.335C1.5 114.295 1.5 114.254 1.5 114.214C1.5 114.174 1.5 114.133 1.5 114.093C1.5 114.053 1.5 114.013 1.5 113.973C1.5 113.933 1.5 113.892 1.5 113.852C1.5 113.812 1.5 113.772 1.5 113.732C1.5 113.692 1.5 113.652 1.5 113.612C1.5 113.572 1.5 113.533 1.5 113.493C1.5 113.453 1.5 113.413 1.5 113.373C1.5 113.334 1.5 113.294 1.5 113.254C1.5 113.214 1.5 113.175 1.5 113.135C1.5 113.096 1.5 113.056 1.5 113.016C1.5 112.977 1.5 112.937 1.5 112.898C1.5 112.858 1.5 112.819 1.5 112.78C1.5 112.74 1.5 112.701 1.5 112.662C1.5 112.622 1.5 112.583 1.5 112.544C1.5 112.505 1.5 112.465 1.5 112.426C1.5 112.387 1.5 112.348 1.5 112.309C1.5 112.27 1.5 112.231 1.5 112.192C1.5 112.153 1.5 112.114 1.5 112.075C1.5 112.036 1.5 111.997 1.5 111.958C1.5 111.92 1.5 111.881 1.5 111.842C1.5 111.803 1.5 111.765 1.5 111.726H0.5C0.5 111.765 0.5 111.803 0.5 111.842C0.5 111.881 0.5 111.92 0.5 111.958C0.5 111.997 0.5 112.036 0.5 112.075C0.5 112.114 0.5 112.153 0.5 112.192C0.5 112.231 0.5 112.27 0.5 112.309C0.5 112.348 0.5 112.387 0.5 112.426C0.5 112.465 0.5 112.505 0.5 112.544C0.5 112.583 0.5 112.622 0.5 112.662C0.5 112.701 0.5 112.74 0.5 112.78C0.5 112.819 0.5 112.858 0.5 112.898C0.5 112.937 0.5 112.977 0.5 113.016C0.5 113.056 0.5 113.096 0.5 113.135C0.5 113.175 0.5 113.214 0.5 113.254C0.5 113.294 0.5 113.334 0.5 113.373C0.5 113.413 0.5 113.453 0.5 113.493C0.5 113.533 0.5 113.572 0.5 113.612C0.5 113.652 0.5 113.692 0.5 113.732C0.5 113.772 0.5 113.812 0.5 113.852C0.5 113.892 0.5 113.933 0.5 113.973C0.5 114.013 0.5 114.053 0.5 114.093C0.5 114.133 0.5 114.174 0.5 114.214C0.5 114.254 0.5 114.295 0.5 114.335C0.5 114.375 0.5 114.416 0.5 114.456C0.5 114.497 0.5 114.537 0.5 114.578C0.5 114.618 0.5 114.659 0.5 114.699C0.5 114.74 0.5 114.78 0.5 114.821C0.5 114.862 0.5 114.902 0.5 114.943C0.5 114.984 0.5 115.024 0.5 115.065C0.5 115.106 0.5 115.147 0.5 115.188C0.5 115.228 0.5 115.269 0.5 115.31C0.5 115.351 0.5 115.392 0.5 115.433C0.5 115.474 0.5 115.515 0.5 115.556C0.5 115.597 0.5 115.638 0.5 115.679C0.5 115.72 0.5 115.762 0.5 115.803C0.5 115.844 0.5 115.885 0.5 115.926C0.5 115.968 0.5 116.009 0.5 116.05C0.5 116.091 0.5 116.133 0.5 116.174C0.5 116.215 0.5 116.257 0.5 116.298C0.5 116.34 0.5 116.381 0.5 116.423C0.5 116.464 0.5 116.506 0.5 116.547C0.5 116.589 0.5 116.63 0.5 116.672C0.5 116.713 0.5 116.755 0.5 116.797C0.5 116.838 0.5 116.88 0.5 116.922C0.5 116.963 0.5 117.005 0.5 117.047C0.5 117.089 0.5 117.13 0.5 117.172C0.5 117.214 0.5 117.256 0.5 117.298C0.5 117.34 0.5 117.382 0.5 117.424C0.5 117.465 0.5 117.507 0.5 117.549C0.5 117.591 0.5 117.633 0.5 117.675C0.5 117.718 0.5 117.76 0.5 117.802C0.5 117.844 0.5 117.886 0.5 117.928C0.5 117.97 0.5 118.012 0.5 118.055C0.5 118.097 0.5 118.139 0.5 118.181C0.5 118.224 0.5 118.266 0.5 118.308C0.5 118.35 0.5 118.393 0.5 118.435C0.5 118.478 0.5 118.52 0.5 118.562C0.5 118.605 0.5 118.647 0.5 118.69C0.5 118.732 0.5 118.775 0.5 118.817C0.5 118.86 0.5 118.902 0.5 118.945C0.5 118.987 0.5 119.03 0.5 119.072C0.5 119.115 0.5 119.158 0.5 119.2C0.5 119.243 0.5 119.286 0.5 119.328C0.5 119.371 0.5 119.414 0.5 119.456C0.5 119.499 0.5 119.542 0.5 119.585C0.5 119.628 0.5 119.67 0.5 119.713C0.5 119.756 0.5 119.799 0.5 119.842C0.5 119.885 0.5 119.927 0.5 119.97C0.5 120.013 0.5 120.056 0.5 120.099C0.5 120.142 0.5 120.185 0.5 120.228C0.5 120.271 0.5 120.314 0.5 120.357C0.5 120.4 0.5 120.443 0.5 120.486C0.5 120.529 0.5 120.573 0.5 120.616C0.5 120.659 0.5 120.702 0.5 120.745C0.5 120.788 0.5 120.831 0.5 120.875C0.5 120.918 0.5 120.961 0.5 121.004C0.5 121.048 0.5 121.091 0.5 121.134C0.5 121.177 0.5 121.221 0.5 121.264C0.5 121.307 0.5 121.351 0.5 121.394C0.5 121.437 0.5 121.481 0.5 121.524C0.5 121.567 0.5 121.611 0.5 121.654C0.5 121.698 0.5 121.741 0.5 121.785C0.5 121.828 0.5 121.872 0.5 121.915C0.5 121.958 0.5 122.002 0.5 122.046C0.5 122.089 0.5 122.133 0.5 122.176C0.5 122.22 0.5 122.263 0.5 122.307C0.5 122.35 0.5 122.394 0.5 122.438C0.5 122.481 0.5 122.525 0.5 122.569C0.5 122.612 0.5 122.656 0.5 122.699C0.5 122.743 0.5 122.787 0.5 122.831C0.5 122.874 0.5 122.918 0.5 122.962C0.5 123.005 0.5 123.049 0.5 123.093C0.5 123.137 0.5 123.181 0.5 123.224C0.5 123.268 0.5 123.312 0.5 123.356C0.5 123.4 0.5 123.443 0.5 123.487C0.5 123.531 0.5 123.575 0.5 123.619C0.5 123.663 0.5 123.706 0.5 123.75C0.5 123.794 0.5 123.838 0.5 123.882C0.5 123.926 0.5 123.97 0.5 124.014C0.5 124.058 0.5 124.102 0.5 124.146C0.5 124.19 0.5 124.234 0.5 124.278C0.5 124.322 0.5 124.366 0.5 124.41C0.5 124.454 0.5 124.498 0.5 124.542C0.5 124.586 0.5 124.63 0.5 124.674C0.5 124.718 0.5 124.762 0.5 124.806C0.5 124.85 0.5 124.894 0.5 124.938C0.5 124.982 0.5 125.026 0.5 125.071C0.5 125.115 0.5 125.159 0.5 125.203C0.5 125.247 0.5 125.291 0.5 125.335C0.5 125.379 0.5 125.424 0.5 125.468C0.5 125.512 0.5 125.556 0.5 125.6C0.5 125.644 0.5 125.689 0.5 125.733C0.5 125.777 0.5 125.821 0.5 125.865C0.5 125.91 0.5 125.954 0.5 125.998C0.5 126.042 0.5 126.086 0.5 126.131C0.5 126.175 0.5 126.219 0.5 126.263C0.5 126.308 0.5 126.352 0.5 126.396C0.5 126.44 0.5 126.485 0.5 126.529C0.5 126.573 0.5 126.618 0.5 126.662C0.5 126.706 0.5 126.75 0.5 126.795C0.5 126.839 0.5 126.883 0.5 126.928C0.5 126.972 0.5 127.016 0.5 127.061C0.5 127.105 0.5 127.149 0.5 127.193C0.5 127.238 0.5 127.282 0.5 127.326C0.5 127.371 0.5 127.415 0.5 127.459C0.5 127.504 0.5 127.548 0.5 127.592C0.5 127.637 0.5 127.681 0.5 127.725C0.5 127.77 0.5 127.814 0.5 127.859C0.5 127.903 0.5 127.947 0.5 127.992C0.5 128.036 0.5 128.08 0.5 128.125C0.5 128.169 0.5 128.213 0.5 128.258C0.5 128.302 0.5 128.347 0.5 128.391C0.5 128.435 0.5 128.48 0.5 128.524C0.5 128.568 0.5 128.613 0.5 128.657C0.5 128.702 0.5 128.746 0.5 128.79C0.5 128.835 0.5 128.879 0.5 128.923C0.5 128.968 0.5 129.012 0.5 129.057C0.5 129.101 0.5 129.145 0.5 129.19C0.5 129.234 0.5 129.278 0.5 129.323C0.5 129.367 0.5 129.412 0.5 129.456C0.5 129.5 0.5 129.545 0.5 129.589C0.5 129.633 0.5 129.678 0.5 129.722C0.5 129.766 0.5 129.811 0.5 129.855C0.5 129.9 0.5 129.944 0.5 129.988C0.5 130.033 0.5 130.077 0.5 130.121C0.5 130.166 0.5 130.21 0.5 130.254C0.5 130.299 0.5 130.343 0.5 130.387C0.5 130.432 0.5 130.476 0.5 130.52C0.5 130.565 0.5 130.609 0.5 130.653C0.5 130.698 0.5 130.742 0.5 130.786C0.5 130.831 0.5 130.875 0.5 130.919C0.5 130.964 0.5 131.008 0.5 131.052C0.5 131.097 0.5 131.141 0.5 131.185C0.5 131.229 0.5 131.274 0.5 131.318C0.5 131.362 0.5 131.407 0.5 131.451C0.5 131.495 0.5 131.539 0.5 131.584C0.5 131.628 0.5 131.672 0.5 131.716C0.5 131.761 0.5 131.805 0.5 131.849C0.5 131.893 0.5 131.937 0.5 131.982C0.5 132.026 0.5 132.07 0.5 132.114C0.5 132.159 0.5 132.203 0.5 132.247C0.5 132.291 0.5 132.335 0.5 132.379C0.5 132.424 0.5 132.468 0.5 132.512C0.5 132.556 0.5 132.6 0.5 132.644C0.5 132.688 0.5 132.733 0.5 132.777C0.5 132.821 0.5 132.865 0.5 132.909C0.5 132.953 0.5 132.997 0.5 133.041C0.5 133.085 0.5 133.13 0.5 133.174C0.5 133.218 0.5 133.262 0.5 133.306C0.5 133.35 0.5 133.394 0.5 133.438C0.5 133.482 0.5 133.526 0.5 133.57C0.5 133.614 0.5 133.658 0.5 133.702C0.5 133.746 0.5 133.79 0.5 133.834C0.5 133.878 0.5 133.922 0.5 133.966C0.5 134.009 0.5 134.053 0.5 134.097C0.5 134.141 0.5 134.185 0.5 134.229C0.5 134.273 0.5 134.317 0.5 134.361C0.5 134.404 0.5 134.448 0.5 134.492C0.5 134.536 0.5 134.58 0.5 134.624C0.5 134.667 0.5 134.711 0.5 134.755C0.5 134.799 0.5 134.843 0.5 134.886C0.5 134.93 0.5 134.974 0.5 135.018C0.5 135.061 0.5 135.105 0.5 135.149C0.5 135.192 0.5 135.236 0.5 135.28C0.5 135.323 0.5 135.367 0.5 135.411C0.5 135.454 0.5 135.498 0.5 135.541C0.5 135.585 0.5 135.629 0.5 135.672C0.5 135.716 0.5 135.759 0.5 135.803C0.5 135.846 0.5 135.89 0.5 135.933C0.5 135.977 0.5 136.02 0.5 136.064C0.5 136.107 0.5 136.151 0.5 136.194C0.5 136.238 0.5 136.281 0.5 136.325C0.5 136.368 0.5 136.411 0.5 136.455C0.5 136.498 0.5 136.542 0.5 136.585C0.5 136.628 0.5 136.671 0.5 136.715C0.5 136.758 0.5 136.801 0.5 136.845C0.5 136.888 0.5 136.931 0.5 136.974C0.5 137.018 0.5 137.061 0.5 137.104C0.5 137.147 0.5 137.19 0.5 137.233C0.5 137.277 0.5 137.32 0.5 137.363C0.5 137.406 0.5 137.449 0.5 137.492C0.5 137.535 0.5 137.578 0.5 137.621C0.5 137.664 0.5 137.707 0.5 137.75C0.5 137.793 0.5 137.836 0.5 137.879C0.5 137.922 0.5 137.965 0.5 138.008C0.5 138.051 0.5 138.094 0.5 138.137C0.5 138.179 0.5 138.222 0.5 138.265C0.5 138.308 0.5 138.351 0.5 138.393C0.5 138.436 0.5 138.479 0.5 138.522C0.5 138.564 0.5 138.607 0.5 138.65C0.5 138.692 0.5 138.735 0.5 138.778C0.5 138.82 0.5 138.863 0.5 138.906C0.5 138.948 0.5 138.991 0.5 139.033C0.5 139.076 0.5 139.118 0.5 139.161C0.5 139.203 0.5 139.246 0.5 139.288C0.5 139.331 0.5 139.373 0.5 139.415C0.5 139.458 0.5 139.5 0.5 139.543C0.5 139.585 0.5 139.627 0.5 139.67C0.5 139.712 0.5 139.754 0.5 139.796C0.5 139.839 0.5 139.881 0.5 139.923C0.5 139.965 0.5 140.007 0.5 140.049C0.5 140.092 0.5 140.134 0.5 140.176C0.5 140.218 0.5 140.26 0.5 140.302C0.5 140.344 0.5 140.386 0.5 140.428C0.5 140.47 0.5 140.512 0.5 140.554C0.5 140.596 0.5 140.638 0.5 140.679C0.5 140.721 0.5 140.763 0.5 140.805C0.5 140.847 0.5 140.888 0.5 140.93C0.5 140.972 0.5 141.014 0.5 141.055C0.5 141.097 0.5 141.139 0.5 141.18C0.5 141.222 0.5 141.264 0.5 141.305C0.5 141.347 0.5 141.388 0.5 141.43C0.5 141.471 0.5 141.513 0.5 141.554C0.5 141.596 0.5 141.637 0.5 141.679C0.5 141.72 0.5 141.761 0.5 141.803C0.5 141.844 0.5 141.885 0.5 141.926C0.5 141.968 0.5 142.009 0.5 142.05C0.5 142.091 0.5 142.133 0.5 142.174C0.5 142.215 0.5 142.256 0.5 142.297C0.5 142.338 0.5 142.379 0.5 142.42C0.5 142.461 0.5 142.502 0.5 142.543C0.5 142.584 0.5 142.625 0.5 142.666C0.5 142.707 0.5 142.748 0.5 142.788C0.5 142.829 0.5 142.87 0.5 142.911C0.5 142.952 0.5 142.992 0.5 143.033C0.5 143.074 0.5 143.114 0.5 143.155C0.5 143.195 0.5 143.236 0.5 143.277C0.5 143.317 0.5 143.358 0.5 143.398C0.5 143.439 0.5 143.479 0.5 143.519C0.5 143.56 0.5 143.6 0.5 143.641C0.5 143.681 0.5 143.721 0.5 143.761C0.5 143.802 0.5 143.842 0.5 143.882C0.5 143.922 0.5 143.963 0.5 144.003C0.5 144.043 0.5 144.083 0.5 144.123C0.5 144.163 0.5 144.203 0.5 144.243C0.5 144.283 0.5 144.323 0.5 144.363C0.5 144.403 0.5 144.442 0.5 144.482C0.5 144.522 0.5 144.562 0.5 144.602C0.5 144.641 0.5 144.681 0.5 144.721C0.5 144.76 0.5 144.8 0.5 144.84C0.5 144.879 0.5 144.919 0.5 144.958C0.5 144.998 0.5 145.037 0.5 145.077C0.5 145.116 0.5 145.156 0.5 145.195C0.5 145.234 0.5 145.274 0.5 145.313C0.5 145.352 0.5 145.391 0.5 145.431C0.5 145.47 0.5 145.509 0.5 145.548C0.5 145.587 0.5 145.626 0.5 145.665C0.5 145.704 0.5 145.743 0.5 145.782C0.5 145.821 0.5 145.86 0.5 145.899C0.5 145.938 0.5 145.977 0.5 146.015C0.5 146.054 0.5 146.093 0.5 146.132C0.5 146.17 0.5 146.209 0.5 146.248C0.5 146.286 0.5 146.325 0.5 146.363C0.5 146.402 0.5 146.44 0.5 146.479C0.5 146.517 0.5 146.556 0.5 146.594C0.5 146.632 0.5 146.671 0.5 146.709C0.5 146.747 0.5 146.786 0.5 146.824C0.5 146.862 0.5 146.9 0.5 146.938C0.5 146.976 0.5 147.014 0.5 147.052C0.5 147.09 0.5 147.128 0.5 147.166C0.5 147.204 0.5 147.242 0.5 147.28C0.5 147.318 0.5 147.355 0.5 147.393C0.5 147.431 0.5 147.469 0.5 147.506C0.5 147.544 0.5 147.582 0.5 147.619C0.5 147.657 0.5 147.694 0.5 147.732C0.5 147.769 0.5 147.807 0.5 147.844C0.5 147.881 0.5 147.919 0.5 147.956C0.5 147.993 0.5 148.03 0.5 148.068C0.5 148.105 0.5 148.142 0.5 148.179C0.5 148.216 0.5 148.253 0.5 148.29C0.5 148.327 0.5 148.364 0.5 148.401C0.5 148.438 0.5 148.475 0.5 148.511C0.5 148.548 0.5 148.585 0.5 148.622C0.5 148.658 0.5 148.695 0.5 148.732C0.5 148.768 0.5 148.805 0.5 148.841C0.5 148.878 0.5 148.914 0.5 148.951C0.5 148.987 0.5 149.023 0.5 149.06C0.5 149.096 0.5 149.132 0.5 149.168C0.5 149.205 0.5 149.241 0.5 149.277C0.5 149.313 0.5 149.349 0.5 149.385C0.5 149.421 0.5 149.457 0.5 149.493C0.5 149.529 0.5 149.565 0.5 149.6C0.5 149.636 0.5 149.672 0.5 149.708C0.5 149.743 0.5 149.779 0.5 149.814C0.5 149.85 0.5 149.886 0.5 149.921C0.5 149.957 0.5 149.992 0.5 150.027C0.5 150.063 0.5 150.098 0.5 150.133C0.5 150.169 0.5 150.204 0.5 150.239C0.5 150.274 0.5 150.309 0.5 150.344C0.5 150.379 0.5 150.414 0.5 150.449C0.5 150.484 0.5 150.519 0.5 150.554C0.5 150.589 0.5 150.624 0.5 150.658C0.5 150.693 0.5 150.728 0.5 150.762C0.5 150.797 0.5 150.831 0.5 150.866C0.5 150.9 0.5 150.935 0.5 150.969C0.5 151.004 0.5 151.038 0.5 151.072C0.5 151.107 0.5 151.141 0.5 151.175C0.5 151.209 0.5 151.243 0.5 151.277C0.5 151.311 0.5 151.345 0.5 151.379C0.5 151.413 0.5 151.447 0.5 151.481C0.5 151.515 0.5 151.548 0.5 151.582C0.5 151.616 0.5 151.65 0.5 151.683C0.5 151.717 0.5 151.75 0.5 151.784C0.5 151.817 0.5 151.851 0.5 151.884C0.5 151.917 0.5 151.951 0.5 151.984C0.5 152.017 0.5 152.05 0.5 152.083C0.5 152.117 0.5 152.15 0.5 152.183C0.5 152.216 0.5 152.249 0.5 152.281C0.5 152.314 0.5 152.347 0.5 152.38C0.5 152.413 0.5 152.445 0.5 152.478C0.5 152.511 0.5 152.543 0.5 152.576C0.5 152.608 0.5 152.641 0.5 152.673C0.5 152.706 0.5 152.738 0.5 152.77C0.5 152.803 0.5 152.835 0.5 152.867C0.5 152.899 0.5 152.931 0.5 152.963C0.5 152.995 0.5 153.027 0.5 153.059C0.5 153.091 0.5 153.123 0.5 153.155C0.5 153.186 0.5 153.218 0.5 153.25C0.5 153.281 0.5 153.313 0.5 153.345C0.5 153.376 0.5 153.408 0.5 153.439C0.5 153.47 0.5 153.502 0.5 153.533C0.5 153.564 0.5 153.595 0.5 153.627C0.5 153.658 0.5 153.689 0.5 153.72C0.5 153.751 0.5 153.782 0.5 153.813C0.5 153.844 0.5 153.874 0.5 153.905C0.5 153.936 0.5 153.967 0.5 153.997C0.5 154.028 0.5 154.058 0.5 154.089C0.5 154.119 0.5 154.15 0.5 154.18C0.5 154.211 0.5 154.241 0.5 154.271C0.5 154.301 0.5 154.331 0.5 154.362C0.5 154.392 0.5 154.422 0.5 154.452C0.5 154.482 0.5 154.511 0.5 154.541C0.5 154.571 0.5 154.601 0.5 154.631C0.5 154.66 0.5 154.69 0.5 154.719C0.5 154.749 0.5 154.779 0.5 154.808C0.5 154.837 0.5 154.867 0.5 154.896C0.5 154.925 0.5 154.954 0.5 154.984C0.5 155.013 0.5 155.042 0.5 155.071C0.5 155.1 0.5 155.129 0.5 155.158C0.5 155.187 0.5 155.215 0.5 155.244C0.5 155.273 0.5 155.301 0.5 155.33C0.5 155.359 0.5 155.387 0.5 155.416C0.5 155.444 0.5 155.472 0.5 155.501C0.5 155.529 0.5 155.557 0.5 155.585C0.5 155.614 0.5 155.642 0.5 155.67C0.5 155.698 0.5 155.726 0.5 155.754C0.5 155.781 0.5 155.809 0.5 155.837C0.5 155.865 0.5 155.892 0.5 155.92C0.5 155.948 0.5 155.975 0.5 156.002C0.5 156.03 0.5 156.057 0.5 156.085C0.5 156.112 0.5 156.139 0.5 156.166C0.5 156.193 0.5 156.221 0.5 156.248C0.5 156.275 0.5 156.301 0.5 156.328C0.5 156.355 0.5 156.382 0.5 156.409C0.5 156.435 0.5 156.462 0.5 156.489C0.5 156.515 0.5 156.542 0.5 156.568C0.5 156.594 0.5 156.621 0.5 156.647C0.5 156.673 0.5 156.699 0.5 156.726C0.5 156.752 0.5 156.778 0.5 156.804C0.5 156.83 0.5 156.855 0.5 156.881C0.5 156.907 0.5 156.933 0.5 156.958C0.5 156.984 0.5 157.01 0.5 157.035C0.5 157.061 0.5 157.086 0.5 157.111C0.5 157.137 0.5 157.162 0.5 157.187C0.5 157.212 0.5 157.238 0.5 157.263C0.5 157.288 0.5 157.313 0.5 157.337C0.5 157.362 0.5 157.387 0.5 157.412C0.5 157.437 0.5 157.461 0.5 157.486C0.5 157.51 0.5 157.535 0.5 157.559C0.5 157.584 0.5 157.608 0.5 157.632C0.5 157.657 0.5 157.681 0.5 157.705C0.5 157.729 0.5 157.753 0.5 157.777C0.5 157.801 0.5 157.825 0.5 157.848C0.5 157.872 0.5 157.896 0.5 157.919C0.5 157.943 0.5 157.967 0.5 157.99C0.5 158.013 0.5 158.037 0.5 158.06C0.5 158.083 0.5 158.107 0.5 158.13C0.5 158.153 0.5 158.176 0.5 158.199C0.5 158.222 0.5 158.245 0.5 158.267C0.5 158.29 0.5 158.313 0.5 158.336C0.5 158.358 0.5 158.381 0.5 158.403C0.5 158.426 0.5 158.448 0.5 158.47C0.5 158.493 0.5 158.515 0.5 158.537C0.5 158.559 0.5 158.581 0.5 158.603C0.5 158.625 0.5 158.647 0.5 158.669C0.5 158.691 0.5 158.712 0.5 158.734C0.5 158.756 0.5 158.777 0.5 158.799C0.5 158.82 0.5 158.841 0.5 158.863C0.5 158.884 0.5 158.905 0.5 158.926C0.5 158.948 0.5 158.969 0.5 158.99C0.5 159.01 0.5 159.031 0.5 159.052C0.5 159.073 0.5 159.094 0.5 159.114C0.5 159.135 0.5 159.155 0.5 159.176C0.5 159.196 0.5 159.217 0.5 159.237C0.5 159.257 0.5 159.277 0.5 159.297C0.5 159.317 0.5 159.337 0.5 159.357C0.5 159.377 0.5 159.397 0.5 159.417C0.5 159.437 0.5 159.456 0.5 159.476C0.5 159.495 0.5 159.515 0.5 159.534C0.5 159.554 0.5 159.573 0.5 159.592C0.5 159.611 0.5 159.63 0.5 159.649C0.5 159.668 0.5 159.687 0.5 159.706C0.5 159.725 0.5 159.744 0.5 159.763C0.5 159.781 0.5 159.8 0.5 159.818C0.5 159.837 0.5 159.855 0.5 159.873C0.5 159.892 0.5 159.91 0.5 159.928C0.5 159.946 0.5 159.964 0.5 159.982C0.5 160 0.5 160.018 0.5 160.036C0.5 160.054 0.5 160.071 0.5 160.089C0.5 160.106 0.5 160.124 0.5 160.141C0.5 160.159 0.5 160.176 0.5 160.193C0.5 160.21 0.5 160.228 0.5 160.245C0.5 160.262 0.5 160.279 0.5 160.295C0.5 160.312 0.5 160.329 0.5 160.346C0.5 160.362 0.5 160.379 0.5 160.395C0.5 160.412 0.5 160.428 0.5 160.445C0.5 160.461 0.5 160.477 0.5 160.493C0.5 160.509 0.5 160.525 0.5 160.541C0.5 160.557 0.5 160.573 0.5 160.589C0.5 160.604 0.5 160.62 0.5 160.636C0.5 160.651 0.5 160.666 0.5 160.682C0.5 160.697 0.5 160.712 0.5 160.728C0.5 160.743 0.5 160.758 0.5 160.773C0.5 160.788 0.5 160.803 0.5 160.817C0.5 160.832 0.5 160.847 0.5 160.861C0.5 160.876 0.5 160.89 0.5 160.905C0.5 160.919 0.5 160.933 0.5 160.948C0.5 160.962 0.5 160.976 0.5 160.99C0.5 161.004 0.5 161.018 0.5 161.032C0.5 161.045 0.5 161.059 0.5 161.073C0.5 161.086 0.5 161.1 0.5 161.113C0.5 161.127 0.5 161.14 0.5 161.153C0.5 161.166 0.5 161.179 0.5 161.192C0.5 161.205 0.5 161.218 0.5 161.231C0.5 161.244 0.5 161.257 0.5 161.269C0.5 161.282 0.5 161.294 0.5 161.307C0.5 161.319 0.5 161.332 0.5 161.344C0.5 161.356 0.5 161.368 0.5 161.38C0.5 161.392 0.5 161.404 0.5 161.416C0.5 161.428 0.5 161.439 0.5 161.451C0.5 161.463 0.5 161.474 0.5 161.486C0.5 161.497 0.5 161.508 0.5 161.519C0.5 161.531 0.5 161.542 0.5 161.553C0.5 161.564 0.5 161.575 0.5 161.585C0.5 161.596 0.5 161.607 0.5 161.618C0.5 161.628 0.5 161.639 0.5 161.649C0.5 161.659 0.5 161.67 0.5 161.68C0.5 161.69 0.5 161.7 0.5 161.71C0.5 161.72 0.5 161.73 0.5 161.74C0.5 161.749 0.5 161.759 0.5 161.769C0.5 161.778 0.5 161.788 0.5 161.797C0.5 161.806 0.5 161.816 0.5 161.825C0.5 161.834 0.5 161.843 0.5 161.852C0.5 161.861 0.5 161.87 0.5 161.878C0.5 161.887 0.5 161.896 0.5 161.904C0.5 161.913 0.5 161.921 0.5 161.929C0.5 161.938 0.5 161.946 0.5 161.954C0.5 161.962 0.5 161.97 0.5 161.978C0.5 161.986 0.5 161.993 0.5 162.001C0.5 162.009 0.5 162.016 0.5 162.024C0.5 162.031 0.5 162.038 0.5 162.046C0.5 162.053 0.5 162.06 0.5 162.067C0.5 162.074 0.5 162.081 0.5 162.088C0.5 162.094 0.5 162.101 0.5 162.108C0.5 162.114 0.5 162.121 0.5 162.127C0.5 162.133 0.5 162.14 0.5 162.146C0.5 162.152 0.5 162.158 0.5 162.164C0.5 162.17 0.5 162.176 0.5 162.181C0.5 162.187 0.5 162.193 0.5 162.198C0.5 162.203 0.5 162.209 0.5 162.214C0.5 162.219 0.5 162.225 0.5 162.23C0.5 162.235 0.5 162.239 0.5 162.244C0.5 162.249 0.5 162.254 0.5 162.258C0.5 162.263 0.5 162.267 0.5 162.272C0.5 162.276 0.5 162.28 0.5 162.285C0.5 162.289 0.5 162.293 0.5 162.297C0.5 162.301 0.5 162.304 0.5 162.308C0.5 162.312 0.5 162.315 0.5 162.319C0.5 162.322 0.5 162.326 0.5 162.329C0.5 162.332 0.5 162.335 0.5 162.338C0.5 162.341 0.5 162.344 0.5 162.347C0.5 162.35 0.5 162.352 0.5 162.355C0.5 162.357 0.5 162.36 0.5 162.362C0.5 162.365 0.5 162.367 0.5 162.369C0.5 162.371 0.5 162.373 0.5 162.375C0.5 162.377 0.5 162.378 0.5 162.38C0.5 162.382 0.5 162.383 0.5 162.385C0.5 162.386 0.5 162.387 0.5 162.388C0.5 162.39 0.5 162.391 0.5 162.392C0.5 162.393 0.5 162.393 0.5 162.394C0.5 162.395 0.5 162.395 0.5 162.396C0.5 162.396 0.5 162.397 0.5 162.397C0.5 162.397 0.5 162.397 1 162.397ZM249.862 160.521C249.594 160.943 249.594 160.943 249.594 160.943C249.595 160.943 249.595 160.943 249.595 160.944C249.597 160.944 249.597 160.945 249.6 160.946C249.603 160.949 249.608 160.952 249.616 160.956C249.63 160.966 249.652 160.979 249.68 160.997C249.737 161.033 249.822 161.087 249.933 161.158C250.157 161.3 250.486 161.509 250.913 161.78C251.768 162.322 253.01 163.11 254.566 164.098C257.678 166.072 262.04 168.84 267.043 172.014C277.05 178.363 289.621 186.339 299.877 192.847L300.413 192.002C290.157 185.495 277.586 177.519 267.579 171.17C262.576 167.995 258.214 165.227 255.102 163.253C253.546 162.266 252.303 161.477 251.449 160.935C251.022 160.664 250.692 160.455 250.469 160.314C250.358 160.243 250.273 160.189 250.216 160.153C250.187 160.135 250.166 160.121 250.152 160.112C250.144 160.108 250.139 160.104 250.135 160.102C250.133 160.1 250.133 160.1 250.131 160.099C250.131 160.099 250.13 160.099 250.13 160.099C250.13 160.098 250.13 160.098 249.862 160.521ZM300.413 192.002L168.789 108.489L168.253 109.333L299.877 192.847L300.413 192.002ZM80.214 112.145L120.385 138.344L120.931 137.507L80.7603 111.307L80.214 112.145ZM120.385 138.344L166.539 168.446L167.085 167.609L120.931 137.507L120.385 138.344ZM168.262 108.483L120.399 137.498L120.917 138.353L168.781 109.339L168.262 108.483ZM381.131 141.338L343.158 115.961L342.603 116.793L380.576 142.169L381.131 141.338ZM381.107 142.184L432.023 112.157L431.515 111.295L380.599 141.323L381.107 142.184ZM170.483 268.863L300.398 192.856L299.893 191.993L169.978 268L170.483 268.863ZM300.413 192.002L250.13 160.098L249.594 160.943L299.877 192.847L300.413 192.002ZM299.88 192.848L431.503 275.424L432.035 274.576L300.411 192.001L299.88 192.848ZM426.064 171.365L381.131 141.338L380.576 142.169L425.508 172.197L426.064 171.365ZM381.131 141.338L170.509 0.584283L169.953 1.41572L380.576 142.169L381.131 141.338ZM169.731 212.13V268.431H170.731V212.13H169.731ZM431.269 217.76V275H432.269V217.76H431.269ZM0.5 111.726V162.397H1.5V111.726H0.5Z" fill="white"/>
</svg>
