<svg width="34" height="34" viewBox="0 0 34 34" fill="none" xmlns="http://www.w3.org/2000/svg">
<path d="M4.95837 28.3333C4.39171 28.3333 3.89587 28.1208 3.47087 27.6958C3.04587 27.2708 2.83337 26.775 2.83337 26.2083V7.79163C2.83337 7.22496 3.04587 6.72913 3.47087 6.30413C3.89587 5.87913 4.39171 5.66663 4.95837 5.66663H29.0417C29.6084 5.66663 30.1042 5.87913 30.5292 6.30413C30.9542 6.72913 31.1667 7.22496 31.1667 7.79163V26.2083C31.1667 26.775 30.9542 27.2708 30.5292 27.6958C30.1042 28.1208 29.6084 28.3333 29.0417 28.3333H4.95837ZM17 17.6375L4.95837 9.73954V26.2083H29.0417V9.73954L17 17.6375ZM17 15.5125L28.9 7.79163H5.13546L17 15.5125ZM4.95837 9.73954V7.79163V26.2083V9.73954Z" fill="black"/>
</svg>
