<svg width="34" height="34" viewBox="0 0 34 34" fill="none" xmlns="http://www.w3.org/2000/svg">
<path d="M28.1562 29.75C25.2757 29.75 22.4128 29.0417 19.5677 27.625C16.7226 26.2083 14.1667 24.3667 11.9 22.1C9.63333 19.8333 7.79167 17.2774 6.375 14.4323C4.95833 11.5872 4.25 8.72431 4.25 5.84375C4.25 5.39514 4.40347 5.01736 4.71042 4.71042C5.01736 4.40347 5.39514 4.25 5.84375 4.25H10.8021C11.1326 4.25 11.4219 4.36215 11.6698 4.58646C11.9177 4.81076 12.0771 5.11181 12.1479 5.48958L13.1042 9.95208C13.1514 10.2826 13.1455 10.5837 13.0865 10.8552C13.0274 11.1267 12.9035 11.3569 12.7146 11.5458L9.17292 15.1229C10.4951 17.3187 11.9767 19.2312 13.6177 20.8604C15.2587 22.4896 17.1181 23.8708 19.1958 25.0042L22.5604 21.5333C22.7965 21.2736 23.0681 21.0906 23.375 20.9844C23.6819 20.8781 23.9889 20.8604 24.2958 20.9312L28.5104 21.8521C28.8646 21.9229 29.1597 22.1 29.3958 22.3833C29.6319 22.6667 29.75 22.9972 29.75 23.375V28.1562C29.75 28.6049 29.5965 28.9826 29.2896 29.2896C28.9826 29.5965 28.6049 29.75 28.1562 29.75ZM8.11042 13.175L10.9792 10.2708L10.1646 6.375H6.375C6.375 7.29583 6.51667 8.30521 6.8 9.40312C7.08333 10.501 7.52014 11.7583 8.11042 13.175ZM21.1792 26.0312C22.1472 26.4799 23.1979 26.8458 24.3312 27.1292C25.4646 27.4125 26.5625 27.5778 27.625 27.625V23.8354L23.9771 23.0917L21.1792 26.0312Z" fill="black"/>
</svg>
