<?xml version="1.0" encoding="iso-8859-1"?>
<!-- Generator: Adobe Illustrator 18.1.1, SVG Export Plug-In . SVG Version: 6.00 Build 0)  -->
<svg version="1.1" id="Capa_1" xmlns="http://www.w3.org/2000/svg" xmlns:xlink="http://www.w3.org/1999/xlink" x="0px" y="0px"
	 viewBox="0 0 25.96 25.96" style="enable-background:new 0 0 25.96 25.96;" xml:space="preserve">
<g>
	<g>
		<path style="fill:#030104;" d="M11.896,17.15c-0.131-0.043-0.953-0.887-0.439-2.474H11.45c1.34-1.401,2.487-3.655,2.487-5.876
			c0-3.412-2.359-5.201-4.957-5.201c-2.6,0-4.855,1.789-4.855,5.201c0,2.229,1.051,4.492,2.398,5.892
			c0.525,1.398-0.414,2.384-0.611,2.458C3.192,18.148,0,19.97,0,21.767c0,0.485,0,0.191,0,0.674c0,2.449,4.677,3.006,9.006,3.006
			c4.334,0,8.953-0.557,8.953-3.006c0-0.482,0-0.188,0-0.674C17.959,19.915,14.751,18.109,11.896,17.15z"/>
	</g>
	<g>
		<path style="fill:#030104;" d="M20.259,12.651c-0.122-0.041-0.896-0.23-0.413-1.723H19.84c1.26-1.316,2.129-3.438,2.129-5.523
			c0-3.209-2.01-4.891-4.452-4.891c-1.798,0-3.347,0.918-4.042,2.678c1.459,1.205,2.463,3.081,2.463,5.607
			c0,2.697-1.264,5.158-2.586,6.746c2.106,0.797,5.397,2.4,6.339,4.85c3.318-0.184,6.269-0.873,6.269-2.771c0-0.453,0-0.177,0-0.633
			C25.959,15.251,22.943,13.552,20.259,12.651z"/>
	</g>
</g>
<g>
</g>
<g>
</g>
<g>
</g>
<g>
</g>
<g>
</g>
<g>
</g>
<g>
</g>
<g>
</g>
<g>
</g>
<g>
</g>
<g>
</g>
<g>
</g>
<g>
</g>
<g>
</g>
<g>
</g>
</svg>
